<?xml version="1.0" encoding="UTF-8"?>
<svg width="250px" height="53px" viewBox="0 0 250 53" version="1.1" xmlns="http://www.w3.org/2000/svg" xmlns:xlink="http://www.w3.org/1999/xlink">
    <!-- Generator: Sketch 44.1 (41455) - http://www.bohemiancoding.com/sketch -->
    <title>Logo White</title>
    <desc>Created with Sketch.</desc>
    <defs></defs>
    <g id="Symbols" stroke="none" stroke-width="1" fill="none" fill-rule="evenodd">
        <g id="Logo-White">
            <g id="Page-1">
                <path d="M13.055347,49.679455 L9.30166971,49.679455 C8.57797976,48.559822 7.7750356,47.4481156 6.89135122,46.3448312 C6.00766684,45.240556 5.08138332,44.1699688 4.11299601,43.1320789 L3.86829865,43.1320789 L3.86829865,47.7924275 C3.86829865,48.0000055 3.90743042,48.1857853 3.98569394,48.3492716 C4.06494815,48.5132532 4.20810106,48.645033 4.41515267,48.7456018 C4.51570644,48.7896936 4.7029445,48.8431982 4.9763715,48.9056202 C5.24979851,48.9685376 5.47765434,49.0037119 5.65993901,49.0096569 L5.65993901,49.679455 L0.104219279,49.679455 L0.104219279,49.0096569 C0.248858202,48.9972716 0.459377183,48.9784459 0.736766899,48.9531798 C1.0126706,48.9279138 1.20783408,48.8902624 1.32126666,48.8402257 C1.50949539,48.7584826 1.64670423,48.6371064 1.7319025,48.4765927 C1.81660543,48.3160789 1.85870923,48.1228679 1.85870923,47.8964642 L1.85870923,38.2359138 C1.85870923,38.0223908 1.8225495,37.836611 1.75072538,37.6790697 C1.67791058,37.5220239 1.53475767,37.3932165 1.32126666,37.2926477 C1.15186079,37.2109046 0.950257912,37.1385743 0.717448686,37.0756569 C0.484639461,37.0127394 0.280559884,36.9745927 0.104219279,36.9622073 L0.104219279,36.2929046 L5.65993901,36.2929046 L5.65993901,36.9622073 C5.48409375,36.9686477 5.26416333,36.9968862 5.00014776,37.0474183 C4.73613219,37.0979505 4.54096871,37.1445193 4.41515267,37.188611 C4.20116631,37.2639138 4.05702273,37.3897486 3.98173123,37.5661156 C3.9059444,37.7419872 3.86829865,37.9342073 3.86829865,38.1417853 L3.86829865,42.7644826 L4.05702273,42.7644826 C4.62319495,42.2864092 5.1794604,41.7875284 5.72631441,41.2688312 C6.27366376,40.7501339 6.77048856,40.2329229 7.21678879,39.7171982 C7.71361359,39.1445009 8.07669691,38.6877303 8.30603877,38.3444092 C8.53587596,38.0020789 8.65029922,37.6978954 8.65029922,37.4338404 C8.65029922,37.3397119 8.59234458,37.2629229 8.47593997,37.2024826 C8.36003069,37.143033 8.22579389,37.0944826 8.07471556,37.0568312 C7.89887029,37.0186844 7.74135256,36.9949046 7.60364838,36.9859872 C7.46495352,36.9760789 7.35152094,36.9686477 7.26434132,36.9622073 L7.26434132,36.2929046 L12.2821231,36.2929046 L12.2821231,36.9622073 C12.2628049,36.9622073 12.2221871,36.9656752 12.1592791,36.9721156 C12.0963711,36.9780606 12.024547,36.9845009 11.9428161,36.9909413 C11.8546458,36.9968862 11.7664755,37.009767 11.6788005,37.0285927 C11.5906302,37.0474183 11.477693,37.0692165 11.3394934,37.0944826 C11.119563,37.1445193 10.8917072,37.2247761 10.6559259,37.3347578 C10.4201447,37.4452349 10.2269625,37.5819688 10.0758842,37.745455 C9.42897178,38.4811431 8.75332968,39.2425927 8.05044396,40.0293083 C7.34755823,40.8160239 6.65012123,41.5338771 5.96011431,42.1813817 C6.91661349,43.2633633 7.7086602,44.1937486 8.33526376,44.973033 C8.96137197,45.7523174 9.62710729,46.5856018 10.3319744,47.4718954 C10.6014387,47.8112532 10.870903,48.0837303 11.1398719,48.2878404 C11.4093362,48.4924459 11.6411548,48.645033 11.8348322,48.7456018 C11.9973033,48.827345 12.2008876,48.8902624 12.4450896,48.9343541 C12.6892916,48.9784459 12.8928759,49.0037119 13.055347,49.0096569 L13.055347,49.679455 Z" id="Fill-1" fill="#FFFFFF"></path>
                <path d="M25.5356056,49.679455 L20.9883956,49.679455 L20.9883956,49.0567211 C21.1330346,49.0443358 21.2925336,49.031455 21.4649115,49.0190697 C21.6382801,49.0066844 21.7809377,48.9814183 21.8938749,48.943767 C22.0702155,48.8867945 22.200985,48.7877119 22.2856879,48.6465193 C22.3703908,48.5048312 22.41299,48.321033 22.41299,48.0946294 L22.41299,43.3114183 C22.41299,42.651033 22.2569583,42.1417486 21.9448948,41.7835651 C21.6328314,41.4248862 21.2529065,41.2455468 20.8056156,41.2455468 C20.471262,41.2455468 20.1656379,41.2970697 19.8887436,41.4011064 C19.6113538,41.5046477 19.3656658,41.6324642 19.1511841,41.7835651 C18.9426465,41.9282257 18.7776987,42.0837853 18.6543593,42.250244 C18.5315153,42.4171982 18.4423543,42.5504642 18.384895,42.651033 L18.384895,48.0000055 C18.384895,48.2140239 18.4289802,48.3898954 18.5176458,48.528611 C18.6053208,48.6668312 18.7370809,48.7738404 18.9134215,48.8491431 C19.045677,48.9120606 19.1888299,48.9596202 19.3428802,48.9908312 C19.4969306,49.0225376 19.655439,49.0443358 19.8189008,49.0567211 L19.8189008,49.679455 L15.26327,49.679455 L15.26327,49.0567211 C15.407909,49.0443358 15.5570059,49.031455 15.7110563,49.0190697 C15.865602,49.0066844 15.9988481,48.9819138 16.1122807,48.9442624 C16.288126,48.8872899 16.4188954,48.7882073 16.5035983,48.6470147 C16.5887966,48.505822 16.6309004,48.3220239 16.6309004,48.0961156 L16.6309004,42.3572532 C16.6309004,42.1437303 16.5853292,41.9475468 16.4941869,41.7682073 C16.4030446,41.5893633 16.2757425,41.4432165 16.1122807,41.329767 C15.9924087,41.2544642 15.8507418,41.1999688 15.6877754,41.1647945 C15.5238182,41.130611 15.3484683,41.1068312 15.1597442,41.0944459 L15.1597442,40.4717119 L18.2536302,40.2641339 L18.384895,40.3964092 L18.384895,41.707767 L18.4324475,41.707767 C18.5835259,41.5566661 18.7722499,41.3758404 18.9986198,41.1647945 C19.2249896,40.9547394 19.4384806,40.7833266 19.6400835,40.6510514 C19.8723974,40.5004459 20.1492917,40.374611 20.4697759,40.2740422 C20.7907555,40.1734734 21.1518574,40.1229413 21.5545679,40.1229413 C22.4476637,40.1229413 23.1099316,40.4008679 23.540381,40.9577119 C23.9713258,41.514556 24.1863028,42.2551982 24.1863028,43.1796385 L24.1863028,48.0188312 C24.1863028,48.2392899 24.2244439,48.4171431 24.2997354,48.5523908 C24.3750269,48.6876385 24.5038149,48.7926661 24.6860996,48.8679688 C24.8371779,48.9308862 24.9679474,48.974978 25.0779126,49.000244 C25.1878778,49.0255101 25.3399468,49.0443358 25.5356056,49.0567211 L25.5356056,49.679455 Z" id="Fill-3" fill="#FFFFFF"></path>
                <path d="M35.8269127,44.9532165 C35.8269127,44.4815835 35.7798555,43.9831982 35.6852458,43.4575651 C35.5906361,42.9329229 35.4489692,42.4875468 35.2597498,42.1229229 C35.0586422,41.733033 34.793636,41.4199321 34.4662171,41.1841156 C34.1387981,40.9482991 33.7385644,40.8303908 33.2660112,40.8303908 C32.7810745,40.8303908 32.3669713,40.9497853 32.0232062,41.1885743 C31.6804318,41.4278587 31.4010607,41.7548312 31.1875697,42.1699872 C30.9859668,42.5534367 30.8438046,42.9908862 30.7615783,43.481345 C30.6798474,43.9722991 30.6392297,44.4469046 30.6392297,44.9056569 C30.6392297,45.5095651 30.6877729,46.0678954 30.7853546,46.5801523 C30.8834317,47.0929046 31.038968,47.5506661 31.2534497,47.9534367 C31.4674361,48.3557119 31.7369004,48.6717853 32.0613473,48.9011615 C32.3857942,49.131033 32.7875139,49.2454734 33.2660112,49.2454734 C34.0535999,49.2454734 34.6777267,48.8649963 35.1369058,48.1040422 C35.5970755,47.3430881 35.8269127,46.2928128 35.8269127,44.9532165 M37.7795381,44.9343908 C37.7795381,45.5883358 37.675517,46.2313817 37.4679701,46.863033 C37.2604231,47.4956752 36.9647059,48.0317119 36.580323,48.4721339 C36.1464062,48.974978 35.6426467,49.3495101 35.070035,49.5947394 C34.4964327,49.8399688 33.854969,49.9623358 33.1431672,49.9623358 C32.5517327,49.9623358 31.9880371,49.8508679 31.4530713,49.6279321 C30.9181054,49.4045009 30.4430755,49.0790147 30.0274863,48.6514734 C29.6183364,48.2298771 29.2924035,47.7156385 29.0496875,47.1087578 C28.8074669,46.5018771 28.6866042,45.8211798 28.6866042,45.0666661 C28.6866042,43.6136202 29.1096235,42.4246294 29.9561575,41.500189 C30.8031868,40.5757486 31.9127457,40.113033 33.2848341,40.113033 C34.5880704,40.113033 35.6629555,40.5519688 36.5099849,41.429345 C37.3565188,42.3067211 37.7795381,43.4754 37.7795381,44.9343908" id="Fill-5" fill="#FFFFFF"></path>
                <path d="M55.0043497,40.9811945 C54.7403342,41.0064606 54.4555144,41.1164422 54.1503857,41.3116349 C53.845257,41.5068275 53.6238406,41.7986257 53.4856411,42.189011 C53.1711009,43.1134514 52.8738977,43.9893413 52.5940313,44.8161853 C52.3141648,45.6435248 52.0016061,46.5724239 51.6553643,47.6038734 C51.542427,47.9308459 51.4275084,48.2830844 51.3111038,48.660589 C51.1951945,49.0380936 51.0896874,49.399745 50.9950777,49.7455431 L50.1906475,49.7455431 L47.6817566,42.8895248 L45.1679123,49.7455431 L44.3922118,49.7455431 C43.9206492,48.3494697 43.4599842,46.9642954 43.0102166,45.5900202 C42.5609443,44.215745 42.1626919,43.0188275 41.8169455,42.0002587 C41.7163917,41.7044972 41.5246956,41.4716532 41.2418571,41.3017266 C40.9590187,41.1322954 40.6850963,41.0317266 40.4210808,41.0000202 L40.4210808,40.3772862 L44.569543,40.3772862 L44.569543,41.0376716 C44.3619961,41.0441119 44.1371123,41.0787908 43.8948916,41.1417083 C43.652671,41.2046257 43.5318083,41.308167 43.5318083,41.4528275 C43.5318083,41.4780936 43.5427058,41.5315982 43.5645007,41.6133413 C43.5867909,41.6950844 43.6135392,41.7832679 43.6447455,41.8778917 C43.8463484,42.5367908 44.0742043,43.2729743 44.3283131,44.0859468 C44.5829172,44.8984239 44.9113268,45.954644 45.3140372,47.2541119 L47.6857193,40.5660385 L48.599124,40.5660385 L51.0228166,47.1609743 C51.2932716,46.3192679 51.5622406,45.5048092 51.8302189,44.7171028 C52.0977018,43.9293963 52.331997,43.1902404 52.5335999,42.4996349 C52.5776851,42.336644 52.6202842,42.1875248 52.6613973,42.0517817 C52.7020151,41.9170294 52.722324,41.7832679 52.722324,41.6514881 C52.722324,41.5380385 52.6717994,41.4374697 52.5712457,41.3492862 C52.4706919,41.2611028 52.3483432,41.1887725 52.2037043,41.1322954 C52.0778882,41.0817633 51.9406794,41.0441119 51.7935638,41.0188459 C51.6454575,40.9935798 51.5369783,40.9811945 51.4676309,40.9811945 L51.4676309,40.3772862 L55.0043497,40.3772862 L55.0043497,40.9811945 Z" id="Fill-7" fill="#FFFFFF"></path>
                <path d="M61.7770673,49.679455 L57.2402595,49.679455 L57.2402595,49.0567211 C57.384403,49.0443358 57.5384534,49.0299688 57.7019152,49.0141156 C57.8658723,48.9987578 58.0006045,48.974978 58.108093,48.943767 C58.2834429,48.8867945 58.4156984,48.7877119 58.5038687,48.6460239 C58.5915436,48.5048312 58.6361241,48.3205376 58.6361241,48.0941339 L58.6361241,37.3124642 C58.6361241,37.0860606 58.5875809,36.8735284 58.4895039,36.6753633 C58.3924175,36.4771982 58.26462,36.3211431 58.108093,36.208189 C57.9946604,36.1323908 57.7866181,36.0635284 57.4849568,36.000611 C57.1832955,35.9371982 56.9410748,35.8995468 56.7587902,35.8866661 L56.7587902,35.2827578 L60.258854,35.0751798 L60.3901187,35.2173633 L60.3901187,47.9811798 C60.3901187,48.2016385 60.4312319,48.3824642 60.5129628,48.5236569 C60.5946937,48.665345 60.7269491,48.7738404 60.9092338,48.8491431 C61.0474333,48.9120606 61.1846421,48.9596202 61.3193743,48.9908312 C61.4550971,49.0225376 61.6071661,49.0443358 61.7770673,49.0567211 L61.7770673,49.679455 Z" id="Fill-9" fill="#FFFFFF"></path>
                <path d="M71.1531865,43.9435156 C71.1531865,43.5922679 71.1234661,43.2162495 71.0635301,42.8154606 C71.0040895,42.4136807 70.9084891,42.0782862 70.7757383,41.8082862 C70.6310994,41.519956 70.4334592,41.2851303 70.1818271,41.1033138 C69.930195,40.9210018 69.6062435,40.8303413 69.2104678,40.8303413 C68.5496858,40.8303413 68.0013458,41.1048 67.564457,41.653222 C67.1270729,42.201644 66.8898056,42.9650752 66.8516645,43.9435156 L71.1531865,43.9435156 Z M73.2380674,47.4906716 C72.8482358,48.2328 72.3261487,48.8243229 71.6723015,49.2642495 C71.0184543,49.7046716 70.2670254,49.9246349 69.4175194,49.9246349 C68.6690625,49.9246349 68.0137293,49.792855 67.4510244,49.5283046 C66.8883196,49.2642495 66.4241871,48.9060661 66.0596178,48.4532587 C65.6945531,47.999956 65.4231075,47.4718459 65.2437948,46.8679376 C65.0644822,46.2645248 64.9748259,45.6259376 64.9748259,44.953167 C64.9748259,44.3492587 65.0709216,43.756745 65.2626177,43.1746349 C65.4543138,42.5930202 65.7356662,42.0693688 66.106675,41.6036807 C66.4653003,41.1573138 66.9106098,40.7971486 67.441613,40.5236807 C67.9731115,40.2502128 68.5690041,40.1134789 69.2287953,40.1134789 C69.9079048,40.1134789 70.4899278,40.2199927 70.9743692,40.434011 C71.4583151,40.6480294 71.8516141,40.9403229 72.1537708,41.3118826 C72.4425533,41.6636257 72.6580257,42.0787817 72.7991972,42.556855 C72.9408641,43.0349284 73.0116976,43.5536257 73.0116976,44.1134422 L73.0116976,44.7361761 L66.8516645,44.7361761 C66.8516645,45.3475156 66.9106098,45.902378 67.0265191,46.4002679 C67.1429237,46.8981578 67.3266944,47.3365982 67.5783265,47.7145982 C67.8235192,48.0802128 68.1444987,48.3690385 68.5407697,48.579589 C68.9365454,48.7911303 69.4086033,48.8966532 69.9554573,48.8966532 C70.5151901,48.8966532 70.9981454,48.7653688 71.4033325,48.5028 C71.809015,48.2407266 72.2003326,47.7681028 72.5777808,47.0854239 L73.2380674,47.4906716 Z" id="Fill-11" fill="#FFFFFF"></path>
                <path d="M83.1148254,47.8777872 L83.1148254,42.4341908 C83.0643009,42.2707046 82.98257,42.0943376 82.870128,41.9055853 C82.7571908,41.716833 82.6160193,41.5444294 82.4461181,41.3868881 C82.2643287,41.2298422 82.051333,41.0990532 81.8061404,40.9950165 C81.561443,40.8914752 81.2756325,40.8399523 80.9496996,40.8399523 C80.5727468,40.8399523 80.2260097,40.9370532 79.9089928,41.1322459 C79.5924714,41.3269431 79.3111189,41.6073468 79.0664216,41.9719706 C78.8341077,42.3242092 78.6508323,42.7720624 78.5161002,43.3160257 C78.3808727,43.8604844 78.314002,44.462411 78.314002,45.1227963 C78.314002,45.6514018 78.3635358,46.1309615 78.4640896,46.5614752 C78.5641481,46.9924844 78.7340493,47.3932734 78.9728025,47.7643376 C79.1922376,48.1165761 79.4725994,48.3999523 79.8153738,48.6134752 C80.1571576,48.8274936 80.5638307,48.9345028 81.0344025,48.9345028 C81.5361807,48.9345028 81.95177,48.8240257 82.2816656,48.6040624 C82.6110659,48.3836037 82.8889509,48.1418422 83.1148254,47.8777872 L83.1148254,47.8777872 Z M86.5296909,49.5096771 L83.2753152,49.717255 L83.1336483,49.5849798 L83.1336483,48.7170165 L83.0583568,48.6981908 C82.7319285,49.0633101 82.3282274,49.362044 81.8477488,49.5948881 C81.3677655,49.8277321 80.8729221,49.9436587 80.3642092,49.9436587 C79.8366734,49.9436587 79.3269698,49.8257505 78.833117,49.5899339 C78.3402549,49.353622 77.9117869,49.0226862 77.5482082,48.5946495 C77.1776948,48.1606679 76.8839589,47.6389982 76.6670005,47.0286495 C76.4505375,46.4187963 76.3420583,45.7455303 76.3420583,45.0098422 C76.3420583,44.3370716 76.4584629,43.697989 76.6902815,43.0945761 C76.9225953,42.4906679 77.2430795,41.9625578 77.651734,41.5097505 C78.0341356,41.0881541 78.5037167,40.7517688 79.0594868,40.5000991 C79.6152569,40.2489248 80.1819245,40.1230899 80.7599849,40.1230899 C81.1929109,40.1230899 81.618407,40.1780807 82.0359775,40.2880624 C82.4535481,40.398044 82.8136594,40.5382459 83.1148254,40.7076771 L83.1148254,37.4652 C83.1148254,37.2006495 83.0707403,36.9598789 82.98257,36.7423927 C82.894895,36.5249064 82.772051,36.3594385 82.6150286,36.245989 C82.438688,36.1260991 82.2014207,36.0398972 81.9027314,35.9863927 C81.6040421,35.9328881 81.2815766,35.893255 80.9358301,35.867989 L80.9358301,35.2829064 L84.7464713,35.0753284 L84.8881382,35.2165211 L84.8881382,47.7559156 C84.8881382,47.9758789 84.9307374,48.1626495 85.0154403,48.3167229 C85.1006386,48.4707963 85.2244733,48.6010899 85.3879351,48.7080991 C85.5073117,48.7834018 85.6806803,48.8304661 85.9070501,48.8492917 C86.1334199,48.8681174 86.3409669,48.8805028 86.5296909,48.8869431 L86.5296909,49.5096771 Z" id="Fill-13" fill="#FFFFFF"></path>
                <path d="M94.8868982,43.1984642 C94.8868982,42.4627761 94.7378012,41.8762073 94.4391119,41.4387578 C94.1404227,41.0018037 93.7208707,40.7833266 93.1799608,40.7833266 C92.8842435,40.7833266 92.6311254,40.8442624 92.4206064,40.9671248 C92.2100874,41.0894917 92.0387002,41.2643725 91.9059494,41.4907761 C91.7806287,41.6983541 91.6909724,41.9485376 91.6374758,42.2403358 C91.5839792,42.5331248 91.5572309,42.8338404 91.5572309,43.1419872 C91.5572309,43.8400239 91.7097953,44.4087578 92.014924,44.8491798 C92.3195573,45.2896018 92.7143423,45.5095651 93.1987836,45.5095651 C93.7396936,45.5095651 94.1557782,45.2915835 94.4485234,44.8541339 C94.7407733,44.4171798 94.8868982,43.8652899 94.8868982,43.1984642 M96.6978568,51.0002257 C96.6978568,50.6479872 96.6161259,50.3586661 96.4531594,50.1322624 C96.2892023,49.9058587 96.0410376,49.7522807 95.7076746,49.6700422 C95.5318293,49.6452716 95.170232,49.6165376 94.6228826,49.5853266 C94.0760286,49.5536202 93.440509,49.5382624 92.7178097,49.5382624 C92.0387002,49.6700422 91.5557449,49.8919872 91.2694391,50.2031064 C90.9836286,50.5147211 90.8404757,50.9155101 90.8404757,51.4059688 C90.8404757,51.6264275 90.8875329,51.836978 90.9821426,52.0381156 C91.076257,52.2392532 91.2397188,52.425033 91.472528,52.5949596 C91.6924584,52.7584459 91.9876803,52.8917119 92.3586891,52.9952532 C92.7301932,53.0992899 93.1829328,53.1513083 93.7174034,53.1513083 C94.6422008,53.1513083 95.3698535,52.973455 95.901352,52.618244 C96.4323552,52.263033 96.6978568,51.7235284 96.6978568,51.0002257 M97.4344255,48.7173633 C97.685067,48.9561523 97.8836978,49.2266477 98.0283367,49.5283541 C98.1729757,49.830556 98.2447998,50.2050881 98.2447998,50.651455 C98.2447998,51.097822 98.1477134,51.5174367 97.9525499,51.9107945 C97.7578818,52.3036569 97.4621645,52.6449963 97.0658935,52.9343174 C96.6448555,53.2300789 96.1415913,53.459455 95.5570916,53.6229413 C94.9720965,53.7864275 94.2489019,53.8681706 93.3875077,53.8681706 C91.9787642,53.8681706 90.9251787,53.6620789 90.2277417,53.2503908 C89.529314,52.8382073 89.1801001,52.2362807 89.1801001,51.4441156 C89.1801001,50.802556 89.4317322,50.2957486 89.9349964,49.9246844 C90.4382606,49.5536202 91.079229,49.3524826 91.8593876,49.3207761 L91.8593876,49.1889963 C91.6706635,49.1325193 91.4755,49.0616752 91.2743925,48.9764642 C91.073285,48.8917486 90.8999164,48.7926661 90.7557728,48.6792165 C90.5918157,48.5474367 90.4595602,48.3913817 90.3590064,48.2125376 C90.2584527,48.0331982 90.2084234,47.8117486 90.2084234,47.5471982 C90.2084234,47.2137853 90.3263141,46.9076202 90.5625907,46.6277119 C90.7978766,46.3478037 91.1550159,46.107033 91.6330178,45.9058954 L91.6330178,45.7647028 C91.0291998,45.4813266 90.5606093,45.118189 90.2277417,44.6742991 C89.8938833,44.2314 89.7274495,43.7171615 89.7274495,43.1320789 C89.7274495,42.2517303 90.0558591,41.5284275 90.7131737,40.9621706 C91.3699929,40.3964092 92.2115735,40.113033 93.2364294,40.113033 C93.5192678,40.113033 93.8011156,40.141767 94.0804867,40.198244 C94.3608484,40.2552165 94.6451729,40.3270514 94.9344507,40.4152349 L98.1789197,40.4152349 L98.1789197,41.3208495 L95.9910083,41.3208495 L95.9910083,41.3773266 C96.2233222,41.647822 96.3961955,41.9470514 96.5091327,42.2740239 C96.6225653,42.6009963 96.6795292,42.9215284 96.6795292,43.2361156 C96.6795292,44.0540422 96.3476523,44.7456385 95.6838983,45.3118954 C95.021135,45.8776569 94.2489019,46.1605376 93.3686849,46.1605376 L92.2274243,46.1605376 C92.08229,46.2110697 91.9312117,46.3022257 91.7746847,46.4340055 C91.6166716,46.5662807 91.5384081,46.7456202 91.5384081,46.9720239 C91.5384081,47.2048679 91.6042881,47.3822257 91.7370389,47.5045927 C91.8683037,47.627455 92.0287935,47.7106844 92.2175175,47.7547761 C92.3998022,47.8053083 92.6123025,47.8365193 92.8540279,47.8494 C93.0967439,47.8617853 93.3463946,47.8716936 93.6039708,47.8776385 C93.8808651,47.8840789 94.2597993,47.9029046 94.7407733,47.934611 C95.2222426,47.965822 95.5630356,47.9846477 95.7641432,47.9910881 C96.053421,48.0034734 96.3441849,48.0728312 96.6369301,48.1986661 C96.92918,48.3245009 97.1946816,48.4969046 97.4344255,48.7173633" id="Fill-15" fill="#FFFFFF"></path>
                <path d="M107.507883,43.9435156 C107.507883,43.5922679 107.478162,43.2162495 107.418226,42.8154606 C107.358786,42.4136807 107.263185,42.0782862 107.130434,41.8082862 C106.985796,41.519956 106.788155,41.2851303 106.536523,41.1033138 C106.284891,40.9210018 105.96094,40.8303413 105.565164,40.8303413 C104.904382,40.8303413 104.356042,41.1048 103.919153,41.653222 C103.481769,42.201644 103.244502,42.9650752 103.206361,43.9435156 L107.507883,43.9435156 Z M109.592764,47.4906716 C109.202932,48.2328 108.680845,48.8243229 108.026998,49.2642495 C107.37315,49.7046716 106.621722,49.9246349 105.772216,49.9246349 C105.023759,49.9246349 104.368425,49.792855 103.805721,49.5283046 C103.243016,49.2642495 102.778883,48.9060661 102.414314,48.4532587 C102.049249,47.999956 101.777804,47.4718459 101.598491,46.8679376 C101.419178,46.2645248 101.329522,45.6259376 101.329522,44.953167 C101.329522,44.3492587 101.425618,43.756745 101.617314,43.1746349 C101.80901,42.5930202 102.090362,42.0693688 102.461371,41.6036807 C102.819996,41.1573138 103.265306,40.7971486 103.796309,40.5236807 C104.327808,40.2502128 104.9237,40.1134789 105.583491,40.1134789 C106.262601,40.1134789 106.844624,40.2199927 107.329065,40.434011 C107.813011,40.6480294 108.20631,40.9403229 108.508467,41.3118826 C108.797249,41.6636257 109.012722,42.0787817 109.153893,42.556855 C109.29556,43.0349284 109.366394,43.5536257 109.366394,44.1134422 L109.366394,44.7361761 L103.206361,44.7361761 C103.206361,45.3475156 103.265306,45.902378 103.381215,46.4002679 C103.49762,46.8981578 103.681391,47.3365982 103.933023,47.7145982 C104.178215,48.0802128 104.499195,48.3690385 104.895466,48.579589 C105.291242,48.7911303 105.763299,48.8966532 106.310153,48.8966532 C106.869886,48.8966532 107.352842,48.7653688 107.758029,48.5028 C108.163711,48.2407266 108.555029,47.7681028 108.932477,47.0854239 L109.592764,47.4906716 Z" id="Fill-17" fill="#FFFFFF"></path>
                <path d="M135.741202,49.679455 L129.826857,49.679455 L129.826857,49.0096569 C130.040348,49.0037119 130.315757,48.9814183 130.652587,48.943767 C130.988427,48.9056202 131.21975,48.852611 131.345566,48.7832532 C131.540729,48.6638587 131.683882,48.5271248 131.774529,48.372556 C131.866167,48.218978 131.911738,48.0252716 131.911738,47.7924275 L131.911738,38.0565743 L131.770071,38.0565743 L127.205029,49.4629596 L126.732476,49.4629596 L122.384392,37.8207578 L122.262043,37.8207578 L122.262043,45.8112716 C122.262043,46.5851064 122.310587,47.1731615 122.408168,47.5759321 C122.505255,47.9782073 122.654847,48.2675284 122.855955,48.4438954 C122.99465,48.5756752 123.280955,48.7015101 123.714377,48.8214 C124.148789,48.9407945 124.431132,49.0037119 124.563883,49.0096569 L124.563883,49.679455 L119.158251,49.679455 L119.158251,49.0096569 C119.441584,48.9848862 119.738292,48.9373266 120.04986,48.8679688 C120.360933,48.7991064 120.602163,48.6955651 120.771074,48.5568495 C120.991499,48.380978 121.142082,48.1104826 121.223813,47.7458587 C121.305544,47.3807394 121.346657,46.7708862 121.346657,45.9153083 L121.346657,39.0662257 C121.346657,38.6698954 121.2996,38.3458954 121.205486,38.0942257 C121.110876,37.842556 120.975649,37.6384459 120.799803,37.4814 C120.60464,37.3114734 120.365887,37.1856385 120.083048,37.1038954 C119.799714,37.0221523 119.519848,36.9745927 119.243449,36.9622073 L119.243449,36.2929046 L123.807005,36.2929046 L127.640927,46.3408679 L130.914621,37.9351982 C131.033998,37.626556 131.135542,37.3045376 131.220741,36.9676569 C131.305444,36.6307761 131.35151,36.4058587 131.357454,36.2929046 L135.722379,36.2929046 L135.722379,36.9622073 C135.546039,36.9686477 135.321155,36.9968862 135.048223,37.0474183 C134.774301,37.0979505 134.574679,37.1445193 134.449359,37.188611 C134.234877,37.2639138 134.090238,37.3897486 134.014947,37.5661156 C133.93916,37.7419872 133.901514,37.9342073 133.901514,38.1417853 L133.901514,47.7924275 C133.901514,48.0128862 133.93916,48.1986661 134.014947,48.3492716 C134.090238,48.5003725 134.234877,48.6326477 134.449359,48.7456018 C134.562296,48.8085193 134.762908,48.8664826 135.052681,48.9199872 C135.341464,48.9734917 135.571301,49.0037119 135.741202,49.0096569 L135.741202,49.679455 Z" id="Fill-19" fill="#FFFFFF"></path>
                <path d="M144.844043,44.5284495 C144.309077,44.6859908 143.840982,44.8405596 143.438272,44.992156 C143.036056,45.1427615 142.66158,45.3320092 142.315834,45.5589083 C142.001294,45.773422 141.753129,46.0270734 141.570844,46.3203578 C141.388064,46.6131468 141.297417,46.961422 141.297417,47.3651835 C141.297417,47.887844 141.433636,48.2727798 141.707558,48.5185046 C141.980985,48.7642294 142.328217,48.8870917 142.749255,48.8870917 C143.196051,48.8870917 143.58935,48.7785963 143.928657,48.5611101 C144.268459,48.3436239 144.55427,48.087 144.787079,47.7902477 L144.844043,44.5284495 Z M148.136065,49.5098257 C147.840347,49.6168349 147.58079,49.7030367 147.357392,49.7689266 C147.13449,49.8353119 146.881371,49.8680092 146.598038,49.8680092 C146.107652,49.8680092 145.716335,49.7535688 145.424085,49.5236972 C145.131339,49.2943211 144.944101,48.959422 144.862371,48.5194954 L144.806397,48.5194954 C144.397247,48.9723028 143.958873,49.3181009 143.490282,49.5568899 C143.021692,49.7961743 142.457501,49.9155688 141.797214,49.9155688 C141.098787,49.9155688 140.525184,49.7015505 140.075417,49.2740092 C139.626144,48.8464679 139.401261,48.2866514 139.401261,47.5945596 C139.401261,47.2363761 139.45129,46.9153486 139.551843,46.6324679 C139.652893,46.3495872 139.803476,46.0944495 140.004583,45.8680459 C140.162101,45.6792936 140.369648,45.5113486 140.627224,45.3637156 C140.885295,45.2160826 141.127021,45.0976789 141.353391,45.0099908 C141.636724,44.9029817 142.210822,44.7043211 143.075188,44.415 C143.94005,44.1261743 144.523063,43.8992752 144.824725,43.735789 L144.824725,42.8024312 C144.824725,42.7206881 144.807883,42.5631468 144.772714,42.3303028 C144.738536,42.0979541 144.66473,41.8774954 144.551298,41.6699174 C144.425482,41.4375688 144.24815,41.234945 144.018313,41.0615505 C143.788971,40.8886514 143.463534,40.8024495 143.042001,40.8024495 C142.752723,40.8024495 142.483754,40.851 142.235589,40.9481009 C141.986929,41.0461927 141.81257,41.1482477 141.712511,41.2552569 C141.712511,41.3805963 141.741736,41.5663761 141.801672,41.8116055 C141.861608,42.0568349 141.891329,42.2832385 141.891329,42.4908165 C141.891329,42.7107798 141.792261,42.9119174 141.594125,43.0942294 C141.39599,43.2770367 141.120581,43.3681927 140.768891,43.3681927 C140.454351,43.3681927 140.223523,43.2567248 140.075417,43.0327982 C139.927806,42.8098624 139.854,42.5596789 139.854,42.2832385 C139.854,41.9939174 139.95604,41.7169817 140.160615,41.4529266 C140.364694,41.1888716 140.630196,40.953055 140.957615,40.7454771 C141.240453,40.5696055 141.583228,40.4199908 141.985443,40.2971284 C142.388153,40.1747615 142.780957,40.1133303 143.164349,40.1133303 C143.692876,40.1133303 144.153541,40.1494954 144.546344,40.2218257 C144.939643,40.294156 145.296783,40.450211 145.617267,40.689 C145.938246,40.921844 146.181458,41.237422 146.348387,41.6367248 C146.514821,42.0365229 146.598038,42.5507615 146.598038,43.1794404 C146.598038,44.0791101 146.588626,44.8762294 146.569803,45.5707982 C146.55098,46.2663578 146.542064,47.0253303 146.542064,47.8492018 C146.542064,48.0944312 146.584168,48.2896239 146.669366,48.4342844 C146.753574,48.578945 146.884343,48.7018073 147.060684,48.8023761 C147.154798,48.8588532 147.304391,48.8905596 147.50847,48.8965046 C147.713045,48.902945 147.922078,48.9059174 148.136065,48.9059174 L148.136065,49.5098257 Z" id="Fill-21" fill="#FFFFFF"></path>
                <path d="M161.360966,49.679455 L156.813756,49.679455 L156.813756,49.0567211 C156.958395,49.0443358 157.117894,49.031455 157.290272,49.0190697 C157.46364,49.0066844 157.606298,48.9814183 157.719235,48.943767 C157.895576,48.8867945 158.026345,48.7877119 158.111048,48.6465193 C158.195751,48.5048312 158.23835,48.321033 158.23835,48.0946294 L158.23835,43.3114183 C158.23835,42.651033 158.082319,42.1417486 157.770255,41.7835651 C157.458192,41.4248862 157.078267,41.2455468 156.630976,41.2455468 C156.296622,41.2455468 155.990998,41.2970697 155.714104,41.4011064 C155.436714,41.5046477 155.191026,41.6324642 154.976544,41.7835651 C154.768007,41.9282257 154.603059,42.0837853 154.47972,42.250244 C154.356876,42.4171982 154.267715,42.5504642 154.210255,42.651033 L154.210255,48.0000055 C154.210255,48.2140239 154.254341,48.3898954 154.343006,48.528611 C154.430681,48.6668312 154.562441,48.7738404 154.738782,48.8491431 C154.871037,48.9120606 155.01419,48.9596202 155.168241,48.9908312 C155.322291,49.0225376 155.480799,49.0443358 155.644261,49.0567211 L155.644261,49.679455 L151.08863,49.679455 L151.08863,49.0567211 C151.233269,49.0443358 151.382366,49.031455 151.536417,49.0190697 C151.690962,49.0066844 151.824208,48.9819138 151.937641,48.9442624 C152.113486,48.8872899 152.244256,48.7882073 152.328959,48.6470147 C152.414157,48.505822 152.456261,48.3220239 152.456261,48.0961156 L152.456261,42.3572532 C152.456261,42.1437303 152.41069,41.9475468 152.319547,41.7682073 C152.228405,41.5893633 152.101103,41.4432165 151.937641,41.329767 C151.817769,41.2544642 151.676102,41.1999688 151.513136,41.1647945 C151.349179,41.130611 151.173829,41.1068312 150.985105,41.0944459 L150.985105,40.4717119 L154.078991,40.2641339 L154.210255,40.3964092 L154.210255,41.707767 L154.257808,41.707767 C154.408886,41.5566661 154.59761,41.3758404 154.82398,41.1647945 C155.05035,40.9547394 155.263841,40.7833266 155.465444,40.6510514 C155.697758,40.5004459 155.974652,40.374611 156.295136,40.2740422 C156.616116,40.1734734 156.977218,40.1229413 157.379928,40.1229413 C158.273024,40.1229413 158.935292,40.4008679 159.365741,40.9577119 C159.796686,41.514556 160.011663,42.2551982 160.011663,43.1796385 L160.011663,48.0188312 C160.011663,48.2392899 160.049804,48.4171431 160.125096,48.5523908 C160.200387,48.6876385 160.329175,48.7926661 160.51146,48.8679688 C160.662538,48.9308862 160.793308,48.974978 160.903273,49.000244 C161.013238,49.0255101 161.165307,49.0443358 161.360966,49.0567211 L161.360966,49.679455 Z" id="Fill-23" fill="#FFFFFF"></path>
                <path d="M170.049208,44.5284495 C169.514242,44.6859908 169.046147,44.8405596 168.643437,44.992156 C168.241222,45.1427615 167.866745,45.3320092 167.520999,45.5589083 C167.206459,45.773422 166.958294,46.0270734 166.776009,46.3203578 C166.593229,46.6131468 166.502582,46.961422 166.502582,47.3651835 C166.502582,47.887844 166.638801,48.2727798 166.912723,48.5185046 C167.18615,48.7642294 167.533382,48.8870917 167.95442,48.8870917 C168.401216,48.8870917 168.794515,48.7785963 169.133822,48.5611101 C169.473624,48.3436239 169.759435,48.087 169.992244,47.7902477 L170.049208,44.5284495 Z M173.34123,49.5098257 C173.045512,49.6168349 172.785955,49.7030367 172.562557,49.7689266 C172.339655,49.8353119 172.086537,49.8680092 171.803203,49.8680092 C171.312817,49.8680092 170.9215,49.7535688 170.62925,49.5236972 C170.336505,49.2943211 170.149267,48.959422 170.067536,48.5194954 L170.011562,48.5194954 C169.602413,48.9723028 169.164038,49.3181009 168.695447,49.5568899 C168.226857,49.7961743 167.662666,49.9155688 167.002379,49.9155688 C166.303952,49.9155688 165.730349,49.7015505 165.280582,49.2740092 C164.831309,48.8464679 164.606426,48.2866514 164.606426,47.5945596 C164.606426,47.2363761 164.656455,46.9153486 164.757009,46.6324679 C164.858058,46.3495872 165.008641,46.0944495 165.209748,45.8680459 C165.367266,45.6792936 165.574813,45.5113486 165.832389,45.3637156 C166.090461,45.2160826 166.332186,45.0976789 166.558556,45.0099908 C166.84189,44.9029817 167.415987,44.7043211 168.280353,44.415 C169.145215,44.1261743 169.728229,43.8992752 170.02989,43.735789 L170.02989,42.8024312 C170.02989,42.7206881 170.013048,42.5631468 169.977879,42.3303028 C169.943701,42.0979541 169.869895,41.8774954 169.756463,41.6699174 C169.630647,41.4375688 169.453316,41.234945 169.223478,41.0615505 C168.994137,40.8886514 168.668699,40.8024495 168.247166,40.8024495 C167.957888,40.8024495 167.688919,40.851 167.440754,40.9481009 C167.192094,41.0461927 167.017735,41.1482477 166.917676,41.2552569 C166.917676,41.3805963 166.946901,41.5663761 167.006837,41.8116055 C167.066773,42.0568349 167.096494,42.2832385 167.096494,42.4908165 C167.096494,42.7107798 166.997426,42.9119174 166.79929,43.0942294 C166.601155,43.2770367 166.325747,43.3681927 165.974056,43.3681927 C165.659516,43.3681927 165.428688,43.2567248 165.280582,43.0327982 C165.132971,42.8098624 165.059165,42.5596789 165.059165,42.2832385 C165.059165,41.9939174 165.161205,41.7169817 165.36578,41.4529266 C165.56986,41.1888716 165.835361,40.953055 166.16278,40.7454771 C166.445619,40.5696055 166.788393,40.4199908 167.190608,40.2971284 C167.593318,40.1747615 167.986122,40.1133303 168.369514,40.1133303 C168.898041,40.1133303 169.358706,40.1494954 169.75151,40.2218257 C170.144809,40.294156 170.501948,40.450211 170.822432,40.689 C171.143411,40.921844 171.386623,41.237422 171.553552,41.6367248 C171.719986,42.0365229 171.803203,42.5507615 171.803203,43.1794404 C171.803203,44.0791101 171.793791,44.8762294 171.774968,45.5707982 C171.756146,46.2663578 171.747229,47.0253303 171.747229,47.8492018 C171.747229,48.0944312 171.789333,48.2896239 171.874532,48.4342844 C171.958739,48.578945 172.089509,48.7018073 172.265849,48.8023761 C172.359964,48.8588532 172.509556,48.8905596 172.713635,48.8965046 C172.91821,48.902945 173.127243,48.9059174 173.34123,48.9059174 L173.34123,49.5098257 Z" id="Fill-25" fill="#FFFFFF"></path>
                <path d="M181.71726,43.1984642 C181.71726,42.4627761 181.568163,41.8762073 181.269474,41.4387578 C180.970784,41.0018037 180.551232,40.7833266 180.010322,40.7833266 C179.714605,40.7833266 179.461487,40.8442624 179.250968,40.9671248 C179.040449,41.0894917 178.869062,41.2643725 178.736311,41.4907761 C178.61099,41.6983541 178.521334,41.9485376 178.467837,42.2403358 C178.414341,42.5331248 178.387593,42.8338404 178.387593,43.1419872 C178.387593,43.8400239 178.540157,44.4087578 178.845286,44.8491798 C179.149919,45.2896018 179.544704,45.5095651 180.029145,45.5095651 C180.570055,45.5095651 180.98614,45.2915835 181.278885,44.8541339 C181.571135,44.4171798 181.71726,43.8652899 181.71726,43.1984642 M183.528218,51.0002257 C183.528218,50.6479872 183.446487,50.3586661 183.283521,50.1322624 C183.119564,49.9058587 182.871399,49.7522807 182.538036,49.6700422 C182.362191,49.6452716 182.000594,49.6165376 181.453244,49.5853266 C180.90639,49.5536202 180.270871,49.5382624 179.548171,49.5382624 C178.869062,49.6700422 178.386107,49.8919872 178.099801,50.2031064 C177.81399,50.5147211 177.670837,50.9155101 177.670837,51.4059688 C177.670837,51.6264275 177.717894,51.836978 177.812504,52.0381156 C177.906619,52.2392532 178.07008,52.425033 178.30289,52.5949596 C178.52282,52.7584459 178.818042,52.8917119 179.189051,52.9952532 C179.560555,53.0992899 180.013294,53.1513083 180.547765,53.1513083 C181.472562,53.1513083 182.200215,52.973455 182.731714,52.618244 C183.262717,52.263033 183.528218,51.7235284 183.528218,51.0002257 M184.264787,48.7173633 C184.515429,48.9561523 184.714059,49.2266477 184.858698,49.5283541 C185.003337,49.830556 185.075161,50.2050881 185.075161,50.651455 C185.075161,51.097822 184.978075,51.5174367 184.782911,51.9107945 C184.588243,52.3036569 184.292526,52.6449963 183.896255,52.9343174 C183.475217,53.2300789 182.971953,53.459455 182.387453,53.6229413 C181.802458,53.7864275 181.079263,53.8681706 180.217869,53.8681706 C178.809126,53.8681706 177.75554,53.6620789 177.058103,53.2503908 C176.359676,52.8382073 176.010462,52.2362807 176.010462,51.4441156 C176.010462,50.802556 176.262094,50.2957486 176.765358,49.9246844 C177.268622,49.5536202 177.909591,49.3524826 178.689749,49.3207761 L178.689749,49.1889963 C178.501025,49.1325193 178.305862,49.0616752 178.104754,48.9764642 C177.903647,48.8917486 177.730278,48.7926661 177.586134,48.6792165 C177.422177,48.5474367 177.289922,48.3913817 177.189368,48.2125376 C177.088814,48.0331982 177.038785,47.8117486 177.038785,47.5471982 C177.038785,47.2137853 177.156676,46.9076202 177.392952,46.6277119 C177.628238,46.3478037 177.985377,46.107033 178.463379,45.9058954 L178.463379,45.7647028 C177.859561,45.4813266 177.390971,45.118189 177.058103,44.6742991 C176.724245,44.2314 176.557811,43.7171615 176.557811,43.1320789 C176.557811,42.2517303 176.886221,41.5284275 177.543535,40.9621706 C178.200354,40.3964092 179.041935,40.113033 180.066791,40.113033 C180.349629,40.113033 180.631477,40.141767 180.910848,40.198244 C181.19121,40.2552165 181.475534,40.3270514 181.764812,40.4152349 L185.009281,40.4152349 L185.009281,41.3208495 L182.82137,41.3208495 L182.82137,41.3773266 C183.053684,41.647822 183.226557,41.9470514 183.339494,42.2740239 C183.452927,42.6009963 183.509891,42.9215284 183.509891,43.2361156 C183.509891,44.0540422 183.178014,44.7456385 182.51426,45.3118954 C181.851497,45.8776569 181.079263,46.1605376 180.199046,46.1605376 L179.057786,46.1605376 C178.912652,46.2110697 178.761573,46.3022257 178.605046,46.4340055 C178.447033,46.5662807 178.36877,46.7456202 178.36877,46.9720239 C178.36877,47.2048679 178.43465,47.3822257 178.5674,47.5045927 C178.698665,47.627455 178.859155,47.7106844 179.047879,47.7547761 C179.230164,47.8053083 179.442664,47.8365193 179.684389,47.8494 C179.927105,47.8617853 180.176756,47.8716936 180.434332,47.8776385 C180.711227,47.8840789 181.090161,47.9029046 181.571135,47.934611 C182.052604,47.965822 182.393397,47.9846477 182.594505,47.9910881 C182.883783,48.0034734 183.174546,48.0728312 183.467292,48.1986661 C183.759542,48.3245009 184.025043,48.4969046 184.264787,48.7173633" id="Fill-27" fill="#FFFFFF"></path>
                <path d="M194.33874,43.9435156 C194.33874,43.5922679 194.309019,43.2162495 194.249083,42.8154606 C194.189643,42.4136807 194.094042,42.0782862 193.961291,41.8082862 C193.816652,41.519956 193.619012,41.2851303 193.36738,41.1033138 C193.115748,40.9210018 192.791797,40.8303413 192.396021,40.8303413 C191.735239,40.8303413 191.186899,41.1048 190.75001,41.653222 C190.312626,42.201644 190.075359,42.9650752 190.037218,43.9435156 L194.33874,43.9435156 Z M196.42362,47.4906716 C196.033789,48.2328 195.511702,48.8243229 194.857855,49.2642495 C194.204007,49.7046716 193.452578,49.9246349 192.603072,49.9246349 C191.854616,49.9246349 191.199282,49.792855 190.636577,49.5283046 C190.073873,49.2642495 189.60974,48.9060661 189.245171,48.4532587 C188.880106,47.999956 188.608661,47.4718459 188.429348,46.8679376 C188.250035,46.2645248 188.160379,45.6259376 188.160379,44.953167 C188.160379,44.3492587 188.256475,43.756745 188.448171,43.1746349 C188.639867,42.5930202 188.921219,42.0693688 189.292228,41.6036807 C189.650853,41.1573138 190.096163,40.7971486 190.627166,40.5236807 C191.158665,40.2502128 191.754557,40.1134789 192.414348,40.1134789 C193.093458,40.1134789 193.675481,40.2199927 194.159922,40.434011 C194.643868,40.6480294 195.037167,40.9403229 195.339324,41.3118826 C195.628106,41.6636257 195.843579,42.0787817 195.98475,42.556855 C196.126417,43.0349284 196.197251,43.5536257 196.197251,44.1134422 L196.197251,44.7361761 L190.037218,44.7361761 C190.037218,45.3475156 190.096163,45.902378 190.212072,46.4002679 C190.328477,46.8981578 190.512247,47.3365982 190.76388,47.7145982 C191.009072,48.0802128 191.330052,48.3690385 191.726323,48.579589 C192.122098,48.7911303 192.594156,48.8966532 193.14101,48.8966532 C193.700743,48.8966532 194.183698,48.7653688 194.588886,48.5028 C194.994568,48.2407266 195.385886,47.7681028 195.763334,47.0854239 L196.42362,47.4906716 Z" id="Fill-29" fill="#FFFFFF"></path>
                <path d="M215.439973,49.679455 L210.912082,49.679455 L210.912082,49.0567211 C211.05672,49.0443358 211.203341,49.031455 211.350952,49.0190697 C211.499058,49.0066844 211.629332,48.9814183 211.742269,48.943767 C211.91861,48.8867945 212.048884,48.7877119 212.134082,48.6465193 C212.218785,48.5048312 212.261384,48.321033 212.261384,48.0946294 L212.261384,43.2925927 C212.261384,42.6386477 212.111792,42.1343174 211.813598,41.778611 C211.514414,41.4234 211.141919,41.2455468 210.695619,41.2455468 C210.387518,41.2455468 210.09824,41.292611 209.827785,41.3872349 C209.55733,41.4813633 209.309165,41.6136385 209.082795,41.7835651 C208.900015,41.9217853 208.747451,42.0709046 208.625102,42.2314183 C208.502258,42.3914367 208.40963,42.5256936 208.346722,42.6322073 L208.346722,48.0000055 C208.346722,48.2204642 208.384368,48.4012899 208.459659,48.5424826 C208.535446,48.6841706 208.664234,48.7926661 208.846519,48.8679688 C208.991158,48.9249413 209.121927,48.9675468 209.237836,48.9952899 C209.354736,49.0240239 209.506805,49.0443358 209.69553,49.0567211 L209.69553,49.679455 L205.262247,49.679455 L205.262247,49.0567211 C205.406886,49.0443358 205.546572,49.031455 205.682295,49.0190697 C205.817027,49.0066844 205.941357,48.9814183 206.05479,48.943767 C206.230635,48.8867945 206.361404,48.7877119 206.446107,48.6465193 C206.531305,48.5048312 206.573409,48.321033 206.573409,48.0946294 L206.573409,43.2925927 C206.573409,42.6386477 206.423817,42.1343174 206.124137,41.778611 C205.824952,41.4234 205.451467,41.2455468 205.004176,41.2455468 C204.695085,41.2455468 204.405311,41.2940972 204.133866,41.3916936 C203.862915,41.4892899 203.61376,41.622556 203.386895,41.7924826 C203.204115,41.9307028 203.049569,42.0867578 202.923753,42.2591615 C202.797937,42.432556 202.702832,42.563345 202.639924,42.651033 L202.639924,47.9811798 C202.639924,48.1951982 202.684009,48.3745376 202.772179,48.5191982 C202.86035,48.6638587 202.99211,48.7738404 203.16845,48.8491431 C203.300211,48.9120606 203.435438,48.9596202 203.574133,48.9908312 C203.711837,49.0225376 203.866383,49.0443358 204.036284,49.0567211 L204.036284,49.679455 L199.517308,49.679455 L199.517308,49.0567211 C199.661947,49.0443358 199.81154,49.031455 199.966085,49.0190697 C200.11964,49.0066844 200.253877,48.9819138 200.366814,48.9442624 C200.54266,48.8872899 200.672934,48.7882073 200.758132,48.6470147 C200.842835,48.505822 200.885434,48.3220239 200.885434,48.0961156 L200.885434,42.3196018 C200.885434,42.1184642 200.839863,41.9381339 200.748721,41.7776202 C200.657578,41.6176018 200.529781,41.4808679 200.366814,41.3679138 C200.246942,41.2921156 200.099331,41.2311798 199.923486,41.1841156 C199.747146,41.1370514 199.564861,41.1068312 199.376137,41.0944459 L199.376137,40.4717119 L202.488846,40.2641339 L202.621101,40.3964092 L202.621101,41.7265927 L202.686981,41.7265927 C202.844004,41.5695468 203.036195,41.383767 203.262565,41.1697486 C203.488935,40.9562257 203.699454,40.7833266 203.894122,40.6510514 C204.114548,40.5004459 204.389461,40.374611 204.719851,40.2740422 C205.049747,40.1734734 205.406886,40.1229413 205.790774,40.1229413 C206.394097,40.1229413 206.912716,40.2849413 207.347128,40.6084459 C207.78055,40.9329413 208.092118,41.3243174 208.280842,41.7835651 C208.506716,41.5631064 208.705843,41.3698954 208.878716,41.2029413 C209.051589,41.0364826 209.27895,40.8586294 209.561788,40.6698771 C209.800046,40.5063908 210.080903,40.374611 210.404359,40.2740422 C210.72732,40.1734734 211.086936,40.1229413 211.482712,40.1229413 C212.267328,40.1229413 212.888979,40.380556 213.347167,40.8962807 C213.805355,41.4125009 214.034697,42.2046661 214.034697,43.273767 L214.034697,48.0000055 C214.034697,48.2204642 214.072343,48.4012899 214.14813,48.5424826 C214.223421,48.6841706 214.352209,48.7926661 214.534494,48.8679688 C214.679133,48.9249413 214.822286,48.9675468 214.963953,48.9952899 C215.105124,49.0240239 215.264128,49.0443358 215.439973,49.0567211 L215.439973,49.679455 Z" id="Fill-31" fill="#FFFFFF"></path>
                <path d="M224.750757,43.9435156 C224.750757,43.5922679 224.721037,43.2162495 224.661101,42.8154606 C224.60166,42.4136807 224.50606,42.0782862 224.373309,41.8082862 C224.22867,41.519956 224.03103,41.2851303 223.779398,41.1033138 C223.527766,40.9210018 223.203814,40.8303413 222.808039,40.8303413 C222.147257,40.8303413 221.598917,41.1048 221.162028,41.653222 C220.724644,42.201644 220.487376,42.9650752 220.449235,43.9435156 L224.750757,43.9435156 Z M226.835638,47.4906716 C226.445807,48.2328 225.92372,48.8243229 225.269872,49.2642495 C224.616025,49.7046716 223.864596,49.9246349 223.01509,49.9246349 C222.266633,49.9246349 221.6113,49.792855 221.048595,49.5283046 C220.48589,49.2642495 220.021758,48.9060661 219.657189,48.4532587 C219.292124,47.999956 219.020678,47.4718459 218.841366,46.8679376 C218.662053,46.2645248 218.572397,45.6259376 218.572397,44.953167 C218.572397,44.3492587 218.668492,43.756745 218.860189,43.1746349 C219.051885,42.5930202 219.333237,42.0693688 219.704246,41.6036807 C220.062871,41.1573138 220.508181,40.7971486 221.039184,40.5236807 C221.570682,40.2502128 222.166575,40.1134789 222.826366,40.1134789 C223.505476,40.1134789 224.087499,40.2199927 224.57194,40.434011 C225.055886,40.6480294 225.449185,40.9403229 225.751342,41.3118826 C226.040124,41.6636257 226.255596,42.0787817 226.396768,42.556855 C226.538435,43.0349284 226.609268,43.5536257 226.609268,44.1134422 L226.609268,44.7361761 L220.449235,44.7361761 C220.449235,45.3475156 220.508181,45.902378 220.62409,46.4002679 C220.740495,46.8981578 220.924265,47.3365982 221.175897,47.7145982 C221.42109,48.0802128 221.74207,48.3690385 222.138341,48.579589 C222.534116,48.7911303 223.006174,48.8966532 223.553028,48.8966532 C224.112761,48.8966532 224.595716,48.7653688 225.000903,48.5028 C225.406586,48.2407266 225.797903,47.7681028 226.175352,47.0854239 L226.835638,47.4906716 Z" id="Fill-33" fill="#FFFFFF"></path>
                <path d="M240.211717,49.679455 L235.664507,49.679455 L235.664507,49.0567211 C235.809146,49.0443358 235.968645,49.031455 236.141023,49.0190697 C236.314392,49.0066844 236.457049,48.9814183 236.569986,48.943767 C236.746327,48.8867945 236.877096,48.7877119 236.961799,48.6465193 C237.046502,48.5048312 237.089101,48.321033 237.089101,48.0946294 L237.089101,43.3114183 C237.089101,42.651033 236.93307,42.1417486 236.621006,41.7835651 C236.308943,41.4248862 235.929018,41.2455468 235.481727,41.2455468 C235.147373,41.2455468 234.841749,41.2970697 234.564855,41.4011064 C234.287465,41.5046477 234.041777,41.6324642 233.827296,41.7835651 C233.618758,41.9282257 233.45381,42.0837853 233.330471,42.250244 C233.207627,42.4171982 233.118466,42.5504642 233.061006,42.651033 L233.061006,48.0000055 C233.061006,48.2140239 233.105092,48.3898954 233.193757,48.528611 C233.281432,48.6668312 233.413192,48.7738404 233.589533,48.8491431 C233.721788,48.9120606 233.864941,48.9596202 234.018992,48.9908312 C234.173042,49.0225376 234.33155,49.0443358 234.495012,49.0567211 L234.495012,49.679455 L229.939381,49.679455 L229.939381,49.0567211 C230.08402,49.0443358 230.233117,49.031455 230.387168,49.0190697 C230.541713,49.0066844 230.67496,48.9819138 230.788392,48.9442624 C230.964237,48.8872899 231.095007,48.7882073 231.17971,48.6470147 C231.264908,48.505822 231.307012,48.3220239 231.307012,48.0961156 L231.307012,42.3572532 C231.307012,42.1437303 231.261441,41.9475468 231.170298,41.7682073 C231.079156,41.5893633 230.951854,41.4432165 230.788392,41.329767 C230.66852,41.2544642 230.526853,41.1999688 230.363887,41.1647945 C230.19993,41.130611 230.02458,41.1068312 229.835856,41.0944459 L229.835856,40.4717119 L232.929742,40.2641339 L233.061006,40.3964092 L233.061006,41.707767 L233.108559,41.707767 C233.259637,41.5566661 233.448361,41.3758404 233.674731,41.1647945 C233.901101,40.9547394 234.114592,40.7833266 234.316195,40.6510514 C234.548509,40.5004459 234.825403,40.374611 235.145887,40.2740422 C235.466867,40.1734734 235.827969,40.1229413 236.230679,40.1229413 C237.123775,40.1229413 237.786043,40.4008679 238.216492,40.9577119 C238.647437,41.514556 238.862414,42.2551982 238.862414,43.1796385 L238.862414,48.0188312 C238.862414,48.2392899 238.900555,48.4171431 238.975847,48.5523908 C239.051138,48.6876385 239.179926,48.7926661 239.362211,48.8679688 C239.513289,48.9308862 239.644059,48.974978 239.754024,49.000244 C239.863989,49.0255101 240.016058,49.0443358 240.211717,49.0567211 L240.211717,49.679455 Z" id="Fill-35" fill="#FFFFFF"></path>
                <path d="M249.125883,49.2740587 C248.716733,49.4439853 248.330369,49.5871596 247.965304,49.7030862 C247.600735,49.8195083 247.154435,49.877967 246.625908,49.877967 C245.846245,49.877967 245.29741,49.6807927 244.979898,49.2879303 C244.662385,48.8950679 244.503382,48.3397101 244.503382,47.6228477 L244.503382,41.3207009 L242.824679,41.3207009 L242.824679,40.4150862 L244.541027,40.4150862 L244.541027,37.5189028 L246.258367,37.5189028 L246.258367,40.4150862 L248.927748,40.4150862 L248.927748,41.3207009 L246.276695,41.3207009 L246.276695,46.5190679 C246.276695,46.9094532 246.291059,47.2349394 246.319294,47.4955266 C246.348023,47.7566092 246.414894,47.9844991 246.522383,48.1796917 C246.622441,48.3620037 246.773519,48.5002239 246.975122,48.5948477 C247.175734,48.6889761 247.446189,48.7360404 247.785992,48.7360404 C247.943014,48.7360404 248.174337,48.7221688 248.479466,48.6934349 C248.784595,48.6651963 248.999572,48.6290312 249.125883,48.5849394 L249.125883,49.2740587 Z" id="Fill-37" fill="#FFFFFF"></path>
                <path d="M14.6821386,18.7446881 C14.6821386,17.3832936 14.2254362,16.2651468 13.3125269,15.3897523 C12.3996175,14.5148532 11.0948952,14.0769083 9.39885518,14.0769083 C8.70736225,14.0769083 8.1243485,14.0853303 7.64882328,14.1011835 C7.17329805,14.1175321 6.81665413,14.1309083 6.57988219,14.1418073 L6.57988219,22.2452752 C6.57988219,22.9259725 6.85479522,23.4397156 7.40610728,23.7855138 C7.956924,24.1313119 8.72370843,24.304211 9.7069559,24.304211 C11.3163116,24.304211 12.5477238,23.8335688 13.4016878,22.8937706 C14.2551566,21.9539725 14.6821386,20.5712752 14.6821386,18.7446881 M12.4318145,11.4001927 C12.8305622,10.9345046 13.107952,10.426211 13.264479,9.8743211 C13.4205107,9.32144037 13.4987742,8.667 13.4987742,7.90951376 C13.4987742,6.64274312 13.1540185,5.64944037 12.4640115,4.9296055 C11.7745,4.21026606 10.6862407,3.85010092 9.19873831,3.85010092 C8.85348718,3.85010092 8.41957042,3.85802752 7.896988,3.87437615 C7.37440559,3.89072477 6.93454476,3.90459633 6.57988219,3.91450459 L6.57988219,12.7645596 L8.63256609,12.7645596 C9.51625047,12.7645596 10.2736235,12.6506147 10.9041897,12.4232202 C11.534756,12.1958257 12.0439643,11.8549817 12.4318145,11.4001927 M16.3509349,14.871055 C17.020633,15.3248532 17.5768984,15.9193486 18.0197313,16.6540459 C18.4630595,17.3892385 18.6844759,18.2804862 18.6844759,19.3282844 C18.6844759,20.3978807 18.4516667,21.3272752 17.9880296,22.1159725 C17.5229065,22.9046697 16.9180978,23.5531651 16.1731083,24.0604679 C15.448923,24.5578624 14.6306234,24.9358624 13.717714,25.1954587 C12.8048046,25.4545596 11.8621749,25.5843578 10.8898249,25.5843578 L-0.000198135511,25.5843578 L-0.000198135511,24.4335138 C0.259359384,24.4117156 0.637302872,24.3661376 1.13462301,24.295789 C1.63095246,24.2254404 1.98759638,24.1417156 2.20405943,24.0446147 C2.5384131,23.8935138 2.77667105,23.6903945 2.91685193,23.4367431 C3.0570328,23.1830917 3.12786625,22.8561193 3.12786625,22.4558257 L3.12786625,5.9243945 C3.12786625,5.55778899 3.06545356,5.23378899 2.94161887,4.95189908 C2.81728883,4.67149541 2.57110546,4.44459633 2.20405943,4.27169725 C1.87961253,4.10920183 1.51801522,3.98534862 1.11827683,3.89865138 C0.718538432,3.81244954 0.383689418,3.75844954 0.113729783,3.73665138 L0.113729783,2.58630275 L10.7283445,2.58630275 C11.5486255,2.58630275 12.3347281,2.66705505 13.0856617,2.82905505 C13.8365953,2.99105505 14.5523598,3.27740367 15.23246,3.68810092 C15.869961,4.06659633 16.3940294,4.57934862 16.8046653,5.22784404 C17.2148058,5.87584404 17.4203714,6.6650367 17.4203714,7.59393578 C17.4203714,8.40443119 17.2747418,9.12575229 16.9829872,9.75740367 C16.691728,10.3900459 16.2805968,10.9325229 15.7510797,11.3863211 C15.2542549,11.8193119 14.6846153,12.1834404 14.0416655,12.4801927 C13.3987158,12.7779358 12.7047462,13.0073119 11.9597567,13.1693119 L11.9597567,13.3149633 C12.6180619,13.3907615 13.3556213,13.5557339 14.1714443,13.8093853 C14.9867719,14.0635321 15.7134339,14.4172569 16.3509349,14.871055" id="Fill-40" fill="#6F8686"></path>
                <path d="M33.5606387,11.6623156 C33.5606387,12.2127193 33.4259066,12.7021872 33.1559469,13.1287376 C32.8854919,13.5557835 32.4694074,13.768811 31.9081885,13.768811 C31.3023892,13.768811 30.8412288,13.612756 30.5222306,13.2991596 C30.2037278,12.9860587 30.0442287,12.6402606 30.0442287,12.2617651 C30.0442287,12.023967 30.0630516,11.807967 30.1011927,11.6132697 C30.1388384,11.4190679 30.1740075,11.2243706 30.2066998,11.0301688 C29.6984822,11.0301688 29.1045711,11.2357651 28.4239756,11.645967 C27.7433801,12.0566642 27.1653197,12.6402606 26.6897945,13.3962606 L26.6897945,22.6991229 C26.6897945,23.0776183 26.7626093,23.3857651 26.9087342,23.6230679 C27.0543639,23.8608661 27.2837057,24.0392147 27.5972552,24.1581138 C27.8672148,24.2661138 28.2159333,24.3468661 28.64242,24.4008661 C29.069402,24.4553615 29.4394201,24.4930128 29.7529695,24.5143156 L29.7529695,25.5844073 L21.3262662,25.5844073 L21.3262662,24.5143156 C21.5744309,24.4930128 21.8310164,24.4712147 22.0955273,24.4499119 C22.3605336,24.4286092 22.5903708,24.3855083 22.7845436,24.3206092 C23.0867002,24.2230128 23.311584,24.0535817 23.4572136,23.8103339 C23.6028432,23.5675817 23.6761534,23.2520037 23.6761534,22.8631046 L23.6761534,13.0048844 C23.6761534,12.6699853 23.5973945,12.3410312 23.4408675,12.0175266 C23.2843404,11.6935266 23.0654007,11.4344257 22.7845436,11.2397284 C22.578978,11.1109211 22.336262,11.0162972 22.0554049,10.9568477 C21.7740525,10.8978936 21.4723912,10.8572697 21.1479443,10.8354716 L21.1479443,9.76587523 L26.4634247,9.40917798 L26.6897945,9.63607706 L26.6897945,11.8887193 L26.7710301,11.8887193 C27.4407281,11.0138202 28.1857176,10.3494716 29.0074847,9.89567339 C29.828261,9.44187523 30.5786993,9.21497615 31.2597901,9.21497615 C31.9403856,9.21497615 32.4941743,9.43642569 32.920661,9.87882936 C33.3471477,10.3227193 33.5606387,10.9162239 33.5606387,11.6623156" id="Fill-43" fill="#6F8686"></path>
                <path d="M44.4019699,16.7349963 C43.4836118,17.0059872 42.6786863,17.271033 41.9871934,17.5306294 C41.2957005,17.7907211 40.6527507,18.1157119 40.0588395,18.5051064 C39.5184249,18.8731982 39.0914429,19.3096569 38.7783888,19.8129963 C38.4653347,20.3163358 38.3088076,20.9152899 38.3088076,21.6078771 C38.3088076,22.506556 38.5435982,23.1669413 39.0136747,23.5895284 C39.4832559,24.0116202 40.0801391,24.2226661 40.8038291,24.2226661 C41.5711088,24.2226661 42.2462556,24.0358954 42.8297647,23.6623541 C43.4132737,23.2888128 43.9046498,22.8478954 44.3043882,22.3391064 L44.4019699,16.7349963 Z M50.0572528,25.2922624 C49.5495305,25.476556 49.1037256,25.6246844 48.7203334,25.7381339 C48.3364459,25.8515835 47.9020337,25.908556 47.4156111,25.908556 C46.5730398,25.908556 45.9003697,25.7108862 45.3985916,25.3165376 C44.8958227,24.922189 44.5743478,24.3470147 44.4336716,23.5910147 L44.3370806,23.5910147 C43.6341948,24.3688128 42.8812799,24.9628128 42.0763544,25.3735101 C41.2714289,25.7842073 40.3020509,25.9898037 39.1677251,25.9898037 C37.9685099,25.9898037 36.9822904,25.6217119 36.2100572,24.8875101 C35.4373287,24.1528128 35.0514598,23.1912165 35.0514598,22.0022257 C35.0514598,21.3869229 35.1376488,20.835033 35.310522,20.3495284 C35.4833952,19.8625376 35.7429528,19.4255835 36.0886992,19.0366844 C36.3586589,18.712189 36.7148074,18.4233633 37.1581356,18.1697119 C37.6009685,17.9155651 38.0165577,17.7134367 38.405894,17.5618404 C38.8923167,17.3780422 39.8775455,17.0376936 41.3630665,16.5402991 C42.8485875,16.0434 43.8506579,15.6545009 44.3692776,15.3736018 L44.3692776,13.7689596 C44.3692776,13.6287578 44.3395573,13.3587578 44.2801166,12.9589596 C44.2206759,12.5591615 44.0938692,12.1811615 43.8992011,11.8239688 C43.6832334,11.4246661 43.3781047,11.0758954 42.983815,10.7791431 C42.5895253,10.4818954 42.0302879,10.3327761 41.3065979,10.3327761 C40.8092778,10.3327761 40.347622,10.4169963 39.9211354,10.5844459 C39.4941533,10.7518954 39.193978,10.9272716 39.0220955,11.1105743 C39.0220955,11.3275651 39.07262,11.6461156 39.1756505,12.0672165 C39.2781856,12.4888128 39.3297008,12.8777119 39.3297008,13.2344092 C39.3297008,13.6124092 39.1593043,13.9587028 38.8190066,14.2713083 C38.4787088,14.5849046 38.0061556,14.741455 37.401347,14.741455 C36.860437,14.741455 36.464166,14.5497303 36.2100572,14.1657853 C35.9559484,13.7828312 35.8291417,13.3533083 35.8291417,12.8777119 C35.8291417,12.3808128 36.004987,11.9052165 36.3561822,11.4514183 C36.706882,10.9976202 37.1635844,10.5923725 37.7252985,10.2361706 C38.2112259,9.93347339 38.7996884,9.67684954 39.4916766,9.46580367 C40.1826742,9.25525321 40.8583163,9.14973028 41.5171169,9.14973028 C42.4245775,9.14973028 43.2156336,9.21215229 43.8912757,9.3360055 C44.5664224,9.46035413 45.1796518,9.72787706 45.7304685,10.1385743 C46.2817806,10.5383725 46.7003419,11.081345 46.9866477,11.7674917 C47.2724582,12.4536385 47.4156111,13.337455 47.4156111,14.4169596 C47.4156111,15.9626477 47.3997602,17.3319688 47.3670679,18.5259138 C47.3348708,19.7198587 47.31902,21.0247761 47.31902,22.4401706 C47.31902,22.8612716 47.3913395,23.1966661 47.5374644,23.4448679 C47.683094,23.6935651 47.9069871,23.904611 48.2096391,24.0765193 C48.3721102,24.174611 48.6282004,24.228611 48.9793956,24.2390147 C49.3305908,24.2499138 49.6897114,24.2553633 50.0572528,24.2553633 L50.0572528,25.2922624 Z" id="Fill-45" fill="#6F8686"></path>
                <path d="M69.2927435,25.5842092 L61.481251,25.5842092 L61.481251,24.5146128 C61.7299111,24.4933101 62.0028427,24.4715119 62.300046,24.4497138 C62.5967539,24.428411 62.8429373,24.3848147 63.0371101,24.3199156 C63.3392668,24.2228147 63.5641506,24.0523927 63.7097802,23.8096404 C63.8554098,23.5663927 63.9287199,23.2503193 63.9287199,22.8614202 L63.9287199,14.6445028 C63.9287199,13.5095119 63.6607416,12.6346128 63.1247851,12.0183193 C62.5883332,11.4030165 61.935972,11.0948697 61.1672062,11.0948697 C60.5936039,11.0948697 60.0680495,11.184044 59.5915336,11.3623927 C59.1150177,11.5402459 58.692989,11.7592183 58.324457,12.0183193 C57.9673177,12.2675119 57.6834886,12.5345394 57.4719789,12.8208881 C57.2609646,13.1072367 57.1064189,13.3371083 57.0088372,13.5095119 L57.0088372,22.6994202 C57.0088372,23.0670165 57.084624,23.3692183 57.2361977,23.6070165 C57.387276,23.8448147 57.6141412,24.0281174 57.9162978,24.1579156 C58.1436583,24.266411 58.388851,24.3471633 58.6538573,24.4006679 C58.9188635,24.4556587 59.1908045,24.4933101 59.4721569,24.5146128 L59.4721569,25.5842092 L51.6453089,25.5842092 L51.6453089,24.5146128 C51.8934736,24.4933101 52.1505544,24.4715119 52.4150654,24.4497138 C52.6795763,24.428411 52.9094135,24.3853101 53.1035863,24.320411 C53.4062382,24.2233101 53.6306267,24.0533835 53.7762563,23.8106312 C53.9223813,23.5678789 53.9951961,23.2518055 53.9951961,22.8634018 L53.9951961,13.0046862 C53.9951961,12.6375853 53.9164372,12.3007046 53.7604055,11.9930532 C53.6033831,11.6854018 53.3844433,11.4342275 53.1035863,11.2400257 C52.8980207,11.1107229 52.6553047,11.0165945 52.3749429,10.957145 C52.0930951,10.8976954 51.7914338,10.8570716 51.4674823,10.8352734 L51.4674823,9.76567706 L56.7824674,9.40947523 L57.0088372,9.63637431 L57.0088372,11.8885211 L57.0900727,11.8885211 C57.3496303,11.6294202 57.6735818,11.3192917 58.0624228,10.957145 C58.4512637,10.5949982 58.8183097,10.3007229 59.1645515,10.0733284 C59.5637946,9.81422752 60.0393198,9.59822752 60.5906319,9.42532844 C61.1414486,9.25292477 61.7626034,9.16573211 62.453601,9.16573211 C63.9876652,9.16573211 65.1249631,9.64430092 65.8649992,10.6004477 C66.6050353,11.5570899 66.9750534,12.8293101 66.9750534,14.4171083 L66.9750534,22.731622 C66.9750534,23.1101174 67.0399428,23.4152917 67.1697215,23.6476404 C67.2995003,23.879989 67.5204214,24.0608147 67.8339708,24.1906128 C68.093033,24.2986128 68.3174215,24.374411 68.5066409,24.4175119 C68.695365,24.4606128 68.9573992,24.4933101 69.2927435,24.5146128 L69.2927435,25.5842092 Z" id="Fill-47" fill="#6F8686"></path>
                <path d="M82.8884556,22.4888697 L82.8884556,13.1369615 C82.8022666,12.8565578 82.6620858,12.5533651 82.467913,12.2293651 C82.2742355,11.9053651 82.0315195,11.6081174 81.7402603,11.3381174 C81.4277015,11.0681174 81.0611508,10.8436954 80.6401129,10.6653468 C80.2195702,10.4869982 79.7291849,10.3978239 79.1684614,10.3978239 C78.5215489,10.3978239 77.9256564,10.5657688 77.381279,10.9001725 C76.8369017,11.235567 76.3544418,11.7166128 75.9338991,12.3428147 C75.5346561,12.9482092 75.220116,13.7180807 74.9878021,14.6524294 C74.7559835,15.586778 74.6405696,16.6212 74.6405696,17.7561908 C74.6405696,18.6637872 74.7257679,19.4876587 74.8986411,20.2278055 C75.0715143,20.9679523 75.3627735,21.6565761 75.7724187,22.2941725 C76.1498668,22.899567 76.6318315,23.3860624 77.2197986,23.7526679 C77.8072704,24.1202642 78.5052027,24.3040624 79.314091,24.3040624 C80.1764758,24.3040624 80.8912496,24.1148147 81.4569265,23.7368147 C82.0230987,23.3588147 82.5006053,22.9426679 82.8884556,22.4888697 L82.8884556,22.4888697 Z M88.7547527,25.292411 L83.1648546,25.6491083 L82.9206526,25.4222092 L82.9206526,23.9310165 L82.7918645,23.8988147 C82.2306457,24.5255119 81.5366761,25.0387596 80.711937,25.4380624 C79.8862072,25.8378606 79.0371966,26.0380073 78.163419,26.0380073 C77.256949,26.0380073 76.3801994,25.8353835 75.5331701,25.4301358 C74.6861408,25.0248881 73.9500673,24.4556587 73.3244545,23.7204661 C72.6879441,22.9743743 72.1841846,22.0781725 71.8116898,21.0298789 C71.4396904,19.9820807 71.253443,18.8252917 71.253443,17.561989 C71.253443,16.4056954 71.4525692,15.3088514 71.8518123,14.2714569 C72.25056,13.2340624 72.8013767,12.3264661 73.5027764,11.5486679 C74.1605863,10.8248697 74.9669978,10.2467229 75.922011,9.81422752 C76.8760335,9.38272294 77.8503649,9.16573211 78.8430238,9.16573211 C79.5870226,9.16573211 80.3181427,9.26085138 81.0353932,9.45009908 C81.7526438,9.63934679 82.3703312,9.87912661 82.8884556,10.1714202 L82.8884556,4.60099817 C82.8884556,4.14670459 82.8126688,3.73253945 82.6615904,3.35899817 C82.5100168,2.98545688 82.2994978,2.70158532 82.0300335,2.50639266 C81.7268861,2.30079633 81.3192223,2.15167706 80.8060514,2.06002569 C80.2928804,1.96738349 79.7390916,1.90000734 79.1446851,1.85690642 L79.1446851,0.851713761 L85.6910824,0.495016514 L85.9347891,0.73826422 L85.9347891,22.2793101 C85.9347891,22.6573101 86.0080992,22.9783376 86.1537288,23.2428881 C86.2998537,23.5079339 86.5123541,23.7318606 86.7937065,23.9151633 C86.9987768,24.0449615 87.29598,24.1257138 87.6853163,24.1579156 C88.0741573,24.1906128 88.4303058,24.212411 88.7547527,24.2228147 L88.7547527,25.292411 Z" id="Fill-49" fill="#6F8686"></path>
                <path d="M102.544786,11.6623156 C102.544786,12.2127193 102.410054,12.7021872 102.140094,13.1287376 C101.869639,13.5557835 101.453555,13.768811 100.892336,13.768811 C100.286537,13.768811 99.8253763,13.612756 99.5063781,13.2991596 C99.1878753,12.9860587 99.0283762,12.6402606 99.0283762,12.2617651 C99.0283762,12.023967 99.0471991,11.807967 99.0853402,11.6132697 C99.1229859,11.4190679 99.158155,11.2243706 99.1908473,11.0301688 C98.6826297,11.0301688 98.0887185,11.2357651 97.4081231,11.645967 C96.7275276,12.0566642 96.1494672,12.6402606 95.673942,13.3962606 L95.673942,22.6991229 C95.673942,23.0776183 95.7467568,23.3857651 95.8928817,23.6230679 C96.0385113,23.8608661 96.2678532,24.0392147 96.5814026,24.1581138 C96.8513623,24.2661138 97.2000808,24.3468661 97.6265675,24.4008661 C98.0535495,24.4553615 98.4235675,24.4930128 98.737117,24.5143156 L98.737117,25.5844073 L90.3104137,25.5844073 L90.3104137,24.5143156 C90.5585784,24.4930128 90.8151639,24.4712147 91.0796748,24.4499119 C91.3446811,24.4286092 91.5745183,24.3855083 91.7686911,24.3206092 C92.0708477,24.2230128 92.2957315,24.0535817 92.4413611,23.8103339 C92.5869907,23.5675817 92.6603009,23.2520037 92.6603009,22.8631046 L92.6603009,13.0048844 C92.6603009,12.6699853 92.581542,12.3410312 92.4250149,12.0175266 C92.2684879,11.6935266 92.0495482,11.4344257 91.7686911,11.2397284 C91.5631255,11.1109211 91.3204095,11.0162972 91.0395524,10.9568477 C90.7582,10.8978936 90.4565386,10.8572697 90.1320917,10.8354716 L90.1320917,9.76587523 L95.4475722,9.40917798 L95.673942,9.63607706 L95.673942,11.8887193 L95.7551775,11.8887193 C96.4248756,11.0138202 97.1698651,10.3494716 97.9916321,9.89567339 C98.8124085,9.44187523 99.5628467,9.21497615 100.243938,9.21497615 C100.924533,9.21497615 101.478322,9.43642569 101.904808,9.87882936 C102.331295,10.3227193 102.544786,10.9162239 102.544786,11.6623156" id="Fill-52" fill="#6F8686"></path>
                <path d="M109.62709,3.10485138 C109.62709,3.72015413 109.424497,4.25817248 109.018814,4.71742018 C108.614123,5.17666789 108.113831,5.40604404 107.519919,5.40604404 C106.969598,5.40604404 106.491101,5.18707156 106.086409,4.74962202 C105.680726,4.31217248 105.478628,3.81279633 105.478628,3.25050275 C105.478628,2.65650275 105.680726,2.1378055 106.086409,1.69441101 C106.491101,1.25200734 106.969598,1.0305578 107.519919,1.0305578 C108.136121,1.0305578 108.640871,1.23813578 109.035656,1.65378716 C109.429946,2.06993394 109.62709,2.55345688 109.62709,3.10485138 L109.62709,3.10485138 Z M111.652531,25.5842092 L103.939115,25.5842092 L103.939115,24.5146128 C104.18728,24.4933101 104.443866,24.4715119 104.708376,24.4497138 C104.972887,24.428411 105.202725,24.3853101 105.397393,24.320411 C105.699549,24.2233101 105.923938,24.0533835 106.069567,23.8106312 C106.215692,23.5678789 106.288507,23.2518055 106.288507,22.8634018 L106.288507,13.0046862 C106.288507,12.6593835 106.210244,12.3438055 106.053717,12.0574569 C105.897189,11.7716037 105.677754,11.5318239 105.397393,11.3371266 C105.191827,11.2078239 104.895119,11.0973468 104.506278,11.0056954 C104.117437,10.914044 103.760298,10.8570716 103.436346,10.8352734 L103.436346,9.76567706 L109.075778,9.40947523 L109.303139,9.63637431 L109.303139,22.6667229 C109.303139,23.0452183 109.374963,23.3588147 109.520097,23.6070165 C109.664736,23.8557138 109.892592,24.0395119 110.203665,24.1579156 C110.439941,24.2550165 110.670274,24.3337872 110.896148,24.3932367 C111.121528,24.4526862 111.37316,24.4933101 111.652531,24.5146128 L111.652531,25.5842092 Z" id="Fill-54" fill="#6F8686"></path>
                <path d="M121.018892,26.0056073 C118.70665,26.0056073 116.897178,25.2387083 115.590474,23.7039193 C114.28278,22.1701211 113.629428,20.1121761 113.629428,17.5290936 C113.629428,16.4054972 113.805273,15.3547266 114.156468,14.3767817 C114.507168,13.3993321 115.017367,12.5105615 115.687065,11.7109651 C116.324566,10.9440661 117.124043,10.3252954 118.085495,9.85465321 C119.047443,9.38500183 120.095085,9.15017615 121.229906,9.15017615 C122.795672,9.15017615 124.070674,9.52520367 125.053921,10.2762495 C126.036674,11.0277908 126.528545,12.0513138 126.528545,13.3478092 C126.528545,13.8883046 126.398766,14.366378 126.139704,14.7820294 C125.880146,15.1981761 125.453164,15.4057541 124.859749,15.4057541 C124.221752,15.4057541 123.727899,15.2442495 123.376704,14.9212404 C123.025509,14.5982312 122.850159,14.2375706 122.850159,13.8387633 C122.850159,13.3542495 122.915049,12.8563596 123.044827,12.3445982 C123.174606,11.8333321 123.249402,11.4588 123.271197,11.2214972 C123.07752,10.887589 122.788737,10.6646532 122.406336,10.5516991 C122.023934,10.4382495 121.611317,10.3817725 121.16997,10.3817725 C120.652836,10.3817725 120.159974,10.492745 119.690888,10.7141945 C119.222298,10.935644 118.767082,11.3433688 118.325735,11.9378642 C117.926492,12.4778642 117.603036,13.2076073 117.355366,14.1261028 C117.107697,15.0441028 116.983862,16.1409468 116.983862,17.415644 C116.983862,19.4255339 117.428676,21.064855 118.3188,22.3345982 C119.208428,23.6043413 120.376437,24.2394606 121.821341,24.2394606 C122.867496,24.2394606 123.744246,23.9838275 124.451094,23.4735523 C125.156952,22.9622862 125.81278,22.1968734 126.416598,21.1758275 L127.452352,21.8565248 C126.739559,23.1317174 125.798911,24.1413688 124.632388,24.8874606 C123.46537,25.6325615 122.261201,26.0056073 121.018892,26.0056073" id="Fill-56" fill="#6F8686"></path>
                <path d="M145.634455,25.5842092 L140.813323,25.5842092 C139.969265,24.3645028 139.066263,23.0580991 138.10382,21.665989 C137.141376,20.2733835 136.140297,18.9189248 135.102067,17.6021174 L133.772577,18.8421358 L133.772577,22.6345211 C133.772577,23.0234202 133.841925,23.3449431 133.983096,23.5985945 C134.123277,23.8527413 134.350142,24.0395119 134.663692,24.1579156 C134.922754,24.266411 135.170919,24.3471633 135.408681,24.4006679 C135.646444,24.4556587 135.921852,24.4933101 136.235402,24.5146128 L136.235402,25.5842092 L128.408554,25.5842092 L128.408554,24.5146128 C128.655232,24.4933101 128.912313,24.4685394 129.180787,24.4412917 C129.448765,24.4150349 129.674144,24.3739156 129.856924,24.3194202 C130.1571,24.2223193 130.382479,24.0523927 130.533062,23.809145 C130.682654,23.5658972 130.757946,23.2493284 130.757946,22.8599339 L130.757946,4.27303486 C130.757946,3.8732367 130.674233,3.49771376 130.506809,3.14597064 C130.339384,2.79472294 130.120445,2.5272 129.850485,2.34340183 C129.624115,2.17050275 129.269948,2.05705321 128.788974,2.0025578 C128.308,1.9485578 127.922131,1.91090642 127.630377,1.88910826 L127.630377,0.851713761 L133.545217,0.495016514 L133.772577,0.73826422 L133.772577,17.6452183 C134.615644,16.8025211 135.526572,15.8983927 136.504371,14.9318422 C137.48316,13.9657872 138.307404,13.1042642 138.978093,12.3477688 C139.063786,12.2506679 139.158891,12.1233468 139.261426,11.9663009 C139.363962,11.8087596 139.414981,11.6819339 139.414981,11.5838422 C139.414981,11.2910532 139.180191,11.0745578 138.710114,10.9338606 C138.240038,10.7931633 137.78928,10.6950716 137.357344,10.6410716 L137.357344,9.60367706 L144.386201,9.60367706 L144.386201,10.6083743 C143.478741,10.8788697 142.676787,11.2162459 141.979846,11.6214936 C141.283399,12.0267413 140.75091,12.3913651 140.383864,12.7153651 C140.124802,12.9318606 139.756765,13.2826128 139.280745,13.767622 C138.804724,14.2531266 138.139484,14.8897321 137.28552,15.6769431 C138.171681,16.768833 139.168798,18.0772183 140.276871,19.6016037 C141.384944,21.125989 142.192841,22.228778 142.700564,22.9094752 C143.176089,23.547567 143.602575,23.9637138 143.981014,24.1579156 C144.359453,24.3526128 144.91027,24.4715119 145.634455,24.5146128 L145.634455,25.5842092 Z" id="Fill-58" fill="#6F8686"></path>
                <path d="M165.844624,15.1161853 C166.330056,15.6566807 166.689672,16.2477083 166.921986,16.8907541 C167.1543,17.5338 167.270704,18.2823688 167.270704,19.1354697 C167.270704,21.1671578 166.519275,22.8416532 165.017904,24.1594514 C163.516036,25.4782404 161.652572,26.1371394 159.42751,26.1371394 C158.400673,26.1371394 157.374331,25.9776165 156.347989,25.6585706 C155.321647,25.3405156 154.436477,24.9535982 153.690496,24.4998 L152.99405,25.6833413 L151.697253,25.6833413 L151.470388,17.8062771 L152.783036,17.8062771 C153.052995,18.7787725 153.369022,19.656644 153.731114,20.4398917 C154.092711,21.2236349 154.570713,21.9553596 155.16512,22.6365523 C155.726834,23.2741486 156.383158,23.7814514 157.134092,24.1594514 C157.885025,24.5384422 158.756821,24.7266991 159.751462,24.7266991 C160.496451,24.7266991 161.147822,24.6295982 161.704087,24.4349009 C162.260353,24.2402037 162.711111,23.9637633 163.057353,23.6070661 C163.402604,23.2498734 163.659189,22.8307541 163.827109,22.3492128 C163.994534,21.8676716 164.078246,21.3133046 164.078246,20.6856165 C164.078246,19.7661303 163.818688,18.9085706 163.300069,18.113433 C162.781449,17.3182954 162.009216,16.715378 160.983369,16.3036899 C160.280483,16.0242771 159.476053,15.714644 158.568593,15.3757817 C157.661132,15.0374147 156.877011,14.7168826 156.21821,14.4156716 C154.921909,13.8320752 153.914885,13.0676532 153.196644,12.1229009 C152.477907,11.1781486 152.118786,9.94357982 152.118786,8.42018532 C152.118786,7.54578165 152.297108,6.7298367 152.653257,5.9738367 C153.010396,5.2178367 153.517623,4.54258899 154.176919,3.94858899 C154.803027,3.38679083 155.543063,2.94686422 156.397027,2.62831376 C157.250001,2.30926789 158.141115,2.15024037 159.070371,2.15024037 C160.129405,2.15024037 161.077484,2.31174495 161.914606,2.63624037 C162.751729,2.96024037 163.516036,3.33923119 164.207529,3.77123119 L164.872274,2.66893761 L166.168576,2.66893761 L166.298354,10.3022587 L164.985707,10.3022587 C164.747449,9.42735963 164.480461,8.59011193 164.183258,7.7905156 C163.886054,6.99091927 163.500186,6.26662569 163.02466,5.61813028 C162.560033,4.99192844 161.99287,4.49205688 161.323172,4.11950642 C160.653474,3.74646055 159.832202,3.56018532 158.859852,3.56018532 C157.83351,3.56018532 156.958742,3.89013028 156.235052,4.54902936 C155.510866,5.20792844 155.149269,6.01297431 155.149269,6.96367156 C155.149269,7.95796514 155.381088,8.7818367 155.845715,9.43528624 C156.310343,10.0892312 156.98549,10.6262587 157.871651,11.047855 C158.659735,11.4263505 159.435436,11.7528275 160.197267,12.0287725 C160.958602,12.3037266 161.696162,12.5984972 162.408954,12.9120936 C163.057353,13.1929927 163.680984,13.5115431 164.280839,13.867745 C164.880199,14.2244422 165.4008,14.640589 165.844624,15.1161853" id="Fill-61" fill="#FFFFFF"></path>
                <path d="M180.347797,15.8128844 C180.347797,15.2094716 180.296281,14.5634532 180.193746,13.8743339 C180.091211,13.1847193 179.926759,12.6080587 179.699398,12.1453431 C179.450738,11.6499303 179.110936,11.2456734 178.679,10.9330679 C178.24657,10.6209578 177.690304,10.4644073 177.010204,10.4644073 C175.875383,10.4644073 174.932753,10.935545 174.182315,11.8783156 C173.430886,12.8210862 173.023222,14.1319486 172.958333,15.8128844 L180.347797,15.8128844 Z M183.929096,21.9069578 C183.259398,23.1821505 182.362339,24.1977468 181.239406,24.9537468 C180.115483,25.7102422 178.825125,26.0882422 177.365857,26.0882422 C176.080453,26.0882422 174.954053,25.8613431 173.987647,25.407545 C173.020745,24.9537468 172.223745,24.3379486 171.597142,23.5601505 C170.970538,22.7818569 170.503434,21.8742606 170.195828,20.8373615 C169.887728,19.799967 169.733677,18.7036183 169.733677,17.5468294 C169.733677,16.5094349 169.89813,15.4918569 170.228025,14.4921138 C170.557426,13.4923706 171.040876,12.5931963 171.678377,11.7936 C172.294083,11.0267009 173.058391,10.4079303 173.971301,9.93778349 C174.88421,9.4676367 175.908075,9.23281101 177.041906,9.23281101 C178.208924,9.23281101 179.208022,9.41660917 180.040191,9.78371009 C180.871865,10.1513064 181.547507,10.653655 182.066127,11.2912514 C182.562456,11.8966459 182.93297,12.609545 183.175686,13.430444 C183.418897,14.2518385 183.540255,15.1430862 183.540255,16.1046826 L183.540255,17.1742789 L172.958333,17.1742789 C172.958333,18.2245541 173.058391,19.1777284 173.258013,20.0338018 C173.45813,20.8888844 173.774156,21.6414165 174.206586,22.2913982 C174.627624,22.9195817 175.178441,23.4149945 175.859037,23.7776367 C176.540127,24.1407743 177.350006,24.3220954 178.290159,24.3220954 C179.251117,24.3220954 180.080809,24.0966826 180.777255,23.6458569 C181.474197,23.1945358 182.146867,22.3830495 182.79477,21.2104073 L183.929096,21.9069578 Z" id="Fill-63" fill="#FFFFFF"></path>
                <path d="M195.25685,16.8177303 C194.338492,17.0887211 193.533566,17.353767 192.842073,17.6133633 C192.15058,17.873455 191.507631,18.1984459 190.91372,18.5878404 C190.373305,18.9559321 189.946323,19.3923908 189.633269,19.8957303 C189.320215,20.3990697 189.163688,20.9980239 189.163688,21.690611 C189.163688,22.5892899 189.398478,23.2496752 189.868555,23.6722624 C190.338136,24.0943541 190.935019,24.3054 191.658709,24.3054 C192.425989,24.3054 193.101136,24.1186294 193.684645,23.7450881 C194.268154,23.3715468 194.75953,22.9306294 195.159268,22.4218404 L195.25685,16.8177303 Z M200.912133,25.3749963 C200.404411,25.5592899 199.958606,25.7074183 199.575213,25.8208679 C199.191326,25.9343174 198.756914,25.9912899 198.270491,25.9912899 C197.42792,25.9912899 196.75525,25.7936202 196.253472,25.3992716 C195.750703,25.0049229 195.429228,24.4297486 195.288552,23.6737486 L195.191961,23.6737486 C194.489075,24.4515468 193.73616,25.0455468 192.931234,25.456244 C192.126309,25.8669413 191.156931,26.0725376 190.022605,26.0725376 C188.82339,26.0725376 187.83717,25.7044459 187.064937,24.970244 C186.292209,24.2355468 185.90634,23.2739505 185.90634,22.0849596 C185.90634,21.4696569 185.992529,20.917767 186.165402,20.4322624 C186.338275,19.9452716 186.597833,19.5083174 186.943579,19.1194183 C187.213539,18.7949229 187.569687,18.5060972 188.013016,18.2524459 C188.455849,17.9982991 188.871438,17.7961706 189.260774,17.6445743 C189.747197,17.4607761 190.732426,17.1204275 192.217947,16.623033 C193.703468,16.1261339 194.705538,15.7372349 195.224158,15.4563358 L195.224158,13.8516936 C195.224158,13.7114917 195.194437,13.4414917 195.134997,13.0416936 C195.075556,12.6418954 194.948749,12.2638954 194.754081,11.9067028 C194.538113,11.5074 194.232985,11.1586294 193.838695,10.8618771 C193.444405,10.5646294 192.885168,10.4155101 192.161478,10.4155101 C191.664158,10.4155101 191.202502,10.4997303 190.776015,10.6671798 C190.349033,10.8346294 190.048858,11.0100055 189.876975,11.1933083 C189.876975,11.4102991 189.9275,11.7288495 190.03053,12.1499505 C190.133066,12.5715468 190.184581,12.9604459 190.184581,13.3171431 C190.184581,13.6951431 190.014184,14.0414367 189.673887,14.3540422 C189.333589,14.6676385 188.861036,14.824189 188.256227,14.824189 C187.715317,14.824189 187.319046,14.6324642 187.064937,14.2485193 C186.810828,13.8655651 186.684022,13.4360422 186.684022,12.9604459 C186.684022,12.4635468 186.859867,11.9879505 187.211062,11.5341523 C187.561762,11.0803541 188.018464,10.6751064 188.580179,10.3189046 C189.066106,10.0162073 189.654568,9.75958349 190.346557,9.54853761 C191.037554,9.33798716 191.713196,9.23246422 192.371997,9.23246422 C193.279458,9.23246422 194.070514,9.29488624 194.746156,9.41873945 C195.421302,9.54308807 196.034532,9.81061101 196.585349,10.2213083 C197.136661,10.6211064 197.555222,11.1640789 197.841528,11.8502257 C198.127338,12.5363725 198.270491,13.420189 198.270491,14.4996936 C198.270491,16.0453817 198.25464,17.4147028 198.221948,18.6086477 C198.189751,19.8025927 198.1739,21.1075101 198.1739,22.5229046 C198.1739,22.9440055 198.246219,23.2794 198.392344,23.5276018 C198.537974,23.7762991 198.761867,23.987345 199.064519,24.1592532 C199.22699,24.257345 199.48308,24.311345 199.834276,24.3217486 C200.185471,24.3326477 200.544591,24.3380972 200.912133,24.3380972 L200.912133,25.3749963 Z" id="Fill-65" fill="#FFFFFF"></path>
                <path d="M214.73466,11.7450495 C214.73466,12.2954532 214.599928,12.7849211 214.329969,13.2114716 C214.059514,13.6385174 213.643429,13.851545 213.08221,13.851545 C212.476411,13.851545 212.015251,13.6954899 211.696252,13.3818936 C211.37775,13.0687927 211.21825,12.7229945 211.21825,12.3444991 C211.21825,12.1067009 211.237073,11.8907009 211.275214,11.6960037 C211.31286,11.5018018 211.348029,11.3071046 211.380722,11.1129028 C210.872504,11.1129028 210.278593,11.3184991 209.597997,11.7287009 C208.917402,12.1393982 208.339341,12.7229945 207.863816,13.4789945 L207.863816,22.7818569 C207.863816,23.1603523 207.936631,23.4684991 208.082756,23.7058018 C208.228386,23.9436 208.457727,24.1219486 208.771277,24.2408477 C209.041237,24.3488477 209.389955,24.4296 209.816442,24.4836 C210.243424,24.5380954 210.613442,24.5757468 210.926991,24.5970495 L210.926991,25.6671413 L202.500288,25.6671413 L202.500288,24.5970495 C202.748453,24.5757468 203.005038,24.5539486 203.269549,24.5326459 C203.534555,24.5113431 203.764393,24.4682422 203.958565,24.4033431 C204.260722,24.3057468 204.485606,24.1363156 204.631235,23.8930679 C204.776865,23.6503156 204.850175,23.3347376 204.850175,22.9458385 L204.850175,13.0876183 C204.850175,12.7527193 204.771416,12.4237651 204.614889,12.1002606 C204.458362,11.7762606 204.239422,11.5171596 203.958565,11.3224624 C203.753,11.193655 203.510284,11.0990312 203.229427,11.0395817 C202.948074,10.9806275 202.646413,10.9400037 202.321966,10.9182055 L202.321966,9.84860917 L207.637446,9.49191193 L207.863816,9.71881101 L207.863816,11.9714532 L207.945052,11.9714532 C208.61475,11.0965541 209.359739,10.4322055 210.181506,9.97840734 C211.002283,9.52460917 211.752721,9.29771009 212.433812,9.29771009 C213.114407,9.29771009 213.668196,9.51915963 214.094683,9.9615633 C214.521169,10.4054532 214.73466,10.9989578 214.73466,11.7450495" id="Fill-67" fill="#FFFFFF"></path>
                <path d="M223.485811,26.0883413 C221.173569,26.0883413 219.364097,25.3214422 218.057393,23.7866532 C216.749699,22.252855 216.096347,20.1949101 216.096347,17.6118275 C216.096347,16.4882312 216.272192,15.4374606 216.623387,14.4595156 C216.974087,13.4820661 217.484286,12.5932954 218.153984,11.7936991 C218.791485,11.0268 219.590962,10.4080294 220.552414,9.93738716 C221.514362,9.46773578 222.562004,9.23291009 223.696825,9.23291009 C225.262591,9.23291009 226.537593,9.60793761 227.52084,10.3589835 C228.503592,11.1105248 228.995464,12.1340477 228.995464,13.4305431 C228.995464,13.9710385 228.865685,14.4491119 228.606623,14.8647633 C228.347065,15.2809101 227.920083,15.4884881 227.326668,15.4884881 C226.688671,15.4884881 226.194818,15.3269835 225.843623,15.0039743 C225.492428,14.6809651 225.317078,14.3203046 225.317078,13.9214972 C225.317078,13.4369835 225.381967,12.9390936 225.511746,12.4273321 C225.641525,11.9160661 225.716321,11.5415339 225.738116,11.3042312 C225.544439,10.9703229 225.255656,10.7473872 224.873255,10.634433 C224.490853,10.5209835 224.078236,10.4645064 223.636889,10.4645064 C223.119755,10.4645064 222.626893,10.5754789 222.157807,10.7969284 C221.689217,11.018378 221.234001,11.4261028 220.792654,12.0205982 C220.393411,12.5605982 220.069954,13.2903413 219.822285,14.2088367 C219.574616,15.1268367 219.450781,16.2236807 219.450781,17.498378 C219.450781,19.5082679 219.895595,21.147589 220.785719,22.4173321 C221.675347,23.6870752 222.843356,24.3221945 224.288259,24.3221945 C225.334415,24.3221945 226.211165,24.0665615 226.918013,23.5562862 C227.623871,23.0450202 228.279699,22.2796073 228.883517,21.2585615 L229.919271,21.9392587 C229.206478,23.2144514 228.26583,24.2241028 227.099307,24.9701945 C225.932289,25.7152954 224.72812,26.0883413 223.485811,26.0883413" id="Fill-69" fill="#FFFFFF"></path>
                <path d="M248.555104,25.6669431 L240.695564,25.6669431 L240.695564,24.5973468 C240.943729,24.576044 241.219137,24.5542459 241.521789,24.5324477 C241.823946,24.511145 242.073101,24.4675486 242.267769,24.4026495 C242.569431,24.3055486 242.793819,24.1351266 242.939944,23.8923743 C243.085574,23.6491266 243.158388,23.3330532 243.158388,22.9441541 L243.158388,14.7272367 C243.158388,13.5922459 242.89041,12.7173468 242.354454,12.1010532 C241.818002,11.4857505 241.166136,11.1776037 240.396875,11.1776037 C239.83417,11.1776037 239.311587,11.266778 238.829623,11.4451266 C238.348153,11.6229798 237.917209,11.8419523 237.53877,12.1010532 C237.170733,12.3715486 236.888885,12.642044 236.694217,12.912044 C236.499054,13.182044 236.34748,13.4089431 236.239496,13.5922459 L236.239496,22.7821541 C236.239496,23.1497505 236.311816,23.4519523 236.457941,23.6897505 C236.60357,23.9275486 236.827463,24.1108514 237.130611,24.2406495 C237.367878,24.349145 237.613566,24.4298972 237.867675,24.4834018 C238.121784,24.5383927 238.399669,24.576044 238.702321,24.5973468 L238.702321,25.6669431 L230.875473,25.6669431 L230.875473,24.5973468 C231.122151,24.576044 231.379232,24.5512734 231.647706,24.5240257 C231.915684,24.4977688 232.141063,24.4566495 232.323843,24.4021541 C232.624019,24.3050532 232.849398,24.1351266 232.999981,23.8918789 C233.149573,23.6486312 233.224864,23.3320624 233.224864,22.9426679 L233.224864,4.32356697 C233.224864,3.95597064 233.141152,3.58886972 232.973728,3.22077798 C232.806303,2.85318165 232.587363,2.57773211 232.317404,2.39343853 C232.122736,2.2532367 231.779961,2.1531633 231.288585,2.09371376 C230.796714,2.03426422 230.399947,1.99364037 230.097295,1.9718422 L230.097295,0.934447706 L236.012136,0.577750459 L236.239496,0.820998165 L236.239496,11.971255 L236.304386,11.971255 C236.66103,11.6155486 236.985972,11.2989798 237.277726,11.0235303 C237.569976,10.7480807 237.954359,10.459255 238.43038,10.1560624 C238.841511,9.89696147 239.325457,9.68096147 239.882713,9.50806239 C240.439969,9.33565872 241.065087,9.24846606 241.75757,9.24846606 C243.186127,9.24846606 244.284293,9.70028257 245.052564,10.6024294 C245.820339,11.5045761 246.205217,12.804044 246.205217,14.4998422 L246.205217,22.814356 C246.205217,23.1928514 246.273079,23.4980257 246.408801,23.7303743 C246.544524,23.9627229 246.770399,24.1435486 247.086425,24.2733468 C247.336571,24.3704477 247.56195,24.4432734 247.763058,24.4918239 C247.964661,24.5408697 248.228676,24.576044 248.555104,24.5973468 L248.555104,25.6669431 Z" id="Fill-71" fill="#FFFFFF"></path>
            </g>
        </g>
    </g>
</svg>