<svg id="Layer_1" data-name="Layer 1" xmlns="http://www.w3.org/2000/svg" width="8.819cm" height="1.87cm" viewBox="0 0 250 53"><path id="Fill-1" d="M13.055,49.679H9.3a40.545,40.545,0,0,0-2.41-3.335q-1.326-1.656-2.778-3.213H3.868v4.66a1.275,1.275,0,0,0,.117.557.876.876,0,0,0,.429.4,3.635,3.635,0,0,0,.561.16,3.705,3.705,0,0,0,.684.1v.67H.1v-.67l.633-.056a2.072,2.072,0,0,0,.584-.113.811.811,0,0,0,.411-.364,1.228,1.228,0,0,0,.127-.58V38.236a1.333,1.333,0,0,0-.108-.557.837.837,0,0,0-.429-.386,3.5,3.5,0,0,0-.6-.217A3.277,3.277,0,0,0,.1,36.962v-.669H5.66v.669a4.5,4.5,0,0,0-.66.085,4.487,4.487,0,0,0-.585.141.688.688,0,0,0-.433.378,1.44,1.44,0,0,0-.113.576v4.623h.189q.849-.717,1.669-1.5t1.49-1.552a14.965,14.965,0,0,0,1.089-1.373,1.7,1.7,0,0,0,.344-.911.266.266,0,0,0-.174-.231,1.871,1.871,0,0,0-.4-.146,3.246,3.246,0,0,0-.471-.071l-.339-.024v-.669h5.018v.669c-.019,0-.06,0-.123.01l-.216.019a1.852,1.852,0,0,0-.264.038q-.132.028-.339.066a3.417,3.417,0,0,0-.684.24,1.84,1.84,0,0,0-.58.411q-.97,1.1-2.025,2.284T5.96,42.181Q7.395,43.8,8.335,44.973t2,2.5a4.635,4.635,0,0,0,.808.816,5.056,5.056,0,0,0,.695.458,2.26,2.26,0,0,0,.61.189,4.48,4.48,0,0,0,.61.075Z" style="fill:#fff"/><path id="Fill-3" d="M25.536,49.679H20.988v-.623c.145-.012.3-.025.477-.038a1.78,1.78,0,0,0,.429-.075.681.681,0,0,0,.392-.3,1.065,1.065,0,0,0,.127-.552V43.311a2.255,2.255,0,0,0-.468-1.528,1.456,1.456,0,0,0-1.139-.538,2.588,2.588,0,0,0-.917.156,3.243,3.243,0,0,0-.738.382,2.1,2.1,0,0,0-.5.467,4.427,4.427,0,0,0-.269.4V48a.964.964,0,0,0,.133.529.844.844,0,0,0,.4.321,1.852,1.852,0,0,0,.429.142,3.771,3.771,0,0,0,.476.066v.623H15.263v-.623l.448-.038a1.714,1.714,0,0,0,.4-.075.681.681,0,0,0,.391-.3,1.056,1.056,0,0,0,.127-.551V42.357a1.281,1.281,0,0,0-.137-.589,1.174,1.174,0,0,0-.382-.438,1.312,1.312,0,0,0-.425-.165,3.8,3.8,0,0,0-.528-.07v-.623l3.094-.208.131.132v1.311h.048q.227-.227.566-.543a4.967,4.967,0,0,1,.641-.514,3.382,3.382,0,0,1,.83-.377,3.619,3.619,0,0,1,1.085-.151,2.352,2.352,0,0,1,1.986.835,3.534,3.534,0,0,1,.646,2.222v4.839a1.094,1.094,0,0,0,.113.534.745.745,0,0,0,.386.316,2.514,2.514,0,0,0,.392.132,2.994,2.994,0,0,0,.458.056Z" style="fill:#fff"/><path id="Fill-5" d="M35.827,44.953a8.453,8.453,0,0,0-.142-1.5,4.72,4.72,0,0,0-.425-1.335,2.606,2.606,0,0,0-.794-.939,2,2,0,0,0-1.2-.354,2.124,2.124,0,0,0-1.243.358,2.644,2.644,0,0,0-.836.981,4.345,4.345,0,0,0-.426,1.311,8.67,8.67,0,0,0-.122,1.424,8.961,8.961,0,0,0,.146,1.674,4.839,4.839,0,0,0,.468,1.373,2.668,2.668,0,0,0,.808.948,2.031,2.031,0,0,0,1.2.344A2.1,2.1,0,0,0,35.137,48.1a6.088,6.088,0,0,0,.69-3.151m1.953-.019a6.142,6.142,0,0,1-.312,1.929,4.586,4.586,0,0,1-.888,1.609,4.131,4.131,0,0,1-1.51,1.123,4.852,4.852,0,0,1-1.927.368,4.351,4.351,0,0,1-1.69-.334,4.264,4.264,0,0,1-1.426-.976,4.679,4.679,0,0,1-.978-1.543,5.467,5.467,0,0,1-.363-2.042,5.075,5.075,0,0,1,1.27-3.566,4.649,4.649,0,0,1,6.554-.071,4.835,4.835,0,0,1,1.27,3.505" style="fill:#fff"/><path id="Fill-7" d="M55,40.981a1.96,1.96,0,0,0-.854.33,1.655,1.655,0,0,0-.665.877q-.472,1.387-.892,2.627T51.655,47.6q-.169.49-.344,1.057T51,49.746h-.8l-2.509-6.856-2.514,6.856h-.776q-.707-2.094-1.382-4.156T41.817,42a1.278,1.278,0,0,0-.575-.7,2.093,2.093,0,0,0-.821-.3v-.623H44.57v.66a3.077,3.077,0,0,0-.675.1q-.363.094-.363.311a.823.823,0,0,0,.033.161q.033.123.08.265.3.988.684,2.208t.986,3.168l2.372-6.688H48.6l2.424,6.595q.406-1.263.807-2.444t.7-2.217q.066-.244.128-.448a1.383,1.383,0,0,0,.061-.4.394.394,0,0,0-.151-.3,1.229,1.229,0,0,0-.368-.217,2.015,2.015,0,0,0-.41-.113,2.161,2.161,0,0,0-.326-.038v-.6H55Z" style="fill:#fff"/><path id="Fill-9" d="M61.777,49.679H57.24v-.623l.462-.043a2.227,2.227,0,0,0,.406-.07.7.7,0,0,0,.4-.3,1.034,1.034,0,0,0,.132-.552V37.312a1.417,1.417,0,0,0-.147-.637,1.231,1.231,0,0,0-.381-.467A1.94,1.94,0,0,0,57.485,36a5.645,5.645,0,0,0-.726-.114v-.6l3.5-.208.131.142V47.981a1.072,1.072,0,0,0,.123.542.781.781,0,0,0,.4.325,2.181,2.181,0,0,0,.41.142,2.967,2.967,0,0,0,.458.066Z" style="fill:#fff"/><path id="Fill-11" d="M71.153,43.943a7.647,7.647,0,0,0-.09-1.128,3.428,3.428,0,0,0-.288-1.007,1.911,1.911,0,0,0-.594-.7,1.616,1.616,0,0,0-.971-.273,2.021,2.021,0,0,0-1.646.823,3.834,3.834,0,0,0-.713,2.29Zm2.085,3.547a4.762,4.762,0,0,1-1.566,1.774,3.94,3.94,0,0,1-2.255.66,4.576,4.576,0,0,1-1.966-.4,3.859,3.859,0,0,1-1.391-1.075,4.569,4.569,0,0,1-.816-1.585,6.69,6.69,0,0,1-.269-1.915,5.651,5.651,0,0,1,.288-1.779,5.021,5.021,0,0,1,.844-1.571,4.092,4.092,0,0,1,1.335-1.08,3.849,3.849,0,0,1,1.787-.41,4.3,4.3,0,0,1,1.746.321,3.109,3.109,0,0,1,1.179.878,3.5,3.5,0,0,1,.645,1.245,5.457,5.457,0,0,1,.213,1.557v.623h-6.16a7.35,7.35,0,0,0,.175,1.664,3.987,3.987,0,0,0,.552,1.314,2.621,2.621,0,0,0,.962.865,2.963,2.963,0,0,0,1.415.317A2.6,2.6,0,0,0,71.4,48.5a3.889,3.889,0,0,0,1.174-1.417Z" style="fill:#fff"/><path id="Fill-13" d="M83.115,47.878V42.434a2.48,2.48,0,0,0-.245-.529,2.354,2.354,0,0,0-.424-.519,2.41,2.41,0,0,0-.64-.392,2.186,2.186,0,0,0-.856-.155,1.946,1.946,0,0,0-1.041.292,2.784,2.784,0,0,0-.843.84,4.323,4.323,0,0,0-.55,1.344,7.5,7.5,0,0,0-.2,1.807,6.337,6.337,0,0,0,.15,1.439,3.791,3.791,0,0,0,.509,1.2,2.609,2.609,0,0,0,.843.849,2.251,2.251,0,0,0,1.219.321,2.2,2.2,0,0,0,1.247-.33,4.05,4.05,0,0,0,.833-.726ZM86.53,49.51l-3.254.208-.142-.132v-.868l-.075-.019a3.857,3.857,0,0,1-1.211.9,3.362,3.362,0,0,1-1.484.349,3.512,3.512,0,0,1-1.531-.354,3.859,3.859,0,0,1-1.285-1,4.921,4.921,0,0,1-.881-1.566,6,6,0,0,1-.325-2.019,5.3,5.3,0,0,1,.348-1.915,5.04,5.04,0,0,1,.961-1.585,4.227,4.227,0,0,1,1.408-1.01,4.09,4.09,0,0,1,1.7-.377,4.99,4.99,0,0,1,1.276.165,4.58,4.58,0,0,1,1.079.42V37.465a1.907,1.907,0,0,0-.132-.723,1.1,1.1,0,0,0-.368-.5,1.842,1.842,0,0,0-.712-.26,9.368,9.368,0,0,0-.967-.118v-.585l3.811-.208.142.141V47.756a1.149,1.149,0,0,0,.127.561,1.108,1.108,0,0,0,.372.391,1.166,1.166,0,0,0,.519.141q.34.028.623.038Z" style="fill:#fff"/><path id="Fill-15" d="M94.887,43.2a3.073,3.073,0,0,0-.448-1.76,1.438,1.438,0,0,0-1.259-.655,1.481,1.481,0,0,0-.759.184,1.423,1.423,0,0,0-.515.524,2.213,2.213,0,0,0-.268.75,5.008,5.008,0,0,0-.08.9,2.935,2.935,0,0,0,.458,1.707,1.385,1.385,0,0,0,1.184.66,1.415,1.415,0,0,0,1.25-.655,2.917,2.917,0,0,0,.438-1.656M96.7,51a1.45,1.45,0,0,0-.245-.868,1.247,1.247,0,0,0-.745-.462q-.264-.037-1.085-.085t-1.905-.047a2.608,2.608,0,0,0-1.448.665,1.71,1.71,0,0,0-.429,1.2,1.467,1.467,0,0,0,.142.632,1.488,1.488,0,0,0,.49.557,2.7,2.7,0,0,0,.886.4,5.1,5.1,0,0,0,1.359.156,3.889,3.889,0,0,0,2.184-.533A1.814,1.814,0,0,0,96.7,51m.737-2.283a2.768,2.768,0,0,1,.594.811,2.593,2.593,0,0,1,.216,1.123,2.751,2.751,0,0,1-1.179,2.283,4.9,4.9,0,0,1-1.509.689,8.186,8.186,0,0,1-2.17.245,6.365,6.365,0,0,1-3.16-.618,1.978,1.978,0,0,1-1.048-1.806,1.787,1.787,0,0,1,.755-1.519,3.4,3.4,0,0,1,1.924-.6v-.132a5.669,5.669,0,0,1-.585-.213,2.242,2.242,0,0,1-.519-.3,1.6,1.6,0,0,1-.4-.467,1.343,1.343,0,0,1-.151-.665,1.394,1.394,0,0,1,.354-.919,2.779,2.779,0,0,1,1.07-.722v-.141a3.647,3.647,0,0,1-1.405-1.09,2.492,2.492,0,0,1-.5-1.542,2.736,2.736,0,0,1,.986-2.17,3.73,3.73,0,0,1,2.523-.849,4.254,4.254,0,0,1,.844.085q.421.085.854.217h3.244v.906H95.991v.056a2.741,2.741,0,0,1,.518.9,2.924,2.924,0,0,1,.17.962,2.63,2.63,0,0,1-1,2.076,3.458,3.458,0,0,1-2.315.849H92.227a1.469,1.469,0,0,0-.453.273.664.664,0,0,0-.236.538.688.688,0,0,0,.2.533,1.032,1.032,0,0,0,.48.25,3,3,0,0,0,.637.095c.243.012.492.022.75.028q.415.01,1.137.057t1.023.056a2.468,2.468,0,0,1,.873.208,2.815,2.815,0,0,1,.8.519" style="fill:#fff"/><path id="Fill-17" d="M107.508,43.943a7.647,7.647,0,0,0-.09-1.128,3.428,3.428,0,0,0-.288-1.007,1.911,1.911,0,0,0-.594-.7,1.616,1.616,0,0,0-.971-.273,2.021,2.021,0,0,0-1.646.823,3.833,3.833,0,0,0-.713,2.29Zm2.085,3.547a4.762,4.762,0,0,1-1.566,1.774,3.94,3.94,0,0,1-2.255.66,4.576,4.576,0,0,1-1.966-.4,3.859,3.859,0,0,1-1.391-1.075,4.569,4.569,0,0,1-.816-1.585,6.69,6.69,0,0,1-.269-1.915,5.651,5.651,0,0,1,.288-1.779,5.021,5.021,0,0,1,.844-1.571,4.092,4.092,0,0,1,1.335-1.08,3.849,3.849,0,0,1,1.787-.41,4.3,4.3,0,0,1,1.746.321,3.109,3.109,0,0,1,1.179.878,3.5,3.5,0,0,1,.645,1.245,5.457,5.457,0,0,1,.213,1.557v.623h-6.16a7.35,7.35,0,0,0,.175,1.664,3.987,3.987,0,0,0,.552,1.314,2.621,2.621,0,0,0,.962.865,2.963,2.963,0,0,0,1.415.317,2.6,2.6,0,0,0,1.448-.394,3.889,3.889,0,0,0,1.174-1.417Z" style="fill:#fff"/><path id="Fill-19" d="M135.741,49.679h-5.914v-.67q.32-.009.826-.066a2.09,2.09,0,0,0,.693-.161,1.217,1.217,0,0,0,.429-.411,1.118,1.118,0,0,0,.137-.58V38.057h-.142l-4.565,11.406h-.473l-4.348-11.642h-.122v7.991a8.007,8.007,0,0,0,.146,1.765,1.637,1.637,0,0,0,.448.868,2.188,2.188,0,0,0,.858.378,5.137,5.137,0,0,0,.85.188v.67h-5.406v-.67a6.861,6.861,0,0,0,.892-.142,1.714,1.714,0,0,0,.721-.311,1.382,1.382,0,0,0,.453-.811,9.449,9.449,0,0,0,.123-1.831V39.066a2.817,2.817,0,0,0-.141-.972,1.521,1.521,0,0,0-.406-.613,1.86,1.86,0,0,0-.717-.378,3.606,3.606,0,0,0-.84-.142v-.669h4.564l3.834,10.048,3.274-8.406a8.358,8.358,0,0,0,.306-.968,4.516,4.516,0,0,0,.137-.675h4.365v.669a4.811,4.811,0,0,0-.674.085,4.4,4.4,0,0,0-.6.141.689.689,0,0,0-.434.378,1.44,1.44,0,0,0-.113.576v9.651a1.231,1.231,0,0,0,.113.557.959.959,0,0,0,.434.4,2.183,2.183,0,0,0,.6.174,4.967,4.967,0,0,0,.689.09Z" style="fill:#fff"/><path id="Fill-21" d="M144.844,44.528q-.8.236-1.406.464a5.65,5.65,0,0,0-1.122.567,2.555,2.555,0,0,0-.745.761,1.932,1.932,0,0,0-.273,1.045,1.475,1.475,0,0,0,.41,1.153,1.5,1.5,0,0,0,1.042.369,2.138,2.138,0,0,0,1.179-.326,3.424,3.424,0,0,0,.858-.771Zm3.292,4.981q-.444.161-.779.259a2.661,2.661,0,0,1-.759.1,1.847,1.847,0,0,1-1.174-.344,1.588,1.588,0,0,1-.562-1h-.056a4.6,4.6,0,0,1-1.316,1.037,3.685,3.685,0,0,1-1.693.359,2.4,2.4,0,0,1-1.722-.642,2.212,2.212,0,0,1-.674-1.679,2.863,2.863,0,0,1,.151-.962,2.312,2.312,0,0,1,.453-.764,2.267,2.267,0,0,1,.623-.5,5.429,5.429,0,0,1,.726-.354q.425-.161,1.722-.595a12.815,12.815,0,0,0,1.75-.679V42.8a3.849,3.849,0,0,0-.052-.472,1.963,1.963,0,0,0-.221-.66,1.883,1.883,0,0,0-.533-.608,1.6,1.6,0,0,0-.976-.259,2.194,2.194,0,0,0-.806.146,1.461,1.461,0,0,0-.523.307,2.564,2.564,0,0,0,.089.556,2.874,2.874,0,0,1,.09.679.81.81,0,0,1-.3.6,1.171,1.171,0,0,1-.825.274.771.771,0,0,1-.693-.335,1.323,1.323,0,0,1,.085-1.58,3.069,3.069,0,0,1,.8-.707,4.355,4.355,0,0,1,1.028-.448,4.044,4.044,0,0,1,1.179-.184,7.72,7.72,0,0,1,1.382.108,2.539,2.539,0,0,1,1.071.467,2.176,2.176,0,0,1,.731.948,4.054,4.054,0,0,1,.25,1.543q0,1.35-.028,2.391t-.028,2.278a1.151,1.151,0,0,0,.127.585,1.025,1.025,0,0,0,.391.368.958.958,0,0,0,.448.094q.307.01.628.009Z" style="fill:#fff"/><path id="Fill-23" d="M161.361,49.679h-4.547v-.623c.145-.012.3-.025.477-.038a1.78,1.78,0,0,0,.429-.075.681.681,0,0,0,.392-.3,1.065,1.065,0,0,0,.127-.552V43.311a2.255,2.255,0,0,0-.468-1.528,1.456,1.456,0,0,0-1.139-.538,2.588,2.588,0,0,0-.917.156,3.242,3.242,0,0,0-.738.382,2.1,2.1,0,0,0-.5.467,4.427,4.427,0,0,0-.269.4V48a.964.964,0,0,0,.133.529.844.844,0,0,0,.4.321,1.852,1.852,0,0,0,.429.142,3.772,3.772,0,0,0,.476.066v.623h-4.556v-.623l.448-.038a1.714,1.714,0,0,0,.4-.075.681.681,0,0,0,.391-.3,1.056,1.056,0,0,0,.127-.551V42.357a1.281,1.281,0,0,0-.137-.589,1.174,1.174,0,0,0-.382-.438,1.312,1.312,0,0,0-.424-.165,3.8,3.8,0,0,0-.528-.07v-.623l3.094-.208.131.132v1.311h.048q.227-.227.566-.543a4.968,4.968,0,0,1,.641-.514,3.382,3.382,0,0,1,.83-.377,3.619,3.619,0,0,1,1.085-.151,2.352,2.352,0,0,1,1.986.835,3.534,3.534,0,0,1,.646,2.222v4.839a1.094,1.094,0,0,0,.113.534.745.745,0,0,0,.386.316A2.513,2.513,0,0,0,160.9,49a2.994,2.994,0,0,0,.458.056Z" style="fill:#fff"/><path id="Fill-25" d="M170.049,44.528q-.8.236-1.406.464a5.651,5.651,0,0,0-1.122.567,2.555,2.555,0,0,0-.745.761,1.932,1.932,0,0,0-.273,1.045,1.475,1.475,0,0,0,.41,1.153,1.5,1.5,0,0,0,1.042.369,2.138,2.138,0,0,0,1.179-.326,3.425,3.425,0,0,0,.858-.771Zm3.292,4.981q-.444.161-.779.259a2.661,2.661,0,0,1-.759.1,1.847,1.847,0,0,1-1.174-.344,1.588,1.588,0,0,1-.562-1h-.056a4.6,4.6,0,0,1-1.316,1.037,3.685,3.685,0,0,1-1.693.359,2.4,2.4,0,0,1-1.722-.642,2.212,2.212,0,0,1-.674-1.679,2.863,2.863,0,0,1,.151-.962,2.312,2.312,0,0,1,.453-.764,2.267,2.267,0,0,1,.623-.5,5.429,5.429,0,0,1,.726-.354q.425-.161,1.722-.595a12.815,12.815,0,0,0,1.75-.679V42.8a3.847,3.847,0,0,0-.052-.472,1.964,1.964,0,0,0-.221-.66,1.883,1.883,0,0,0-.533-.608,1.6,1.6,0,0,0-.976-.259,2.194,2.194,0,0,0-.806.146,1.461,1.461,0,0,0-.523.307,2.564,2.564,0,0,0,.089.556,2.874,2.874,0,0,1,.09.679.81.81,0,0,1-.3.6,1.171,1.171,0,0,1-.825.274.772.772,0,0,1-.693-.335,1.323,1.323,0,0,1,.085-1.58,3.069,3.069,0,0,1,.8-.707,4.355,4.355,0,0,1,1.028-.448,4.044,4.044,0,0,1,1.179-.184,7.72,7.72,0,0,1,1.382.108,2.539,2.539,0,0,1,1.071.467,2.176,2.176,0,0,1,.731.948,4.054,4.054,0,0,1,.25,1.543q0,1.35-.028,2.391t-.028,2.278a1.151,1.151,0,0,0,.127.585,1.025,1.025,0,0,0,.391.368.958.958,0,0,0,.448.094q.307.01.628.009Z" style="fill:#fff"/><path id="Fill-27" d="M181.717,43.2a3.073,3.073,0,0,0-.448-1.76,1.438,1.438,0,0,0-1.259-.655,1.481,1.481,0,0,0-.759.184,1.423,1.423,0,0,0-.515.524,2.213,2.213,0,0,0-.268.75,5.008,5.008,0,0,0-.08.9,2.935,2.935,0,0,0,.458,1.707,1.385,1.385,0,0,0,1.184.66,1.415,1.415,0,0,0,1.25-.655,2.917,2.917,0,0,0,.438-1.656m1.811,7.8a1.45,1.45,0,0,0-.245-.868,1.247,1.247,0,0,0-.745-.462q-.264-.037-1.085-.085t-1.905-.047a2.608,2.608,0,0,0-1.448.665,1.71,1.71,0,0,0-.429,1.2,1.467,1.467,0,0,0,.142.632,1.488,1.488,0,0,0,.49.557,2.7,2.7,0,0,0,.886.4,5.1,5.1,0,0,0,1.359.156,3.889,3.889,0,0,0,2.184-.533,1.814,1.814,0,0,0,.8-1.618m.737-2.283a2.768,2.768,0,0,1,.594.811,2.593,2.593,0,0,1,.216,1.123,2.751,2.751,0,0,1-1.179,2.283,4.9,4.9,0,0,1-1.509.689,8.186,8.186,0,0,1-2.17.245,6.365,6.365,0,0,1-3.16-.618,1.978,1.978,0,0,1-1.048-1.806,1.787,1.787,0,0,1,.755-1.519,3.4,3.4,0,0,1,1.924-.6v-.132a5.669,5.669,0,0,1-.585-.213,2.242,2.242,0,0,1-.519-.3,1.6,1.6,0,0,1-.4-.467,1.343,1.343,0,0,1-.151-.665,1.394,1.394,0,0,1,.354-.919,2.779,2.779,0,0,1,1.07-.722v-.141a3.647,3.647,0,0,1-1.405-1.09,2.492,2.492,0,0,1-.5-1.542,2.736,2.736,0,0,1,.986-2.17,3.73,3.73,0,0,1,2.523-.849,4.254,4.254,0,0,1,.844.085q.421.085.854.217h3.244v.906h-2.188v.056a2.741,2.741,0,0,1,.518.9,2.924,2.924,0,0,1,.17.962,2.63,2.63,0,0,1-1,2.076,3.458,3.458,0,0,1-2.315.849h-1.141a1.469,1.469,0,0,0-.453.273.664.664,0,0,0-.236.538.688.688,0,0,0,.2.533,1.032,1.032,0,0,0,.48.25,3,3,0,0,0,.637.095c.243.012.492.022.75.028q.415.01,1.137.057t1.023.056a2.468,2.468,0,0,1,.873.208,2.815,2.815,0,0,1,.8.519" style="fill:#fff"/><path id="Fill-29" d="M194.339,43.943a7.647,7.647,0,0,0-.09-1.128,3.428,3.428,0,0,0-.288-1.007,1.911,1.911,0,0,0-.594-.7,1.616,1.616,0,0,0-.971-.273,2.021,2.021,0,0,0-1.646.823,3.833,3.833,0,0,0-.713,2.29Zm2.085,3.547a4.762,4.762,0,0,1-1.566,1.774,3.94,3.94,0,0,1-2.255.66,4.576,4.576,0,0,1-1.966-.4,3.859,3.859,0,0,1-1.391-1.075,4.569,4.569,0,0,1-.816-1.585,6.69,6.69,0,0,1-.269-1.915,5.651,5.651,0,0,1,.288-1.779,5.021,5.021,0,0,1,.844-1.571,4.092,4.092,0,0,1,1.335-1.08,3.849,3.849,0,0,1,1.787-.41,4.3,4.3,0,0,1,1.746.321,3.109,3.109,0,0,1,1.179.878,3.5,3.5,0,0,1,.645,1.245,5.457,5.457,0,0,1,.212,1.557v.623h-6.16a7.35,7.35,0,0,0,.175,1.664,3.987,3.987,0,0,0,.552,1.314,2.621,2.621,0,0,0,.962.865,2.963,2.963,0,0,0,1.415.317,2.6,2.6,0,0,0,1.448-.394,3.889,3.889,0,0,0,1.174-1.417Z" style="fill:#fff"/><path id="Fill-31" d="M215.44,49.679h-4.528v-.623l.439-.038a1.683,1.683,0,0,0,.391-.075.682.682,0,0,0,.392-.3,1.065,1.065,0,0,0,.127-.552v-4.8a2.293,2.293,0,0,0-.448-1.514,1.4,1.4,0,0,0-1.118-.533,2.609,2.609,0,0,0-.868.142,2.725,2.725,0,0,0-.745.4,2.357,2.357,0,0,0-.458.448,4.186,4.186,0,0,0-.278.4V48a1.148,1.148,0,0,0,.113.542.734.734,0,0,0,.387.325,2.977,2.977,0,0,0,.391.127,2.73,2.73,0,0,0,.458.061v.623h-4.433v-.623l.42-.038a1.665,1.665,0,0,0,.372-.075.681.681,0,0,0,.391-.3,1.06,1.06,0,0,0,.127-.552v-4.8a2.285,2.285,0,0,0-.449-1.514,1.406,1.406,0,0,0-1.12-.533,2.552,2.552,0,0,0-.87.146,2.848,2.848,0,0,0-.747.4,2.245,2.245,0,0,0-.463.467l-.284.392v5.33a1.017,1.017,0,0,0,.132.538.827.827,0,0,0,.4.33,1.916,1.916,0,0,0,.406.142,3.066,3.066,0,0,0,.462.066v.623h-4.519v-.623l.449-.038a1.715,1.715,0,0,0,.4-.075.683.683,0,0,0,.391-.3,1.061,1.061,0,0,0,.127-.551V42.32a1.077,1.077,0,0,0-.137-.542,1.251,1.251,0,0,0-.382-.41,1.6,1.6,0,0,0-.443-.184,2.837,2.837,0,0,0-.547-.09v-.623l3.113-.208.132.132v1.33h.066q.236-.236.576-.557a5.2,5.2,0,0,1,.632-.519,3.016,3.016,0,0,1,.826-.377,3.657,3.657,0,0,1,1.071-.151,2.532,2.532,0,0,1,1.556.486,2.777,2.777,0,0,1,.934,1.175q.339-.331.6-.581a4.969,4.969,0,0,1,.683-.533,3.113,3.113,0,0,1,.843-.4,3.618,3.618,0,0,1,1.078-.151,2.368,2.368,0,0,1,1.864.773,3.5,3.5,0,0,1,.688,2.377V48a1.142,1.142,0,0,0,.113.542.731.731,0,0,0,.386.325,2.464,2.464,0,0,0,.429.127,3.712,3.712,0,0,0,.476.061Z" style="fill:#fff"/><path id="Fill-33" d="M224.751,43.943a7.647,7.647,0,0,0-.09-1.128,3.428,3.428,0,0,0-.288-1.007,1.911,1.911,0,0,0-.594-.7,1.616,1.616,0,0,0-.971-.273,2.021,2.021,0,0,0-1.646.823,3.833,3.833,0,0,0-.713,2.29Zm2.085,3.547a4.762,4.762,0,0,1-1.566,1.774,3.94,3.94,0,0,1-2.255.66,4.576,4.576,0,0,1-1.966-.4,3.859,3.859,0,0,1-1.391-1.075,4.569,4.569,0,0,1-.816-1.585,6.69,6.69,0,0,1-.269-1.915,5.651,5.651,0,0,1,.288-1.779A5.021,5.021,0,0,1,219.7,41.6a4.092,4.092,0,0,1,1.335-1.08,3.849,3.849,0,0,1,1.787-.41,4.3,4.3,0,0,1,1.746.321,3.109,3.109,0,0,1,1.179.878,3.5,3.5,0,0,1,.645,1.245,5.457,5.457,0,0,1,.212,1.557v.623h-6.16a7.35,7.35,0,0,0,.175,1.664,3.987,3.987,0,0,0,.552,1.314,2.621,2.621,0,0,0,.962.865,2.963,2.963,0,0,0,1.415.317A2.6,2.6,0,0,0,225,48.5a3.889,3.889,0,0,0,1.174-1.417Z" style="fill:#fff"/><path id="Fill-35" d="M240.212,49.679h-4.547v-.623c.145-.012.3-.025.477-.038a1.78,1.78,0,0,0,.429-.075.681.681,0,0,0,.392-.3,1.064,1.064,0,0,0,.127-.552V43.311a2.255,2.255,0,0,0-.468-1.528,1.456,1.456,0,0,0-1.139-.538,2.588,2.588,0,0,0-.917.156,3.243,3.243,0,0,0-.738.382,2.1,2.1,0,0,0-.5.467,4.427,4.427,0,0,0-.269.4V48a.964.964,0,0,0,.133.529.844.844,0,0,0,.4.321,1.852,1.852,0,0,0,.429.142,3.771,3.771,0,0,0,.476.066v.623h-4.556v-.623l.448-.038a1.714,1.714,0,0,0,.4-.075.681.681,0,0,0,.391-.3,1.056,1.056,0,0,0,.127-.551V42.357a1.281,1.281,0,0,0-.137-.589,1.174,1.174,0,0,0-.382-.438,1.312,1.312,0,0,0-.424-.165,3.8,3.8,0,0,0-.528-.07v-.623l3.094-.208.131.132v1.311h.048q.227-.227.566-.543a4.968,4.968,0,0,1,.641-.514,3.382,3.382,0,0,1,.83-.377,3.619,3.619,0,0,1,1.085-.151,2.352,2.352,0,0,1,1.986.835,3.534,3.534,0,0,1,.646,2.222v4.839a1.094,1.094,0,0,0,.113.534.745.745,0,0,0,.386.316,2.513,2.513,0,0,0,.392.132,2.994,2.994,0,0,0,.458.056Z" style="fill:#fff"/><path id="Fill-37" d="M249.126,49.274q-.614.255-1.161.429a4.446,4.446,0,0,1-1.339.175,2.008,2.008,0,0,1-1.646-.59,2.586,2.586,0,0,1-.477-1.665v-6.3h-1.679v-.906h1.716v-2.9h1.717v2.9h2.669v.906h-2.651v5.2a9.319,9.319,0,0,0,.043.976,1.816,1.816,0,0,0,.2.684.968.968,0,0,0,.453.415,1.935,1.935,0,0,0,.811.141q.236,0,.693-.043a3.05,3.05,0,0,0,.646-.108Z" style="fill:#fff"/><path id="Fill-40" d="M14.682,18.745a4.445,4.445,0,0,0-1.37-3.355A5.434,5.434,0,0,0,9.4,14.077q-1.037,0-1.75.024t-1.069.041v8.1a1.7,1.7,0,0,0,.826,1.54,4.319,4.319,0,0,0,2.3.519,4.738,4.738,0,0,0,3.695-1.41,5.98,5.98,0,0,0,1.28-4.149M12.432,11.4a4.013,4.013,0,0,0,.833-1.526A7.283,7.283,0,0,0,13.5,7.909a4.129,4.129,0,0,0-1.035-2.98A4.346,4.346,0,0,0,9.2,3.85q-.518,0-1.3.024l-1.317.04v8.85H8.633a6.717,6.717,0,0,0,2.272-.341A3.535,3.535,0,0,0,12.432,11.4m3.919,3.471a5.625,5.625,0,0,1,1.669,1.783,5.087,5.087,0,0,1,.665,2.674,5.4,5.4,0,0,1-.7,2.788,6.021,6.021,0,0,1-1.815,1.944A8.319,8.319,0,0,1,13.718,25.2a10.307,10.307,0,0,1-2.828.389H0V24.433Q.389,24.4,1.135,24.3A4.338,4.338,0,0,0,2.2,24.045a1.466,1.466,0,0,0,.713-.608,2.016,2.016,0,0,0,.211-.981V5.924a2.4,2.4,0,0,0-.186-.972,1.415,1.415,0,0,0-.738-.68A4.583,4.583,0,0,0,1.118,3.9a7.966,7.966,0,0,0-1-.162V2.586H10.728a11.154,11.154,0,0,1,2.357.243,6.977,6.977,0,0,1,2.147.859A4.656,4.656,0,0,1,16.8,5.228a4.337,4.337,0,0,1,.616,2.366,5.105,5.105,0,0,1-.437,2.163,4.723,4.723,0,0,1-1.232,1.629,7.128,7.128,0,0,1-1.709,1.094,9.988,9.988,0,0,1-2.082.689v.146a12.275,12.275,0,0,1,2.212.494,7.657,7.657,0,0,1,2.179,1.062" style="fill:#91132A"/><path id="Fill-43" d="M33.561,11.662a2.685,2.685,0,0,1-.4,1.466,1.373,1.373,0,0,1-1.248.64,1.9,1.9,0,0,1-1.386-.47,1.43,1.43,0,0,1-.478-1.037,3.383,3.383,0,0,1,.057-.648q.056-.291.106-.583a3.592,3.592,0,0,0-1.783.616A5.274,5.274,0,0,0,26.69,13.4v9.3a1.742,1.742,0,0,0,.219.924,1.321,1.321,0,0,0,.689.535,4.335,4.335,0,0,0,1.045.243q.64.082,1.111.113v1.07H21.326v-1.07l.769-.064a2.928,2.928,0,0,0,.689-.129,1.166,1.166,0,0,0,.673-.51,1.823,1.823,0,0,0,.219-.947V13a2.245,2.245,0,0,0-.235-.987,1.968,1.968,0,0,0-.656-.778,2.232,2.232,0,0,0-.729-.283,6.57,6.57,0,0,0-.907-.121V9.766l5.315-.357.226.227v2.253h.081A7.264,7.264,0,0,1,29.007,9.9a4.725,4.725,0,0,1,2.252-.681,2.2,2.2,0,0,1,1.661.664,2.465,2.465,0,0,1,.64,1.783" style="fill:#91132A"/><path id="Fill-45" d="M44.4,16.735q-1.378.406-2.415.8a9.79,9.79,0,0,0-1.928.974,4.389,4.389,0,0,0-1.28,1.308,3.331,3.331,0,0,0-.47,1.795,2.537,2.537,0,0,0,.7,1.982,2.577,2.577,0,0,0,1.79.633,3.675,3.675,0,0,0,2.026-.56A5.9,5.9,0,0,0,44.3,22.339Zm5.655,8.557q-.762.276-1.337.446a4.6,4.6,0,0,1-1.3.17,3.177,3.177,0,0,1-2.017-.592,2.731,2.731,0,0,1-.965-1.726h-.1a7.916,7.916,0,0,1-2.261,1.782,6.335,6.335,0,0,1-2.909.616,4.12,4.12,0,0,1-2.958-1.1A3.8,3.8,0,0,1,35.051,22a4.913,4.913,0,0,1,.259-1.653,3.944,3.944,0,0,1,.778-1.313,3.869,3.869,0,0,1,1.069-.867,9.328,9.328,0,0,1,1.248-.608q.73-.276,2.957-1.022a22.166,22.166,0,0,0,3.006-1.167v-1.6a6.794,6.794,0,0,0-.089-.81,3.4,3.4,0,0,0-.381-1.135,3.225,3.225,0,0,0-.915-1.045,2.741,2.741,0,0,0-1.677-.446,3.757,3.757,0,0,0-1.385.252,2.506,2.506,0,0,0-.9.526,4.4,4.4,0,0,0,.154.957,4.965,4.965,0,0,1,.154,1.167,1.391,1.391,0,0,1-.511,1.037,2.013,2.013,0,0,1-1.418.47,1.326,1.326,0,0,1-1.191-.576,2.271,2.271,0,0,1,.146-2.714,5.275,5.275,0,0,1,1.369-1.215,7.445,7.445,0,0,1,1.766-.77,6.932,6.932,0,0,1,2.025-.316,13.312,13.312,0,0,1,2.374.186,4.358,4.358,0,0,1,1.839.8,3.736,3.736,0,0,1,1.256,1.629,6.962,6.962,0,0,1,.429,2.649q0,2.319-.049,4.109t-.048,3.914a1.977,1.977,0,0,0,.218,1,1.761,1.761,0,0,0,.672.632,1.636,1.636,0,0,0,.77.162q.527.016,1.078.016Z" style="fill:#91132A"/><path id="Fill-47" d="M69.293,25.584H61.481v-1.07q.373-.032.819-.065a3.06,3.06,0,0,0,.737-.13,1.166,1.166,0,0,0,.673-.51,1.828,1.828,0,0,0,.219-.948V14.644a3.879,3.879,0,0,0-.8-2.626,2.5,2.5,0,0,0-1.958-.923,4.465,4.465,0,0,0-1.576.268,5.589,5.589,0,0,0-1.267.656,3.616,3.616,0,0,0-.852.8,7.371,7.371,0,0,0-.463.689V22.7a1.66,1.66,0,0,0,.227.908,1.457,1.457,0,0,0,.68.551,3.151,3.151,0,0,0,.738.243,6.393,6.393,0,0,0,.818.114v1.07H51.645v-1.07l.77-.065a2.928,2.928,0,0,0,.689-.129,1.164,1.164,0,0,0,.673-.51A1.819,1.819,0,0,0,54,22.863V13a2.2,2.2,0,0,0-.235-1.012,2.014,2.014,0,0,0-.657-.753,2.222,2.222,0,0,0-.729-.283,6.513,6.513,0,0,0-.907-.122V9.766l5.315-.356.226.227v2.252h.081q.389-.389.972-.931a8.459,8.459,0,0,1,1.1-.884,5.8,5.8,0,0,1,1.426-.648,6.227,6.227,0,0,1,1.863-.26A4.044,4.044,0,0,1,65.865,10.6a6.073,6.073,0,0,1,1.11,3.817v8.315a1.872,1.872,0,0,0,.195.916,1.285,1.285,0,0,0,.664.543,4.26,4.26,0,0,0,.673.227,5.191,5.191,0,0,0,.786.1Z" style="fill:#91132A"/><path id="Fill-49" d="M82.888,22.489V13.137a4.185,4.185,0,0,0-.421-.908,4.041,4.041,0,0,0-.728-.891,4.135,4.135,0,0,0-1.1-.673,3.746,3.746,0,0,0-1.472-.268,3.351,3.351,0,0,0-1.787.5,4.791,4.791,0,0,0-1.447,1.443,7.452,7.452,0,0,0-.946,2.31,12.892,12.892,0,0,0-.347,3.1,10.886,10.886,0,0,0,.258,2.472,6.551,6.551,0,0,0,.874,2.066,4.49,4.49,0,0,0,1.447,1.458,3.867,3.867,0,0,0,2.094.551,3.779,3.779,0,0,0,2.143-.567,6.922,6.922,0,0,0,1.432-1.248Zm5.866,2.8-5.59.357-.244-.227V23.931l-.129-.032a6.633,6.633,0,0,1-2.08,1.539,5.784,5.784,0,0,1-2.549.6,6.027,6.027,0,0,1-2.63-.608,6.633,6.633,0,0,1-2.209-1.71,8.459,8.459,0,0,1-1.513-2.691,10.307,10.307,0,0,1-.558-3.468,9.081,9.081,0,0,1,.6-3.291A8.663,8.663,0,0,1,73.5,11.549a7.28,7.28,0,0,1,2.419-1.734,7.026,7.026,0,0,1,2.921-.648,8.56,8.56,0,0,1,2.192.284,7.841,7.841,0,0,1,1.853.721V4.6a3.285,3.285,0,0,0-.227-1.242,1.9,1.9,0,0,0-.632-.853,3.169,3.169,0,0,0-1.224-.446,15.812,15.812,0,0,0-1.661-.2V.852L85.691.495l.244.243V22.279a1.972,1.972,0,0,0,.219.964,1.889,1.889,0,0,0,.64.672,1.993,1.993,0,0,0,.892.243q.583.049,1.069.065Z" style="fill:#91132A"/><path id="Fill-52" d="M102.545,11.662a2.685,2.685,0,0,1-.4,1.466,1.373,1.373,0,0,1-1.248.64,1.9,1.9,0,0,1-1.386-.47,1.43,1.43,0,0,1-.478-1.037,3.383,3.383,0,0,1,.057-.648q.056-.291.106-.583a3.592,3.592,0,0,0-1.783.616,5.274,5.274,0,0,0-1.734,1.75v9.3a1.742,1.742,0,0,0,.219.924,1.321,1.321,0,0,0,.689.535,4.335,4.335,0,0,0,1.045.243q.64.082,1.111.113v1.07H90.31v-1.07l.769-.064a2.928,2.928,0,0,0,.689-.129,1.166,1.166,0,0,0,.673-.51,1.823,1.823,0,0,0,.219-.947V13a2.245,2.245,0,0,0-.235-.987,1.968,1.968,0,0,0-.656-.778,2.232,2.232,0,0,0-.729-.283,6.57,6.57,0,0,0-.907-.121V9.766l5.315-.357.226.227v2.253h.081A7.264,7.264,0,0,1,97.992,9.9a4.725,4.725,0,0,1,2.252-.681,2.2,2.2,0,0,1,1.661.664,2.465,2.465,0,0,1,.64,1.783" style="fill:#91132A"/><path id="Fill-54" d="M109.627,3.1a2.359,2.359,0,0,1-.608,1.613,1.92,1.92,0,0,1-1.5.689,1.893,1.893,0,0,1-1.434-.656,2.141,2.141,0,0,1-.608-1.5,2.231,2.231,0,0,1,.608-1.556,1.884,1.884,0,0,1,1.434-.664,2,2,0,0,1,1.516.623,2.044,2.044,0,0,1,.591,1.451Zm2.025,22.479h-7.713v-1.07l.769-.065a2.938,2.938,0,0,0,.689-.129,1.165,1.165,0,0,0,.672-.51,1.819,1.819,0,0,0,.219-.947V13a1.942,1.942,0,0,0-.235-.947,2.1,2.1,0,0,0-.656-.72,3.01,3.01,0,0,0-.891-.331,6.65,6.65,0,0,0-1.07-.17V9.766l5.639-.356.227.227v13.03a1.841,1.841,0,0,0,.217.94,1.285,1.285,0,0,0,.684.551,5.523,5.523,0,0,0,.692.235,4.232,4.232,0,0,0,.756.121Z" style="fill:#91132A"/><path id="Fill-56" d="M121.019,26.006a6.747,6.747,0,0,1-5.428-2.3,9.2,9.2,0,0,1-1.961-6.175,9.258,9.258,0,0,1,.527-3.152,8.693,8.693,0,0,1,1.531-2.666,7.167,7.167,0,0,1,2.4-1.856,7.068,7.068,0,0,1,3.144-.7,6.127,6.127,0,0,1,3.824,1.126,3.659,3.659,0,0,1,1.475,3.072,2.655,2.655,0,0,1-.389,1.434,1.392,1.392,0,0,1-1.28.624,2.11,2.11,0,0,1-1.483-.485,1.446,1.446,0,0,1-.527-1.082,6.067,6.067,0,0,1,.195-1.494,8.164,8.164,0,0,0,.226-1.123,1.429,1.429,0,0,0-.865-.67,4.331,4.331,0,0,0-1.236-.17,3.423,3.423,0,0,0-1.479.332,3.809,3.809,0,0,0-1.365,1.224,6.545,6.545,0,0,0-.97,2.188,12.751,12.751,0,0,0-.372,3.29,8.382,8.382,0,0,0,1.335,4.919,4.1,4.1,0,0,0,3.5,1.9,4.376,4.376,0,0,0,2.63-.766,7.483,7.483,0,0,0,1.965-2.3l1.036.681a8.377,8.377,0,0,1-2.82,3.031,6.629,6.629,0,0,1-3.613,1.118" style="fill:#91132A"/><path id="Fill-58" d="M145.634,25.584h-4.821l-2.71-3.918q-1.444-2.089-3-4.064l-1.329,1.24v3.792a1.966,1.966,0,0,0,.211.964,1.242,1.242,0,0,0,.681.559,4.482,4.482,0,0,0,.745.243,5.3,5.3,0,0,0,.827.114v1.07h-7.827v-1.07q.37-.032.772-.073a3.648,3.648,0,0,0,.676-.122,1.2,1.2,0,0,0,.676-.51,1.792,1.792,0,0,0,.225-.949V4.273a2.589,2.589,0,0,0-.251-1.127,1.963,1.963,0,0,0-.656-.8A2.169,2.169,0,0,0,128.789,2q-.721-.081-1.159-.113V.852l5.915-.357.227.243V17.645q1.265-1.264,2.732-2.713t2.474-2.584a3.363,3.363,0,0,0,.283-.381.768.768,0,0,0,.154-.382q0-.439-.7-.65a8.336,8.336,0,0,0-1.353-.293V9.6h7.029v1a11.058,11.058,0,0,0-2.406,1.013,10.333,10.333,0,0,0-1.6,1.094q-.389.325-1.1,1.052t-2,1.909q1.329,1.638,2.991,3.925t2.424,3.308a4.2,4.2,0,0,0,1.28,1.248,4.277,4.277,0,0,0,1.653.357Z" style="fill:#91132A"/><path id="Fill-61" d="M165.845,15.116a5.378,5.378,0,0,1,1.077,1.775,6.6,6.6,0,0,1,.349,2.245,6.391,6.391,0,0,1-2.253,5.024,8.167,8.167,0,0,1-5.59,1.978,10.324,10.324,0,0,1-3.08-.479A11.859,11.859,0,0,1,153.69,24.5l-.7,1.184h-1.3l-.227-7.877h1.313a17.321,17.321,0,0,0,.948,2.634,9.185,9.185,0,0,0,1.434,2.2,6.492,6.492,0,0,0,1.969,1.523,5.734,5.734,0,0,0,2.617.567,5.914,5.914,0,0,0,1.953-.292,3.269,3.269,0,0,0,2.123-2.086,5.057,5.057,0,0,0,.251-1.664,4.621,4.621,0,0,0-.778-2.572,4.8,4.8,0,0,0-2.317-1.81q-1.054-.419-2.415-.928t-2.35-.96a7.63,7.63,0,0,1-3.022-2.293,5.953,5.953,0,0,1-1.078-3.7,5.669,5.669,0,0,1,.534-2.446,6.381,6.381,0,0,1,1.524-2.025,6.89,6.89,0,0,1,2.22-1.32,7.568,7.568,0,0,1,2.673-.478,7.822,7.822,0,0,1,2.844.486,13.542,13.542,0,0,1,2.293,1.135l.665-1.1h1.3l.13,7.633h-1.313q-.357-1.312-.8-2.512a8.886,8.886,0,0,0-1.159-2.172,5.319,5.319,0,0,0-1.7-1.5,5,5,0,0,0-2.463-.559,3.761,3.761,0,0,0-2.625.989,3.141,3.141,0,0,0-1.086,2.415,4.161,4.161,0,0,0,.7,2.472,5.1,5.1,0,0,0,2.026,1.613,25.2,25.2,0,0,0,2.326.981q1.142.412,2.212.883a16.534,16.534,0,0,1,1.872.956,7.059,7.059,0,0,1,1.564,1.248" style="fill:#fff"/><path id="Fill-63" d="M180.348,15.813a13.21,13.21,0,0,0-.154-1.939,5.91,5.91,0,0,0-.494-1.729,3.293,3.293,0,0,0-1.02-1.212,2.783,2.783,0,0,0-1.669-.469,3.472,3.472,0,0,0-2.828,1.414,6.583,6.583,0,0,0-1.224,3.935Zm3.581,6.094a8.183,8.183,0,0,1-2.69,3.047,6.772,6.772,0,0,1-3.874,1.134,7.872,7.872,0,0,1-3.378-.681A6.636,6.636,0,0,1,171.6,23.56a7.848,7.848,0,0,1-1.4-2.723,11.5,11.5,0,0,1-.462-3.291,9.686,9.686,0,0,1,.494-3.055,8.613,8.613,0,0,1,1.45-2.7,7.022,7.022,0,0,1,2.293-1.856,6.608,6.608,0,0,1,3.071-.7,7.4,7.4,0,0,1,3,.551,5.34,5.34,0,0,1,2.026,1.508,6.026,6.026,0,0,1,1.11,2.139,9.383,9.383,0,0,1,.365,2.674v1.07H172.958a12.611,12.611,0,0,0,.3,2.86,6.856,6.856,0,0,0,.949,2.258,4.507,4.507,0,0,0,1.652,1.486,5.1,5.1,0,0,0,2.431.544,4.478,4.478,0,0,0,2.487-.676,6.688,6.688,0,0,0,2.018-2.435Z" style="fill:#fff"/><path id="Fill-65" d="M195.257,16.818q-1.378.406-2.415.8a9.789,9.789,0,0,0-1.928.974,4.389,4.389,0,0,0-1.28,1.308,3.331,3.331,0,0,0-.47,1.795,2.537,2.537,0,0,0,.7,1.982,2.577,2.577,0,0,0,1.79.633,3.675,3.675,0,0,0,2.026-.56,5.9,5.9,0,0,0,1.475-1.323Zm5.655,8.557q-.762.276-1.337.446a4.6,4.6,0,0,1-1.3.17,3.177,3.177,0,0,1-2.017-.592,2.731,2.731,0,0,1-.965-1.726h-.1a7.915,7.915,0,0,1-2.261,1.782,6.335,6.335,0,0,1-2.909.616,4.12,4.12,0,0,1-2.958-1.1,3.8,3.8,0,0,1-1.159-2.885,4.912,4.912,0,0,1,.259-1.653,3.944,3.944,0,0,1,.778-1.313,3.869,3.869,0,0,1,1.069-.867,9.329,9.329,0,0,1,1.248-.608q.73-.276,2.957-1.022a22.166,22.166,0,0,0,3.006-1.167v-1.6a6.792,6.792,0,0,0-.089-.81,3.4,3.4,0,0,0-.381-1.135,3.225,3.225,0,0,0-.915-1.045,2.741,2.741,0,0,0-1.677-.446,3.757,3.757,0,0,0-1.385.252,2.507,2.507,0,0,0-.9.526,4.4,4.4,0,0,0,.154.957,4.965,4.965,0,0,1,.154,1.167,1.391,1.391,0,0,1-.511,1.037,2.013,2.013,0,0,1-1.418.47,1.326,1.326,0,0,1-1.191-.576,2.271,2.271,0,0,1,.146-2.714,5.275,5.275,0,0,1,1.369-1.215,7.445,7.445,0,0,1,1.766-.77,6.932,6.932,0,0,1,2.025-.316,13.312,13.312,0,0,1,2.374.186,4.358,4.358,0,0,1,1.839.8,3.736,3.736,0,0,1,1.256,1.629,6.962,6.962,0,0,1,.429,2.649q0,2.319-.049,4.109t-.048,3.914a1.977,1.977,0,0,0,.218,1,1.761,1.761,0,0,0,.672.632,1.636,1.636,0,0,0,.77.162q.527.016,1.078.016Z" style="fill:#fff"/><path id="Fill-67" d="M214.735,11.745a2.685,2.685,0,0,1-.4,1.466,1.373,1.373,0,0,1-1.248.64,1.9,1.9,0,0,1-1.386-.47,1.43,1.43,0,0,1-.478-1.037,3.384,3.384,0,0,1,.057-.648q.056-.291.106-.583a3.592,3.592,0,0,0-1.783.616,5.274,5.274,0,0,0-1.734,1.75v9.3a1.742,1.742,0,0,0,.219.924,1.321,1.321,0,0,0,.689.535,4.336,4.336,0,0,0,1.045.243q.64.082,1.111.113v1.07H202.5V24.6l.769-.064a2.928,2.928,0,0,0,.689-.129,1.166,1.166,0,0,0,.673-.51,1.823,1.823,0,0,0,.219-.947V13.088a2.245,2.245,0,0,0-.235-.987,1.968,1.968,0,0,0-.656-.778,2.232,2.232,0,0,0-.729-.283,6.57,6.57,0,0,0-.907-.121V9.849l5.315-.357.226.227v2.253h.081a7.264,7.264,0,0,1,2.236-1.993,4.726,4.726,0,0,1,2.252-.681,2.2,2.2,0,0,1,1.661.664,2.465,2.465,0,0,1,.64,1.783" style="fill:#fff"/><path id="Fill-69" d="M223.486,26.088a6.747,6.747,0,0,1-5.428-2.3,9.2,9.2,0,0,1-1.961-6.175,9.258,9.258,0,0,1,.527-3.152,8.694,8.694,0,0,1,1.531-2.666,7.167,7.167,0,0,1,2.4-1.856,7.068,7.068,0,0,1,3.144-.7,6.127,6.127,0,0,1,3.824,1.126A3.659,3.659,0,0,1,229,13.431a2.655,2.655,0,0,1-.389,1.434,1.392,1.392,0,0,1-1.28.624A2.11,2.11,0,0,1,225.844,15a1.446,1.446,0,0,1-.527-1.082,6.067,6.067,0,0,1,.195-1.494,8.164,8.164,0,0,0,.226-1.123,1.429,1.429,0,0,0-.865-.67,4.331,4.331,0,0,0-1.236-.17,3.423,3.423,0,0,0-1.479.332,3.809,3.809,0,0,0-1.365,1.224,6.545,6.545,0,0,0-.97,2.188,12.751,12.751,0,0,0-.372,3.29,8.382,8.382,0,0,0,1.335,4.919,4.1,4.1,0,0,0,3.5,1.9,4.376,4.376,0,0,0,2.63-.766,7.483,7.483,0,0,0,1.965-2.3l1.036.681a8.377,8.377,0,0,1-2.82,3.031,6.629,6.629,0,0,1-3.613,1.118" style="fill:#fff"/><path id="Fill-71" d="M248.555,25.667H240.7V24.6q.372-.032.826-.065a3.1,3.1,0,0,0,.746-.13,1.168,1.168,0,0,0,.672-.51,1.828,1.828,0,0,0,.218-.948V14.727a3.879,3.879,0,0,0-.8-2.626,2.5,2.5,0,0,0-1.958-.923,4.482,4.482,0,0,0-1.567.268,5.885,5.885,0,0,0-1.291.656,3.815,3.815,0,0,0-.845.811q-.293.405-.455.68v9.19a1.708,1.708,0,0,0,.218.908,1.406,1.406,0,0,0,.673.551,3.5,3.5,0,0,0,.737.243,5.92,5.92,0,0,0,.835.114v1.07h-7.827V24.6q.37-.032.772-.073a3.648,3.648,0,0,0,.676-.122,1.2,1.2,0,0,0,.676-.51,1.792,1.792,0,0,0,.225-.949V4.324a2.643,2.643,0,0,0-.251-1.1,1.944,1.944,0,0,0-.656-.827,2.336,2.336,0,0,0-1.029-.3Q230.551,2,230.1,1.972V.934l5.915-.357.227.243v11.15h.065q.535-.534.973-.948a7.813,7.813,0,0,1,1.153-.867,6.111,6.111,0,0,1,1.452-.648,6.331,6.331,0,0,1,1.875-.26,4.09,4.09,0,0,1,3.295,1.354,5.854,5.854,0,0,1,1.153,3.9v8.315a1.8,1.8,0,0,0,.2.916,1.335,1.335,0,0,0,.678.543,5.4,5.4,0,0,0,.677.218,4.786,4.786,0,0,0,.792.106Z" style="fill:#fff"/></svg>