<svg id="Layer_1" data-name="Layer 1" xmlns="http://www.w3.org/2000/svg" width="93.839mm" height="14.111mm" viewBox="0 0 266 40"><title>Artboard 1</title><g id="Domus-Executive"><g id="Mapping-v4.2"><g id="Page"><g id="Header"><g id="Page-1"><g id="Group-2"><path id="Fill-1" d="M8.041,17.126A6.629,6.629,0,0,0,14.89,10.5,6.544,6.544,0,0,0,8.041,4.04H4.189V17.126Zm0-16.258C14.005.868,18.4,4.954,18.4,10.5c0,5.629-4.394,9.8-10.358,9.8H.765V.868Z" style="fill:#6f8686"/><path id="Fill-3" d="M37.147,10.583a6.64,6.64,0,1,0-13.269,0,6.64,6.64,0,1,0,13.269,0m3.453,0A10.1,10.1,0,1,1,30.5.468,10.09,10.09,0,0,1,40.6,10.583" style="fill:#6f8686"/><polygon id="Fill-5" points="63.284 20.297 59.832 20.297 59.832 8.468 54.41 17.183 52.327 17.183 46.819 8.354 46.877 20.297 43.424 20.297 43.424 0.868 45.878 0.868 53.354 12.954 60.83 0.868 63.284 0.868 63.284 20.297" style="fill:#6f8686"/><path id="Fill-7" d="M83.572,11.669c0,5.572-3.453,9.057-8.589,9.057s-8.589-3.485-8.589-9.057V.868h3.425v10.8c0,3.457,2.054,5.857,5.165,5.857,3.082,0,5.165-2.4,5.165-5.857V.868h3.425Z" style="fill:#6f8686"/><path id="Fill-9" d="M101.634,6.611h-3.4c-.314-1.943-1.6-3.229-4.252-3.229-2.34,0-3.852,1.058-3.852,2.829,0,1.486,1.113,2.2,3.139,2.6l2.454.485c3.709.743,5.821,2.229,5.821,5.343,0,3.629-3,6.058-7.505,6.058-4.765,0-7.99-2.572-8.332-6.743h3.4c.342,2.286,2.226,3.714,5.136,3.714,2.369,0,3.8-1,3.8-2.629,0-1.029-.657-2.029-2.853-2.4l-3.2-.629C88.223,11.3,86.511,9.383,86.511,6.5c0-3.629,2.882-6.057,7.248-6.057,3.424,0,7.419,1.486,7.876,6.171" style="fill:#6f8686"/><polygon id="Fill-12" points="115.444 9.126 124.975 9.126 124.975 12.297 115.444 12.297 115.444 17.126 126.117 17.126 126.117 20.297 112.02 20.297 112.02 0.868 126.117 0.868 126.117 4.04 115.444 4.04 115.444 9.126" style="fill:#fefefe"/><polygon id="Fill-14" points="136.445 13.268 131.28 20.297 127.285 20.297 134.106 10.697 127.428 0.868 131.623 0.868 136.417 7.954 141.211 0.868 145.406 0.868 138.728 10.697 145.577 20.297 141.582 20.297 136.445 13.268" style="fill:#fefefe"/><polygon id="Fill-16" points="150.997 9.126 160.528 9.126 160.528 12.297 150.997 12.297 150.997 17.126 161.67 17.126 161.67 20.297 147.573 20.297 147.573 0.868 161.67 0.868 161.67 4.04 150.997 4.04 150.997 9.126" style="fill:#fefefe"/><path id="Fill-18" d="M179.447,12.754h3.539A9.321,9.321,0,0,1,173.54,20.7a9.931,9.931,0,0,1-10.1-10.115A9.931,9.931,0,0,1,173.54.468a9.321,9.321,0,0,1,9.445,7.943h-3.539a5.742,5.742,0,0,0-5.907-4.658,6.489,6.489,0,0,0-6.62,6.829,6.489,6.489,0,0,0,6.62,6.829,5.742,5.742,0,0,0,5.907-4.658" style="fill:#fefefe"/><path id="Fill-20" d="M202.789,11.669c0,5.572-3.453,9.057-8.589,9.057s-8.589-3.485-8.589-9.057V.868h3.425v10.8c0,3.457,2.054,5.857,5.165,5.857,3.082,0,5.165-2.4,5.165-5.857V.868h3.425Z" style="fill:#fefefe"/><polygon id="Fill-22" points="214.687 4.04 214.687 20.297 211.263 20.297 211.263 4.04 204.5 4.04 204.5 0.868 221.422 0.868 221.422 4.04 214.687 4.04" style="fill:#fefefe"/><polygon id="Fill-24" points="223.504 20.297 226.928 20.297 226.928 0.868 223.504 0.868 223.504 20.297" style="fill:#fefefe"/><polygon id="Fill-26" points="241.11 20.412 237.943 20.412 229.125 0.868 232.892 0.868 239.512 15.783 246.132 0.868 249.871 0.868 241.11 20.412" style="fill:#fefefe"/><polygon id="Fill-27" points="255.234 9.126 264.765 9.126 264.765 12.297 255.234 12.297 255.234 17.126 265.907 17.126 265.907 20.297 251.81 20.297 251.81 0.868 265.907 0.868 265.907 4.04 255.234 4.04 255.234 9.126" style="fill:#fefefe"/></g><g id="Group"><path id="Fill-28" d="M5.72,34c2,0,3.42-1.027,3.42-2.721,0-1.712-1.422-2.739-3.42-2.739H2.48V34ZM2.48,35.169v4.451H1.2V27.366H5.756c2.735,0,4.662,1.5,4.662,3.911a3.807,3.807,0,0,1-3.4,3.785l3.924,4.56h-1.6L5.522,35.169Z" style="fill:#b2bdd7"/><polygon id="Fill-29" points="15.745 32.934 22.243 32.934 22.243 34.124 15.745 34.124 15.745 38.449 22.962 38.449 22.962 39.621 14.467 39.621 14.467 27.366 22.962 27.366 22.962 28.537 15.745 28.537 15.745 32.934" style="fill:#b2bdd7"/><path id="Fill-30" d="M35.759,30.682H34.5c-.288-1.5-1.368-2.469-3.438-2.469-1.854,0-3.078.9-3.078,2.325,0,1.117.9,1.8,2.52,2.091l1.854.36c2.16.415,3.4,1.442,3.4,3.19,0,2.235-1.818,3.713-4.554,3.713-2.934,0-4.806-1.532-5.094-4.181h1.26c.306,1.91,1.638,3.028,3.888,3.028,1.944,0,3.186-.955,3.186-2.415,0-1.027-.7-1.8-2.3-2.091l-2.124-.415c-2.25-.415-3.384-1.55-3.384-3.208,0-2.109,1.745-3.514,4.356-3.514,2.466,0,4.464,1.171,4.77,3.586" style="fill:#b2bdd7"/><polygon id="Fill-31" points="41.158 32.934 47.656 32.934 47.656 34.124 41.158 34.124 41.158 38.449 48.376 38.449 48.376 39.621 39.881 39.621 39.881 27.366 48.376 27.366 48.376 28.537 41.158 28.537 41.158 32.934" style="fill:#b2bdd7"/><path id="Fill-32" d="M57.555,28.826,54.873,34.88h5.363Zm-3.2,7.226-1.584,3.569H51.4l5.543-12.345h1.224L63.71,39.621H62.342l-1.584-3.569Z" style="fill:#b2bdd7"/><path id="Fill-33" d="M71.828,34c2,0,3.42-1.027,3.42-2.721,0-1.712-1.422-2.739-3.42-2.739h-3.24V34Zm-3.24,1.171v4.451H67.31V27.366h4.554c2.735,0,4.661,1.5,4.661,3.911a3.807,3.807,0,0,1-3.4,3.785l3.924,4.56h-1.6L71.63,35.169Z" style="fill:#b2bdd7"/><path id="Fill-34" d="M90.637,35.313H91.95a5.708,5.708,0,0,1-5.814,4.56,6.38,6.38,0,0,1,0-12.76,5.707,5.707,0,0,1,5.814,4.56H90.637a4.4,4.4,0,0,0-4.5-3.334,5.155,5.155,0,0,0,0,10.309,4.4,4.4,0,0,0,4.5-3.334" style="fill:#b2bdd7"/><polygon id="Fill-35" points="106.134 39.621 104.856 39.621 104.856 34.142 97.458 34.142 97.458 39.621 96.18 39.621 96.18 27.366 97.458 27.366 97.458 32.97 104.856 32.97 104.856 27.366 106.134 27.366 106.134 39.621" style="fill:#b2bdd7"/><path id="Fill-36" d="M123.754,37.26V33.673a3.368,3.368,0,0,0-2.844-1.514,3.308,3.308,0,0,0,0,6.614,3.368,3.368,0,0,0,2.844-1.514ZM125,39.62h-1.242V38.7a4.231,4.231,0,0,1-3.006,1.153,4.389,4.389,0,0,1,0-8.777,4.23,4.23,0,0,1,3.006,1.154v-.938H125Z" style="fill:#b2bdd7"/><path id="Fill-37" d="M137.181,34.827V39.62h-1.242v-4.74a2.432,2.432,0,0,0-2.52-2.721,3.6,3.6,0,0,0-2.862,1.549V39.62h-1.224V31.294h1.224v.992a4.213,4.213,0,0,1,3.078-1.262,3.466,3.466,0,0,1,3.546,3.8" style="fill:#b2bdd7"/><path id="Fill-38" d="M148,37.242V33.673a3.343,3.343,0,0,0-2.844-1.532,3.308,3.308,0,0,0,0,6.614A3.368,3.368,0,0,0,148,37.242Zm1.242,2.379H148V38.7a4.22,4.22,0,0,1-3.006,1.135,4.38,4.38,0,0,1,0-8.758A4.218,4.218,0,0,1,148,32.214V26.825h1.242Z" style="fill:#b2bdd7"/><path id="Fill-39" d="M164.2,34.412c2.088,0,3.474-1.207,3.474-2.992,0-1.73-1.386-2.883-3.474-2.883h-2.934v5.875Zm.054-7.047c2.808,0,4.68,1.622,4.68,4.055,0,2.505-1.926,4.164-4.842,4.164h-2.826v4.037h-1.277V27.366Z" style="fill:#b2bdd7"/><path id="Fill-40" d="M177.12,34c2,0,3.42-1.027,3.42-2.721,0-1.712-1.422-2.739-3.42-2.739h-3.24V34Zm-3.24,1.171v4.451H172.6V27.366h4.554c2.735,0,4.661,1.5,4.661,3.911a3.807,3.807,0,0,1-3.4,3.785l3.924,4.56h-1.6l-3.815-4.451Z" style="fill:#b2bdd7"/><polygon id="Fill-41" points="187.144 32.934 193.642 32.934 193.642 34.124 187.144 34.124 187.144 38.449 194.362 38.449 194.362 39.621 185.867 39.621 185.867 27.366 194.362 27.366 194.362 28.537 187.144 28.537 187.144 32.934" style="fill:#b2bdd7"/><path id="Fill-42" d="M208.509,35.313h1.313a5.708,5.708,0,0,1-5.814,4.56,6.38,6.38,0,0,1,0-12.76,5.707,5.707,0,0,1,5.814,4.56h-1.313a4.4,4.4,0,0,0-4.5-3.334,5.155,5.155,0,0,0,0,10.309,4.4,4.4,0,0,0,4.5-3.334" style="fill:#b2bdd7"/><polygon id="Fill-43" points="214.052 39.62 215.33 39.62 215.33 27.365 214.052 27.365 214.052 39.62" style="fill:#b2bdd7"/><path id="Fill-44" d="M229.064,30.682H227.8c-.288-1.5-1.368-2.469-3.438-2.469-1.854,0-3.078.9-3.078,2.325,0,1.117.9,1.8,2.52,2.091l1.854.36c2.16.415,3.4,1.442,3.4,3.19,0,2.235-1.818,3.713-4.554,3.713-2.934,0-4.806-1.532-5.094-4.181h1.26c.306,1.91,1.638,3.028,3.888,3.028,1.944,0,3.186-.955,3.186-2.415,0-1.027-.7-1.8-2.3-2.091l-2.124-.415c-2.25-.415-3.384-1.55-3.384-3.208,0-2.109,1.745-3.514,4.356-3.514,2.466,0,4.464,1.171,4.77,3.586" style="fill:#b2bdd7"/><polygon id="Fill-45" points="233.185 39.62 234.463 39.62 234.463 27.365 233.185 27.365 233.185 39.62" style="fill:#b2bdd7"/><path id="Fill-46" d="M250.122,33.493a5.086,5.086,0,1,0-5.076,5.19,5.12,5.12,0,0,0,5.076-5.19m1.3,0a6.372,6.372,0,1,1-6.372-6.38,6.365,6.365,0,0,1,6.372,6.38" style="fill:#b2bdd7"/><polygon id="Fill-47" points="265.997 39.621 264.898 39.621 256.907 29.69 256.907 39.621 255.629 39.621 255.629 27.366 256.673 27.366 264.719 37.422 264.719 27.366 265.997 27.366 265.997 39.621" style="fill:#b2bdd7"/></g></g></g></g></g></g></svg>