<svg data-name="Layer 1" xmlns="http://www.w3.org/2000/svg" width="354.667" height="53.333" viewBox="0 0 266 40"><title>Artboard 1</title><path d="M8.041 17.126A6.629 6.629 0 0 0 14.89 10.5a6.544 6.544 0 0 0-6.849-6.46H4.189v13.086zm0-16.258C14.005.868 18.4 4.954 18.4 10.5c0 5.629-4.394 9.8-10.358 9.8H.765V.868zm29.106 9.715a6.64 6.64 0 1 0-13.269 0 6.64 6.64 0 1 0 13.269 0m3.453 0A10.1 10.1 0 1 1 30.5.468a10.09 10.09 0 0 1 10.1 10.115m22.684 9.714h-3.452V8.468l-5.422 8.715h-2.083l-5.508-8.829.058 11.943h-3.453V.868h2.454l7.476 12.086L60.83.868h2.454v19.429zm20.288-8.628c0 5.572-3.453 9.057-8.589 9.057s-8.589-3.485-8.589-9.057V.868h3.425v10.8c0 3.457 2.054 5.857 5.165 5.857 3.082 0 5.165-2.4 5.165-5.857V.868h3.425zm18.062-5.058h-3.4c-.314-1.943-1.6-3.229-4.252-3.229-2.34 0-3.852 1.058-3.852 2.829 0 1.486 1.113 2.2 3.139 2.6l2.454.485c3.709.743 5.821 2.229 5.821 5.343 0 3.629-3 6.058-7.505 6.058-4.765 0-7.99-2.572-8.332-6.743h3.4c.342 2.286 2.226 3.714 5.136 3.714 2.369 0 3.8-1 3.8-2.629 0-1.029-.657-2.029-2.853-2.4l-3.2-.629c-3.767-.71-5.479-2.627-5.479-5.51 0-3.629 2.882-6.057 7.248-6.057 3.424 0 7.419 1.486 7.876 6.171" fill="#6f8686"/><path fill="#fefefe" d="M115.444 9.126h9.531v3.171h-9.531v4.829h10.673v3.171H112.02V.868h14.097V4.04h-10.673v5.086zm21.001 4.142l-5.165 7.029h-3.995l6.821-9.6-6.678-9.829h4.195l4.794 7.086 4.794-7.086h4.195l-6.678 9.829 6.849 9.6h-3.995l-5.137-7.029zm14.552-4.142h9.531v3.171h-9.531v4.829h10.673v3.171h-14.097V.868h14.097V4.04h-10.673v5.086zm28.45 3.628h3.539a9.321 9.321 0 0 1-9.446 7.946 9.931 9.931 0 0 1-10.1-10.115A9.931 9.931 0 0 1 173.54.468a9.321 9.321 0 0 1 9.445 7.943h-3.539a5.742 5.742 0 0 0-5.907-4.658 6.489 6.489 0 0 0-6.62 6.829 6.489 6.489 0 0 0 6.62 6.829 5.742 5.742 0 0 0 5.907-4.658m23.343-1.084c0 5.572-3.453 9.057-8.589 9.057s-8.589-3.485-8.589-9.057V.868h3.425v10.8c0 3.457 2.054 5.857 5.165 5.857 3.082 0 5.165-2.4 5.165-5.857V.868h3.425zm11.898-7.629v16.257h-3.424V4.04H204.5V.868h16.922V4.04h-6.735zm8.817 16.257h3.424V.868h-3.424v19.429zm17.606.115h-3.167L229.125.868h3.767l6.62 14.915 6.62-14.915h3.739l-8.761 19.544zm14.124-11.286h9.531v3.171h-9.531v4.829h10.673v3.171H251.81V.868h14.097V4.04h-10.673v5.086z"/><path d="M5.72 34c2 0 3.42-1.027 3.42-2.721 0-1.712-1.422-2.739-3.42-2.739H2.48V34zm-3.24 1.169v4.451H1.2V27.366h4.556c2.735 0 4.662 1.5 4.662 3.911a3.807 3.807 0 0 1-3.4 3.785l3.924 4.56h-1.6l-3.82-4.453zm13.265-2.235h6.498v1.19h-6.498v4.325h7.217v1.172h-8.495V27.366h8.495v1.171h-7.217v4.397zm20.014-2.252H34.5c-.288-1.5-1.368-2.469-3.438-2.469-1.854 0-3.078.9-3.078 2.325 0 1.117.9 1.8 2.52 2.091l1.854.36c2.16.415 3.4 1.442 3.4 3.19 0 2.235-1.818 3.713-4.554 3.713-2.934 0-4.806-1.532-5.094-4.181h1.26c.306 1.91 1.638 3.028 3.888 3.028 1.944 0 3.186-.955 3.186-2.415 0-1.027-.7-1.8-2.3-2.091l-2.124-.415c-2.25-.415-3.384-1.55-3.384-3.208 0-2.109 1.745-3.514 4.356-3.514 2.466 0 4.464 1.171 4.77 3.586m5.396 2.252h6.498v1.19h-6.498v4.325h7.218v1.172h-8.495V27.366h8.495v1.171h-7.218v4.397zm16.397-4.108l-2.682 6.054h5.363zm-3.2 7.226l-1.584 3.569H51.4l5.543-12.345h1.224l5.543 12.345h-1.368l-1.584-3.569zM71.828 34c2 0 3.42-1.027 3.42-2.721 0-1.712-1.422-2.739-3.42-2.739h-3.24V34zm-3.24 1.171v4.451H67.31V27.366h4.554c2.735 0 4.661 1.5 4.661 3.911a3.807 3.807 0 0 1-3.4 3.785l3.924 4.56h-1.6l-3.819-4.453zm22.049.142h1.313a5.708 5.708 0 0 1-5.814 4.56 6.38 6.38 0 0 1 0-12.76 5.707 5.707 0 0 1 5.814 4.56h-1.313a4.4 4.4 0 0 0-4.5-3.334 5.155 5.155 0 0 0 0 10.309 4.4 4.4 0 0 0 4.5-3.334m15.497 4.307h-1.278v-5.479h-7.398v5.479H96.18V27.366h1.278v5.604h7.398v-5.604h1.278v12.255zm17.62-2.361v-3.587a3.368 3.368 0 0 0-2.844-1.514 3.308 3.308 0 0 0 0 6.614 3.368 3.368 0 0 0 2.844-1.514zM125 39.62h-1.242v-.92a4.231 4.231 0 0 1-3.006 1.153 4.389 4.389 0 0 1 0-8.777 4.23 4.23 0 0 1 3.006 1.154v-.938H125zm12.181-4.793v4.793h-1.242v-4.74a2.432 2.432 0 0 0-2.52-2.721 3.6 3.6 0 0 0-2.862 1.549v5.912h-1.224v-8.326h1.224v.992a4.213 4.213 0 0 1 3.078-1.262 3.466 3.466 0 0 1 3.546 3.8M148 37.242v-3.569a3.343 3.343 0 0 0-2.844-1.532 3.308 3.308 0 0 0 0 6.614A3.368 3.368 0 0 0 148 37.242zm1.242 2.379H148V38.7a4.22 4.22 0 0 1-3.006 1.135 4.38 4.38 0 0 1 0-8.758A4.218 4.218 0 0 1 148 32.214v-5.389h1.242zm14.958-5.209c2.088 0 3.474-1.207 3.474-2.992 0-1.73-1.386-2.883-3.474-2.883h-2.934v5.875zm.054-7.047c2.808 0 4.68 1.622 4.68 4.055 0 2.505-1.926 4.164-4.842 4.164h-2.826v4.037h-1.277V27.366zM177.12 34c2 0 3.42-1.027 3.42-2.721 0-1.712-1.422-2.739-3.42-2.739h-3.24V34zm-3.24 1.171v4.451h-1.28V27.366h4.554c2.735 0 4.661 1.5 4.661 3.911a3.807 3.807 0 0 1-3.4 3.785l3.924 4.56h-1.6l-3.815-4.451zm13.264-2.237h6.498v1.19h-6.498v4.325h7.218v1.172h-8.495V27.366h8.495v1.171h-7.218v4.397zm21.365 2.379h1.313a5.708 5.708 0 0 1-5.814 4.56 6.38 6.38 0 0 1 0-12.76 5.707 5.707 0 0 1 5.814 4.56h-1.313a4.4 4.4 0 0 0-4.5-3.334 5.155 5.155 0 0 0 0 10.309 4.4 4.4 0 0 0 4.5-3.334m5.543 4.306h1.278V27.365h-1.278V39.62zm15.012-8.938H227.8c-.288-1.5-1.368-2.469-3.438-2.469-1.854 0-3.078.9-3.078 2.325 0 1.117.9 1.8 2.52 2.091l1.854.36c2.16.415 3.4 1.442 3.4 3.19 0 2.235-1.818 3.713-4.554 3.713-2.934 0-4.806-1.532-5.094-4.181h1.26c.306 1.91 1.638 3.028 3.888 3.028 1.944 0 3.186-.955 3.186-2.415 0-1.027-.7-1.8-2.3-2.091l-2.124-.415c-2.25-.415-3.384-1.55-3.384-3.208 0-2.109 1.745-3.514 4.356-3.514 2.466 0 4.464 1.171 4.77 3.586m4.123 8.938h1.278V27.365h-1.278V39.62zm16.937-6.127a5.086 5.086 0 1 0-5.076 5.19 5.12 5.12 0 0 0 5.076-5.19m1.3 0a6.372 6.372 0 1 1-6.372-6.38 6.365 6.365 0 0 1 6.372 6.38m14.575 6.128h-1.099l-7.991-9.931v9.931h-1.278V27.366h1.044l8.046 10.056V27.366h1.278v12.255z" fill="#b2bdd7"/></svg>