<svg width="80" height="73" viewBox="0 0 80 73" xmlns="http://www.w3.org/2000/svg" xmlns:xlink="http://www.w3.org/1999/xlink"><svg data-name="Layer 1" width="23" height="23" viewBox="0 0 23 23" id="form-validate"><title>Artboard 1</title><path d="M11.5 0A11.5 11.5 0 1 0 23 11.5 11.5 11.5 0 0 0 11.5 0zm1.071 17.3a1.447 1.447 0 0 1-1.062.377 1.487 1.487 0 0 1-1.079-.37 1.382 1.382 0 0 1-.382-1.042 1.391 1.391 0 0 1 .374-1.054 1.515 1.515 0 0 1 1.087-.357 1.472 1.472 0 0 1 1.067.365 1.39 1.39 0 0 1 .377 1.046 1.39 1.39 0 0 1-.382 1.035zm-.042-3.873H10.5l-.423-8.11h2.872z" fill="#874444"/></svg><svg data-name="Layer 1" width="30" height="30" viewBox="0 0 30 30" id="menu-close" x="23" y="23"><title>Artboard 1</title><g fill="#fff"><path d="M0 27.857L27.858 0 30 2.143 2.143 30z"/><path data-name="Rectangle-4" d="M0 2.143L2.143 0 30 27.857 27.858 30z"/></g></svg><svg data-name="Layer 1" width="27" height="20" viewBox="0 0 27 20" id="menu-open" x="53" y="53"><title>Artboard 1</title><path fill="#fff" d="M0 0h27v3H0z"/><path data-name="Rectangle-4" fill="#fff" d="M0 8.438h27v3H0zM0 16.875h27v3H0z"/></svg></svg>