<?xml version="1.0" encoding="UTF-8"?>
<svg width="25px" height="14px" viewBox="0 0 25 14" version="1.1" xmlns="http://www.w3.org/2000/svg" xmlns:xlink="http://www.w3.org/1999/xlink">
    <g id="Brandrick-Search-V5" stroke="none" stroke-width="1" fill="none" fill-rule="evenodd">
        <g id="Consultantcy-v5" transform="translate(-170.000000, -721.000000)" fill-rule="nonzero" fill="#B61A37">
            <path d="M187.594399,721.000447 C187.362143,721.009034 187.158447,721.162204 187.08028,721.387042 C187.002113,721.61188 187.065269,721.862955 187.239684,722.020744 L192.96833,727.422849 L170.594687,727.422849 L170.54148,727.422849 C170.244274,727.437133 169.986609,727.727873 170.00054,728.033204 C170.014471,728.338506 170.297487,728.603273 170.594687,728.588902 L192.96833,728.588902 L187.239684,733.981897 C187.088175,734.121579 187.020989,734.333856 187.063562,734.538363 C187.106136,734.742871 187.251961,734.908352 187.445832,734.972158 C187.639703,735.035965 187.851989,734.988345 188.002321,734.847327 L194.812848,728.434035 C194.932,728.323481 195,728.166259 195,728.00132 C195,727.836382 194.932,727.679159 194.812848,727.568605 L188.002321,721.155314 C187.891754,721.050105 187.744995,720.994388 187.594399,721.000447 Z" id="Shape"></path>
        </g>
    </g>
</svg>