<svg width="250" height="53" viewBox="0 0 250 53" xmlns="http://www.w3.org/2000/svg"><title>Logo White</title><g fill="none" fill-rule="evenodd"><path d="M13.055 49.68H9.302a40.544 40.544 0 0 0-2.41-3.335 55.965 55.965 0 0 0-2.779-3.213h-.245v4.66c0 .208.04.394.118.557.079.164.222.296.43.397.1.044.287.097.56.16.274.063.502.098.684.104v.67H.104v-.67l.633-.057c.276-.025.47-.063.584-.113a.81.81 0 0 0 .41-.363c.086-.16.128-.354.128-.58v-9.661c0-.214-.036-.4-.108-.557-.073-.157-.216-.286-.43-.386a3.498 3.498 0 0 0-.604-.217 3.277 3.277 0 0 0-.613-.114v-.67H5.66v.67a4.505 4.505 0 0 0-.66.085 4.562 4.562 0 0 0-.585.142c-.214.075-.358.2-.433.377a1.44 1.44 0 0 0-.114.576v4.622h.189a38.817 38.817 0 0 0 1.67-1.495 21.79 21.79 0 0 0 1.49-1.552c.497-.572.86-1.03 1.089-1.373.23-.342.344-.646.344-.91 0-.094-.058-.171-.174-.232a1.872 1.872 0 0 0-.401-.145 3.246 3.246 0 0 0-.471-.071l-.34-.024v-.67h5.018v.67c-.02 0-.06.004-.123.01s-.134.013-.216.019a1.851 1.851 0 0 0-.264.038c-.088.018-.201.04-.34.065-.22.05-.447.13-.683.24a1.84 1.84 0 0 0-.58.411A387.17 387.17 0 0 1 8.05 40.03a34.18 34.18 0 0 1-2.09 2.152 80.596 80.596 0 0 1 2.375 2.792c.626.78 1.292 1.613 1.997 2.499.27.34.539.612.808.816.27.204.501.357.695.458.162.081.366.144.61.188.244.044.448.07.61.076v.67zm12.481 0h-4.548v-.623c.145-.013.305-.026.477-.038a1.78 1.78 0 0 0 .429-.075.68.68 0 0 0 .392-.297c.084-.142.127-.326.127-.552V43.31c0-.66-.156-1.17-.468-1.527-.312-.36-.692-.538-1.14-.538-.334 0-.64.051-.916.155a3.243 3.243 0 0 0-.738.383c-.208.144-.373.3-.497.466a4.71 4.71 0 0 0-.27.401V48c0 .214.045.39.134.529.087.138.22.245.395.32.133.063.276.11.43.142.154.032.312.053.476.066v.622h-4.556v-.622c.145-.013.294-.026.448-.038.155-.012.288-.037.401-.075a.681.681 0 0 0 .392-.297c.085-.141.127-.325.127-.55v-5.74c0-.213-.046-.41-.137-.589a1.174 1.174 0 0 0-.382-.438 1.312 1.312 0 0 0-.424-.165 3.803 3.803 0 0 0-.528-.07v-.623l3.094-.208.13.132v1.312h.048c.152-.151.34-.332.567-.543.226-.21.44-.382.641-.514.232-.15.51-.276.83-.377a3.62 3.62 0 0 1 1.085-.151c.893 0 1.555.278 1.985.835.431.557.646 1.297.646 2.222v4.839c0 .22.038.398.114.533.075.136.204.24.386.316.151.063.282.107.392.132.11.026.262.044.458.057v.622zm10.291-4.727c0-.471-.047-.97-.142-1.495-.094-.525-.236-.97-.425-1.335a2.606 2.606 0 0 0-.794-.939c-.327-.236-.727-.354-1.2-.354-.485 0-.899.12-1.243.359a2.634 2.634 0 0 0-.835.981c-.202.383-.344.82-.426 1.311a8.961 8.961 0 0 0 .024 3.099c.097.513.253.97.467 1.373.214.403.484.719.808.948.325.23.727.344 1.205.344.788 0 1.412-.38 1.87-1.141.461-.76.69-1.811.69-3.15m1.954-.02c0 .654-.104 1.297-.312 1.929-.208.633-.503 1.169-.888 1.61a4.13 4.13 0 0 1-1.51 1.122c-.574.245-1.215.367-1.927.367a4.351 4.351 0 0 1-1.69-.334 4.264 4.264 0 0 1-1.426-.977 4.68 4.68 0 0 1-.977-1.542c-.243-.607-.363-1.288-.363-2.042 0-1.453.423-2.642 1.27-3.567.846-.924 1.956-1.387 3.328-1.387 1.303 0 2.378.439 3.225 1.316.847.878 1.27 2.046 1.27 3.505m17.224-3.953c-.264.025-.548.135-.854.33-.305.196-.526.488-.664.878a1744.878 1744.878 0 0 0-1.83 5.415 33.287 33.287 0 0 0-.66 2.142h-.805l-2.51-6.856-2.513 6.856h-.776a463.157 463.157 0 0 1-1.382-4.156A357.89 357.89 0 0 0 41.817 42a1.278 1.278 0 0 0-.575-.698 2.093 2.093 0 0 0-.82-.302v-.623h4.148v.66a3.076 3.076 0 0 0-.675.105c-.242.063-.363.166-.363.31 0 .026.01.08.033.161a386.672 386.672 0 0 0 .764 2.473c.254.812.582 1.869.985 3.168l2.372-6.688h.913l2.424 6.595c.27-.842.54-1.656.807-2.444.268-.788.502-1.527.704-2.217.044-.163.086-.312.127-.448.041-.135.061-.269.061-.4a.394.394 0 0 0-.15-.303 1.26 1.26 0 0 0-.368-.217 2.014 2.014 0 0 0-.41-.113 2.16 2.16 0 0 0-.326-.038v-.604h3.536v.604zm6.773 8.699H57.24v-.623l.462-.043c.164-.015.299-.039.406-.07a.703.703 0 0 0 .396-.298c.088-.141.132-.325.132-.552V37.312a1.42 1.42 0 0 0-.146-.637 1.23 1.23 0 0 0-.382-.467c-.113-.076-.321-.144-.623-.207a5.644 5.644 0 0 0-.726-.114v-.604l3.5-.208.131.142v12.764c0 .22.041.401.123.543.082.141.214.25.396.325.138.063.276.11.41.142.136.032.288.053.458.066v.622zm9.376-5.736c0-.352-.03-.728-.09-1.129a3.428 3.428 0 0 0-.287-1.007 1.91 1.91 0 0 0-.594-.705c-.252-.182-.576-.273-.972-.273-.66 0-1.209.275-1.646.823-.437.549-.674 1.312-.712 2.29h4.301zm2.085 3.547a4.762 4.762 0 0 1-1.566 1.773c-.654.44-1.405.66-2.254.66-.749 0-1.404-.131-1.967-.396a3.86 3.86 0 0 1-1.391-1.075 4.569 4.569 0 0 1-.816-1.585 6.69 6.69 0 0 1-.27-1.915c0-.604.097-1.196.289-1.778a5.02 5.02 0 0 1 .844-1.571 4.092 4.092 0 0 1 1.335-1.08 3.849 3.849 0 0 1 1.787-.41c.679 0 1.26.106 1.745.32a3.11 3.11 0 0 1 1.18.878c.289.352.504.767.645 1.245.142.478.213.997.213 1.556v.623h-6.16c0 .612.059 1.166.175 1.664.116.498.3.937.551 1.315.246.365.566.654.963.865.396.211.868.317 1.414.317.56 0 1.043-.132 1.448-.394.406-.262.797-.735 1.175-1.418l.66.406zm9.877.387v-5.444a2.48 2.48 0 0 0-.669-1.047 2.186 2.186 0 0 0-1.496-.547c-.377 0-.724.097-1.041.292a2.784 2.784 0 0 0-.843.84c-.232.352-.415.8-.55 1.344a7.496 7.496 0 0 0-.202 1.807c0 .528.05 1.008.15 1.438.1.431.27.832.509 1.203.22.353.5.636.842.85.342.213.749.32 1.22.32.501 0 .917-.11 1.247-.33.33-.22.607-.462.833-.726zm3.415 1.632l-3.255.207-.141-.132v-.868l-.076-.019a3.86 3.86 0 0 1-1.21.897c-.48.233-.975.349-1.484.349a3.512 3.512 0 0 1-1.53-.354 3.86 3.86 0 0 1-1.286-.995 4.921 4.921 0 0 1-.881-1.566 6 6 0 0 1-.325-2.02c0-.672.116-1.311.348-1.914a5.04 5.04 0 0 1 .962-1.585 4.227 4.227 0 0 1 1.407-1.01 4.09 4.09 0 0 1 1.701-.377c.433 0 .858.055 1.276.165.418.11.778.25 1.079.42v-3.243c0-.264-.044-.505-.132-.723a1.1 1.1 0 0 0-.368-.496c-.176-.12-.414-.206-.712-.26a9.368 9.368 0 0 0-.967-.118v-.585l3.81-.208.142.142v12.539c0 .22.043.407.127.56.086.155.21.285.373.392.12.075.293.122.52.141.225.02.433.032.622.038v.623zm8.357-6.312c0-.735-.15-1.322-.448-1.76-.299-.436-.718-.655-1.259-.655-.296 0-.549.061-.76.184-.21.122-.381.297-.514.524a2.213 2.213 0 0 0-.269.75c-.053.292-.08.593-.08.901 0 .698.153 1.267.458 1.707.305.44.7.66 1.184.66.54 0 .957-.217 1.25-.655.292-.437.438-.989.438-1.656M96.697 51c0-.352-.08-.641-.244-.868-.164-.226-.412-.38-.745-.462a16.396 16.396 0 0 0-1.085-.085 33.436 33.436 0 0 0-1.905-.047c-.68.132-1.162.354-1.449.665-.285.312-.429.713-.429 1.203 0 .22.048.431.142.632.094.201.258.387.49.557.22.163.516.297.887.4.371.104.824.156 1.358.156.925 0 1.653-.178 2.184-.533.531-.355.797-.894.797-1.618m.736-2.283c.251.24.45.51.594.811.145.303.217.677.217 1.123a2.8 2.8 0 0 1-.292 1.26c-.195.393-.49.734-.887 1.023a4.898 4.898 0 0 1-1.509.689c-.585.163-1.308.245-2.17.245-1.408 0-2.462-.206-3.16-.618-.698-.412-1.047-1.014-1.047-1.806 0-.641.252-1.148.755-1.52.503-.37 1.144-.572 1.924-.603v-.132a5.67 5.67 0 0 1-.585-.213 2.242 2.242 0 0 1-.518-.297 1.602 1.602 0 0 1-.397-.466c-.1-.18-.15-.401-.15-.666 0-.333.117-.64.354-.92.235-.28.592-.52 1.07-.721v-.141c-.604-.284-1.072-.647-1.405-1.09a2.492 2.492 0 0 1-.5-1.543c0-.88.328-1.604.985-2.17.657-.566 1.499-.849 2.523-.849.283 0 .565.029.844.085.28.057.565.13.854.217h3.245v.906H95.99v.056a2.91 2.91 0 0 1 .688 1.859c0 .818-.331 1.51-.995 2.076a3.458 3.458 0 0 1-2.315.849h-1.142a1.47 1.47 0 0 0-.452.273.664.664 0 0 0-.237.538c0 .233.066.41.199.533.131.122.292.206.48.25.183.05.395.082.637.094.243.013.492.023.75.029.277.006.656.025 1.137.057.481.03.822.05 1.023.056.29.012.58.082.873.208.292.126.558.298.797.518m10.075-4.773c0-.352-.03-.728-.09-1.129a3.428 3.428 0 0 0-.288-1.007 1.91 1.91 0 0 0-.593-.705c-.252-.182-.576-.273-.972-.273-.66 0-1.209.275-1.646.823-.437.549-.674 1.312-.713 2.29h4.302zm2.085 3.547a4.762 4.762 0 0 1-1.566 1.773c-.654.44-1.405.66-2.255.66-.748 0-1.404-.131-1.966-.396a3.86 3.86 0 0 1-1.392-1.075 4.569 4.569 0 0 1-.816-1.585 6.69 6.69 0 0 1-.268-1.915c0-.604.096-1.196.287-1.778a5.02 5.02 0 0 1 .844-1.571 4.092 4.092 0 0 1 1.335-1.08 3.849 3.849 0 0 1 1.787-.41c.68 0 1.262.106 1.746.32a3.11 3.11 0 0 1 1.18.878c.288.352.504.767.645 1.245.142.478.212.997.212 1.556v.623h-6.16c0 .612.06 1.166.175 1.664.117.498.3.937.552 1.315.245.365.566.654.962.865.396.211.868.317 1.415.317.56 0 1.043-.132 1.448-.394.406-.262.797-.735 1.174-1.418l.66.406zm26.148 2.189h-5.914v-.67c.213-.006.489-.029.826-.066.335-.038.567-.091.693-.16.195-.12.338-.257.429-.411.091-.154.137-.348.137-.58v-9.736h-.142l-4.565 11.406h-.473l-4.348-11.642h-.122v7.99c0 .774.049 1.362.146 1.765.097.402.247.692.448.868.139.132.425.258.858.377.435.12.717.183.85.189v.67h-5.406v-.67c.284-.025.58-.073.892-.142.31-.069.552-.172.721-.311.22-.176.371-.447.453-.811.082-.365.123-.975.123-1.83v-6.85c0-.396-.047-.72-.142-.972a1.521 1.521 0 0 0-.405-.613 1.86 1.86 0 0 0-.717-.377 3.606 3.606 0 0 0-.84-.142v-.67h4.564l3.834 10.049 3.274-8.406c.119-.308.22-.63.306-.967.084-.337.13-.562.136-.675h4.365v.67a4.811 4.811 0 0 0-.674.084 4.482 4.482 0 0 0-.599.142c-.214.075-.359.2-.434.377a1.44 1.44 0 0 0-.113.576v9.65c0 .22.037.407.113.557.075.151.22.284.434.397.113.063.314.12.604.174.288.053.518.084.688.09v.67zm9.103-5.152c-.535.158-1.003.313-1.406.464a5.65 5.65 0 0 0-1.122.567 2.555 2.555 0 0 0-.745.761c-.183.293-.274.641-.274 1.045 0 .523.137.908.41 1.154.274.245.621.368 1.042.368.447 0 .84-.108 1.18-.326.34-.217.625-.474.858-.77l.057-3.263zm3.292 4.982c-.296.107-.555.193-.779.259a2.675 2.675 0 0 1-.759.099c-.49 0-.882-.114-1.174-.344-.293-.23-.48-.565-.562-1.005h-.056a4.6 4.6 0 0 1-1.316 1.038c-.468.24-1.032.359-1.693.359-.698 0-1.272-.214-1.722-.642-.449-.428-.674-.987-.674-1.68 0-.358.05-.679.15-.962a2.32 2.32 0 0 1 .454-.764c.157-.189.365-.357.622-.504.258-.148.5-.266.726-.354.284-.107.858-.306 1.722-.595.865-.289 1.448-.516 1.75-.68v-.933c0-.081-.017-.239-.052-.472a1.963 1.963 0 0 0-.222-.66 1.883 1.883 0 0 0-.533-.608c-.229-.173-.554-.26-.976-.26-.29 0-.558.049-.806.146-.25.098-.423.2-.523.307 0 .126.029.311.089.557.06.245.09.471.09.679 0 .22-.1.42-.298.603-.198.183-.473.274-.825.274-.315 0-.545-.111-.694-.335a1.329 1.329 0 0 1-.221-.75c0-.29.102-.566.307-.83.204-.264.47-.5.797-.708a4.355 4.355 0 0 1 1.027-.448 4.044 4.044 0 0 1 1.18-.184c.528 0 .989.036 1.381.109.394.072.75.228 1.071.467.321.233.564.548.731.948.167.4.25.914.25 1.542 0 .9-.01 1.697-.028 2.392a84.756 84.756 0 0 0-.028 2.278c0 .245.042.44.127.585.085.145.215.268.392.368.094.057.243.089.447.095.205.006.414.009.628.009v.604zm13.225.17h-4.547v-.623c.144-.013.304-.026.476-.038a1.78 1.78 0 0 0 .43-.075.68.68 0 0 0 .391-.297c.085-.142.127-.326.127-.552V43.31c0-.66-.156-1.17-.468-1.527-.312-.36-.692-.538-1.139-.538-.334 0-.64.051-.917.155a3.243 3.243 0 0 0-.737.383c-.209.144-.374.3-.497.466a4.48 4.48 0 0 0-.27.401V48c0 .214.044.39.133.529.088.138.22.245.396.32.132.063.275.11.43.142a3.8 3.8 0 0 0 .475.066v.622h-4.555v-.622c.144-.013.293-.026.447-.038.155-.012.288-.037.402-.075a.681.681 0 0 0 .391-.297c.085-.141.127-.325.127-.55v-5.74c0-.213-.045-.41-.136-.589a1.174 1.174 0 0 0-.382-.438 1.312 1.312 0 0 0-.425-.165 3.803 3.803 0 0 0-.528-.07v-.623l3.094-.208.131.132v1.312h.048c.15-.151.34-.332.566-.543.226-.21.44-.382.641-.514.233-.15.51-.276.83-.377a3.62 3.62 0 0 1 1.085-.151c.893 0 1.555.278 1.986.835.43.557.646 1.297.646 2.222v4.839c0 .22.038.398.113.533.075.136.204.24.386.316.152.063.282.107.392.132.11.026.262.044.458.057v.622zm8.689-5.152c-.536.158-1.004.313-1.407.464a5.65 5.65 0 0 0-1.122.567 2.555 2.555 0 0 0-.745.761c-.183.293-.273.641-.273 1.045 0 .523.136.908.41 1.154.273.245.62.368 1.041.368.447 0 .84-.108 1.18-.326.34-.217.625-.474.858-.77l.057-3.263zm3.291 4.982c-.295.107-.555.193-.778.259a2.677 2.677 0 0 1-.76.099c-.49 0-.881-.114-1.174-.344-.292-.23-.48-.565-.561-1.005h-.056a4.6 4.6 0 0 1-1.317 1.038c-.468.24-1.032.359-1.693.359-.698 0-1.272-.214-1.721-.642-.45-.428-.675-.987-.675-1.68 0-.358.05-.679.151-.962.101-.282.252-.538.453-.764.157-.189.365-.357.622-.504.258-.148.5-.266.727-.354a58.09 58.09 0 0 1 1.721-.595c.865-.289 1.448-.516 1.75-.68v-.933c0-.081-.017-.239-.052-.472a1.963 1.963 0 0 0-.222-.66 1.883 1.883 0 0 0-.533-.608c-.229-.173-.554-.26-.976-.26-.29 0-.558.049-.806.146-.249.098-.423.2-.523.307 0 .126.029.311.089.557.06.245.09.471.09.679 0 .22-.1.42-.298.603-.198.183-.473.274-.825.274-.314 0-.545-.111-.693-.335a1.329 1.329 0 0 1-.222-.75c0-.29.102-.566.307-.83.204-.264.47-.5.797-.708a4.355 4.355 0 0 1 1.028-.448 4.044 4.044 0 0 1 1.179-.184c.528 0 .989.036 1.382.109.393.072.75.228 1.07.467.321.233.565.548.732.948.166.4.25.914.25 1.542 0 .9-.01 1.697-.029 2.392a84.76 84.76 0 0 0-.028 2.278c0 .245.042.44.128.585.084.145.215.268.39.368.095.057.245.089.449.095.204.006.413.009.627.009v.604zm8.376-6.312c0-.735-.149-1.322-.448-1.76-.298-.436-.718-.655-1.259-.655a1.48 1.48 0 0 0-.759.184c-.21.122-.382.297-.515.524a2.213 2.213 0 0 0-.268.75 4.95 4.95 0 0 0-.08.901c0 .698.152 1.267.457 1.707.305.44.7.66 1.184.66.541 0 .957-.217 1.25-.655.292-.437.438-.989.438-1.656M183.528 51c0-.352-.082-.641-.244-.868-.164-.226-.413-.38-.746-.462a16.396 16.396 0 0 0-1.085-.085 33.436 33.436 0 0 0-1.905-.047c-.679.132-1.162.354-1.448.665-.286.312-.43.713-.43 1.203 0 .22.048.431.143.632.094.201.257.387.49.557.22.163.515.297.886.4.372.104.824.156 1.359.156.925 0 1.652-.178 2.184-.533.53-.355.796-.894.796-1.618m.737-2.283c.25.24.45.51.594.811.144.303.216.677.216 1.123a2.8 2.8 0 0 1-.292 1.26c-.195.393-.49.734-.887 1.023a4.898 4.898 0 0 1-1.509.689c-.585.163-1.308.245-2.17.245-1.408 0-2.461-.206-3.159-.618-.698-.412-1.048-1.014-1.048-1.806 0-.641.252-1.148.755-1.52.504-.37 1.145-.572 1.925-.603v-.132a5.67 5.67 0 0 1-.585-.213 2.242 2.242 0 0 1-.519-.297 1.602 1.602 0 0 1-.397-.466c-.1-.18-.15-.401-.15-.666 0-.333.118-.64.354-.92.235-.28.592-.52 1.07-.721v-.141c-.603-.284-1.072-.647-1.405-1.09a2.492 2.492 0 0 1-.5-1.543c0-.88.328-1.604.986-2.17.656-.566 1.498-.849 2.523-.849.283 0 .564.029.844.085.28.057.565.13.854.217h3.244v.906h-2.188v.056c.233.27.406.57.518.897.114.327.17.648.17.962 0 .818-.331 1.51-.995 2.076a3.458 3.458 0 0 1-2.315.849h-1.141a1.47 1.47 0 0 0-.453.273.664.664 0 0 0-.236.538c0 .233.066.41.198.533.132.122.292.206.48.25.183.05.396.082.637.094.243.013.493.023.75.029.277.006.656.025 1.137.057.482.03.822.05 1.024.056.289.012.58.082.872.208.293.126.558.298.798.518m10.074-4.773c0-.352-.03-.728-.09-1.129a3.428 3.428 0 0 0-.288-1.007 1.91 1.91 0 0 0-.594-.705c-.251-.182-.575-.273-.971-.273-.66 0-1.21.275-1.646.823-.437.549-.675 1.312-.713 2.29h4.302zm2.085 3.547a4.762 4.762 0 0 1-1.566 1.773c-.654.44-1.405.66-2.255.66-.748 0-1.404-.131-1.966-.396a3.86 3.86 0 0 1-1.392-1.075 4.569 4.569 0 0 1-.816-1.585 6.69 6.69 0 0 1-.269-1.915c0-.604.096-1.196.288-1.778a5.02 5.02 0 0 1 .844-1.571 4.092 4.092 0 0 1 1.335-1.08 3.849 3.849 0 0 1 1.787-.41c.68 0 1.261.106 1.746.32a3.11 3.11 0 0 1 1.18.878c.288.352.504.767.645 1.245.141.478.212.997.212 1.556v.623h-6.16c0 .612.06 1.166.175 1.664.116.498.3.937.552 1.315.245.365.566.654.962.865.396.211.868.317 1.415.317.56 0 1.043-.132 1.448-.394.406-.262.797-.735 1.174-1.418l.66.406zm19.016 2.189h-4.528v-.623l.439-.038c.148-.012.278-.038.391-.075a.682.682 0 0 0 .392-.297c.085-.142.127-.326.127-.552v-4.802c0-.654-.15-1.159-.447-1.514-.3-.356-.672-.533-1.118-.533a2.61 2.61 0 0 0-.868.141c-.27.094-.519.227-.745.397a2.357 2.357 0 0 0-.458.447c-.123.16-.215.295-.278.401V48c0 .22.037.401.113.542.075.142.204.25.387.326.144.057.275.1.39.127.118.029.27.05.459.062v.622h-4.434v-.622l.42-.038c.135-.012.26-.038.373-.075a.681.681 0 0 0 .391-.297c.085-.142.127-.326.127-.552v-4.802c0-.654-.15-1.159-.449-1.514a1.404 1.404 0 0 0-1.12-.533c-.309 0-.599.048-.87.146-.271.097-.52.23-.747.4a2.245 2.245 0 0 0-.463.467l-.284.392v5.33c0 .214.044.394.132.538.088.145.22.255.396.33.132.063.267.11.406.142.138.032.292.053.462.066v.622h-4.519v-.622c.145-.013.295-.026.45-.038.153-.012.287-.037.4-.075a.683.683 0 0 0 .391-.297c.085-.141.127-.325.127-.55V42.32c0-.202-.045-.382-.136-.542a1.251 1.251 0 0 0-.382-.41 1.603 1.603 0 0 0-.444-.184 2.837 2.837 0 0 0-.547-.09v-.622l3.113-.208.132.132v1.33h.066c.157-.156.35-.342.576-.556a5.2 5.2 0 0 1 .631-.519c.22-.15.495-.276.826-.377.33-.1.687-.151 1.07-.151.604 0 1.123.162 1.557.485.434.325.745.716.934 1.176l.598-.581c.173-.167.4-.344.683-.533a3.11 3.11 0 0 1 .842-.396 3.64 3.64 0 0 1 1.079-.151c.784 0 1.406.258 1.864.773.458.517.688 1.309.688 2.378V48c0 .22.037.401.113.542a.73.73 0 0 0 .386.326c.145.057.288.1.43.127.141.029.3.05.476.062v.622zm9.31-5.736a7.64 7.64 0 0 0-.089-1.129 3.428 3.428 0 0 0-.288-1.007 1.91 1.91 0 0 0-.594-.705c-.251-.182-.575-.273-.971-.273-.66 0-1.21.275-1.646.823-.437.549-.675 1.312-.713 2.29h4.302zm2.086 3.547a4.762 4.762 0 0 1-1.566 1.773c-.654.44-1.405.66-2.255.66-.748 0-1.404-.131-1.966-.396a3.86 3.86 0 0 1-1.392-1.075 4.569 4.569 0 0 1-.816-1.585 6.69 6.69 0 0 1-.269-1.915c0-.604.096-1.196.288-1.778a5.02 5.02 0 0 1 .844-1.571 4.092 4.092 0 0 1 1.335-1.08 3.849 3.849 0 0 1 1.787-.41c.68 0 1.261.106 1.746.32a3.11 3.11 0 0 1 1.18.878c.288.352.504.767.645 1.245.141.478.212.997.212 1.556v.623h-6.16c0 .612.06 1.166.175 1.664.116.498.3.937.552 1.315.245.365.566.654.962.865.396.211.868.317 1.415.317.56 0 1.043-.132 1.448-.394.406-.262.797-.735 1.174-1.418l.66.406zm13.376 2.189h-4.547v-.623c.144-.013.304-.026.476-.038a1.78 1.78 0 0 0 .429-.075.68.68 0 0 0 .392-.297c.085-.142.127-.326.127-.552V43.31c0-.66-.156-1.17-.468-1.527-.312-.36-.692-.538-1.14-.538-.334 0-.64.051-.916.155a3.243 3.243 0 0 0-.738.383c-.208.144-.373.3-.497.466-.122.167-.212.3-.269.401V48c0 .214.044.39.133.529.087.138.22.245.396.32.132.063.275.11.429.142.154.032.313.053.476.066v.622h-4.556v-.622c.145-.013.294-.026.448-.038.155-.012.288-.037.401-.075a.681.681 0 0 0 .392-.297c.085-.141.127-.325.127-.55v-5.74c0-.213-.046-.41-.137-.589a1.174 1.174 0 0 0-.382-.438 1.312 1.312 0 0 0-.424-.165 3.803 3.803 0 0 0-.528-.07v-.623l3.094-.208.131.132v1.312h.048c.15-.151.34-.332.566-.543.226-.21.44-.382.641-.514.233-.15.51-.276.83-.377a3.62 3.62 0 0 1 1.085-.151c.893 0 1.555.278 1.985.835.431.557.646 1.297.646 2.222v4.839c0 .22.039.398.114.533.075.136.204.24.386.316.151.063.282.107.392.132.11.026.262.044.458.057v.622zm8.914-.406c-.41.17-.796.313-1.16.43-.365.116-.812.174-1.34.174-.78 0-1.329-.197-1.646-.59-.318-.393-.477-.948-.477-1.665V41.32h-1.678v-.906h1.716V37.52h1.717v2.896h2.67v.906h-2.651v5.198c0 .39.014.716.042.977.029.26.096.488.203.684.1.182.252.32.453.415.2.094.471.141.811.141a8 8 0 0 0 .693-.043c.306-.028.52-.064.647-.108v.69z" fill="#FFF"/><path d="M14.682 18.745c0-1.362-.457-2.48-1.37-3.355-.912-.875-2.217-1.313-3.913-1.313a53.717 53.717 0 0 0-2.82.065v8.103c0 .681.276 1.195.827 1.54.55.346 1.318.52 2.301.52 1.61 0 2.84-.471 3.695-1.411.853-.94 1.28-2.323 1.28-4.15m-2.25-7.344c.399-.465.676-.974.832-1.526.157-.553.235-1.207.235-1.964 0-1.267-.345-2.26-1.035-2.98-.69-.72-1.778-1.08-3.265-1.08-.346 0-.78.008-1.302.024-.523.017-.962.03-1.317.04v8.85h2.053c.883 0 1.64-.113 2.271-.34.63-.228 1.14-.569 1.528-1.024m3.919 3.471a5.625 5.625 0 0 1 1.669 1.783c.443.735.664 1.626.664 2.674 0 1.07-.232 2-.696 2.788a6.02 6.02 0 0 1-1.815 1.944 8.319 8.319 0 0 1-2.455 1.135c-.913.26-1.856.39-2.828.39H0v-1.151c.26-.022.637-.068 1.135-.138.496-.07.853-.154 1.07-.251.333-.151.572-.355.712-.608.14-.254.21-.58.21-.981V5.924c0-.366-.062-.69-.185-.972-.125-.28-.37-.507-.738-.68a4.583 4.583 0 0 0-1.086-.373c-.4-.087-.734-.14-1.004-.162v-1.15h10.614c.82 0 1.607.08 2.358.242a6.95 6.95 0 0 1 2.146.86 4.656 4.656 0 0 1 1.573 1.539c.41.648.615 1.437.615 2.366 0 .81-.145 1.532-.437 2.163a4.723 4.723 0 0 1-1.232 1.63 7.128 7.128 0 0 1-1.71 1.093 9.988 9.988 0 0 1-2.081.69v.145c.658.076 1.396.24 2.211.494a7.657 7.657 0 0 1 2.18 1.062m17.209-3.209c0 .55-.134 1.04-.404 1.467-.27.427-.687.64-1.248.64-.606 0-1.067-.156-1.386-.47-.318-.313-.478-.659-.478-1.037 0-.238.02-.454.057-.649.038-.194.073-.389.106-.583-.509 0-1.102.206-1.783.616-.68.41-1.259.994-1.734 1.75V22.7c0 .379.073.687.219.924.145.238.375.416.688.535.27.108.619.189 1.045.243.427.054.797.092 1.111.113v1.07h-8.427v-1.07c.248-.021.505-.043.77-.064.265-.021.494-.064.689-.13.302-.097.527-.266.672-.51.146-.242.22-.558.22-.947v-9.858c0-.335-.08-.664-.236-.987a1.968 1.968 0 0 0-.656-.778 2.232 2.232 0 0 0-.73-.283 6.57 6.57 0 0 0-.907-.122v-1.07l5.315-.356.227.227v2.253h.081c.67-.875 1.415-1.54 2.236-1.993.821-.454 1.572-.681 2.253-.681.68 0 1.234.221 1.66.664.427.444.64 1.037.64 1.783m10.842 5.072c-.918.271-1.723.536-2.415.796a9.79 9.79 0 0 0-1.928.974 4.39 4.39 0 0 0-1.28 1.308c-.314.503-.47 1.102-.47 1.795 0 .899.235 1.559.705 1.982.47.422 1.066.633 1.79.633.767 0 1.442-.187 2.026-.56a5.897 5.897 0 0 0 1.474-1.324l.098-5.604zm5.655 8.557a22.42 22.42 0 0 1-1.337.446 4.6 4.6 0 0 1-1.304.17c-.843 0-1.516-.197-2.017-.591-.503-.395-.825-.97-.965-1.726h-.097c-.703.778-1.456 1.372-2.26 1.783-.806.41-1.775.616-2.91.616-1.198 0-2.185-.368-2.957-1.102-.773-.735-1.159-1.697-1.159-2.886 0-.615.087-1.167.26-1.652.172-.487.432-.924.778-1.313a3.87 3.87 0 0 1 1.07-.867 9.328 9.328 0 0 1 1.247-.608c.486-.184 1.472-.524 2.957-1.022 1.486-.497 2.488-.885 3.006-1.166v-1.605c0-.14-.03-.41-.089-.81a3.42 3.42 0 0 0-.38-1.135 3.225 3.225 0 0 0-.916-1.045c-.394-.297-.954-.446-1.677-.446-.498 0-.96.084-1.386.251-.427.168-.727.343-.899.527 0 .217.05.535.154.956.102.422.154.81.154 1.167 0 .378-.17.725-.511 1.037-.34.314-.813.47-1.418.47-.54 0-.937-.191-1.19-.575a2.278 2.278 0 0 1-.382-1.288c0-.497.176-.973.527-1.427.35-.453.808-.859 1.37-1.215.485-.303 1.074-.56 1.766-.77a6.932 6.932 0 0 1 2.025-.316c.908 0 1.699.062 2.374.186a4.358 4.358 0 0 1 1.84.803c.55.4.97.942 1.256 1.628.285.687.429 1.57.429 2.65 0 1.546-.016 2.915-.049 4.109a146.049 146.049 0 0 0-.048 3.914c0 .421.072.757.218 1.005.146.249.37.46.673.632.162.098.418.152.77.162.35.01.71.016 1.077.016v1.037zm19.236.292H61.48v-1.07c.249-.02.522-.042.819-.064a3.06 3.06 0 0 0 .737-.13c.302-.097.527-.268.673-.51.145-.244.219-.56.219-.949v-8.216c0-1.135-.268-2.01-.804-2.627-.537-.615-1.189-.923-1.958-.923-.573 0-1.099.089-1.575.267a5.589 5.589 0 0 0-1.268.656 3.65 3.65 0 0 0-.852.803 7.371 7.371 0 0 0-.463.689v9.19c0 .367.076.67.227.907.151.238.378.421.68.55.228.11.473.19.738.244.265.055.537.092.818.114v1.07h-7.827v-1.07c.248-.022.506-.043.77-.065.265-.022.494-.065.689-.13.302-.097.527-.267.672-.51.146-.242.22-.558.22-.947v-9.858c0-.367-.08-.704-.236-1.012a2.014 2.014 0 0 0-.656-.753 2.222 2.222 0 0 0-.73-.283c-.28-.06-.583-.1-.907-.122v-1.07l5.315-.356.227.227v2.253h.081c.26-.26.584-.57.972-.932a8.46 8.46 0 0 1 1.103-.884 5.788 5.788 0 0 1 1.426-.648 6.227 6.227 0 0 1 1.863-.26c1.534 0 2.671.48 3.411 1.435.74.957 1.11 2.23 1.11 3.817v8.315c0 .378.065.683.195.916.13.232.35.413.664.543.259.108.483.183.673.227.188.043.45.075.786.097v1.07zm13.595-3.095v-9.352a4.186 4.186 0 0 0-.42-.908 4.04 4.04 0 0 0-.728-.89 4.135 4.135 0 0 0-1.1-.674c-.42-.178-.91-.267-1.472-.267a3.35 3.35 0 0 0-1.787.502c-.544.336-1.027.817-1.447 1.443-.4.605-.714 1.375-.946 2.31-.232.934-.347 1.968-.347 3.103 0 .908.085 1.732.258 2.472s.464 1.429.873 2.066a4.49 4.49 0 0 0 1.448 1.459c.587.367 1.285.551 2.094.551.862 0 1.577-.19 2.143-.567a6.922 6.922 0 0 0 1.431-1.248zm5.867 2.803l-5.59.357-.244-.227v-1.491l-.13-.032a6.633 6.633 0 0 1-2.08 1.54 5.789 5.789 0 0 1-2.548.599 6.027 6.027 0 0 1-2.63-.608 6.633 6.633 0 0 1-2.209-1.71c-.636-.746-1.14-1.642-1.512-2.69-.372-1.048-.559-2.205-.559-3.468 0-1.156.2-2.253.599-3.29a8.663 8.663 0 0 1 1.65-2.723 7.28 7.28 0 0 1 2.42-1.735 7.026 7.026 0 0 1 2.921-.648 8.56 8.56 0 0 1 2.192.284c.718.19 1.335.43 1.853.721v-5.57c0-.454-.075-.868-.226-1.242-.152-.374-.363-.657-.632-.853-.303-.205-.71-.354-1.224-.446a15.811 15.811 0 0 0-1.661-.203V.852L85.69.495l.244.243V22.28c0 .378.073.7.219.964.146.265.358.489.64.672.205.13.502.21.891.243.39.033.745.054 1.07.065v1.07zm13.79-13.63c0 .55-.135 1.04-.405 1.467-.27.427-.686.64-1.248.64-.605 0-1.067-.156-1.386-.47-.318-.313-.478-.659-.478-1.037 0-.238.02-.454.057-.649.038-.194.073-.389.106-.583-.508 0-1.102.206-1.783.616-.68.41-1.259.994-1.734 1.75V22.7c0 .379.073.687.219.924.146.238.375.416.688.535.27.108.62.189 1.046.243.427.054.797.092 1.11.113v1.07H90.31v-1.07c.249-.021.505-.043.77-.064.265-.021.495-.064.689-.13.302-.097.527-.266.672-.51.146-.242.22-.558.22-.947v-9.858c0-.335-.08-.664-.236-.987a1.968 1.968 0 0 0-.656-.778 2.232 2.232 0 0 0-.73-.283 6.57 6.57 0 0 0-.907-.122v-1.07l5.316-.356.226.227v2.253h.081c.67-.875 1.415-1.54 2.237-1.993.82-.454 1.57-.681 2.252-.681.68 0 1.234.221 1.66.664.427.444.64 1.037.64 1.783m7.083-8.558a2.36 2.36 0 0 1-.608 1.612c-.405.46-.905.689-1.5.689-.55 0-1.028-.219-1.433-.656-.405-.438-.607-.937-.607-1.5 0-.593.202-1.112.607-1.556.405-.442.884-.663 1.434-.663.616 0 1.12.207 1.516.623.394.416.591.9.591 1.45zm2.026 22.48h-7.714v-1.07c.248-.022.505-.043.77-.065.264-.022.494-.065.688-.13.303-.097.527-.267.673-.51.146-.242.219-.558.219-.947v-9.858a1.95 1.95 0 0 0-.235-.948 2.098 2.098 0 0 0-.657-.72c-.205-.13-.502-.24-.89-.331a6.65 6.65 0 0 0-1.07-.17v-1.07l5.639-.357.227.227v13.03c0 .38.072.693.217.941.145.249.373.433.684.55.236.098.466.177.692.236.226.06.477.1.757.122v1.07zm9.366.421c-2.312 0-4.122-.767-5.429-2.302-1.307-1.534-1.96-3.592-1.96-6.175a9.26 9.26 0 0 1 .526-3.152 8.694 8.694 0 0 1 1.531-2.666 7.165 7.165 0 0 1 2.398-1.856c.962-.47 2.01-.705 3.145-.705 1.566 0 2.84.375 3.824 1.126.983.752 1.475 1.775 1.475 3.072 0 .54-.13 1.018-.39 1.434-.259.416-.686.624-1.28.624-.637 0-1.131-.162-1.482-.485-.351-.323-.527-.683-.527-1.082 0-.485.065-.983.195-1.494.13-.512.204-.886.226-1.124a1.429 1.429 0 0 0-.865-.67 4.331 4.331 0 0 0-1.236-.17c-.517 0-1.01.112-1.48.333-.468.222-.923.63-1.364 1.224-.4.54-.723 1.27-.97 2.188-.248.918-.372 2.015-.372 3.29 0 2.01.445 3.649 1.335 4.919.89 1.27 2.057 1.904 3.502 1.904 1.046 0 1.923-.255 2.63-.765.706-.512 1.362-1.277 1.966-2.298l1.035.68c-.712 1.276-1.653 2.285-2.82 3.031-1.167.746-2.37 1.119-3.613 1.119m24.615-.422h-4.82l-2.71-3.918a80.293 80.293 0 0 0-3.002-4.064l-1.33 1.24v3.793c0 .388.07.71.211.964.14.254.367.44.68.559a4.482 4.482 0 0 0 1.572.357v1.07h-7.826v-1.07c.246-.022.503-.046.772-.074.268-.026.493-.067.676-.122.3-.097.525-.267.676-.51.15-.243.225-.56.225-.95V4.274c0-.4-.084-.775-.251-1.127-.168-.351-.387-.619-.657-.803-.226-.172-.58-.286-1.061-.34a32.693 32.693 0 0 0-1.159-.114V.852l5.915-.357.228.243v16.907a762.75 762.75 0 0 1 2.731-2.713 54.63 54.63 0 0 0 2.474-2.584 3.39 3.39 0 0 0 .283-.382c.103-.157.154-.284.154-.382 0-.293-.235-.51-.705-.65s-.92-.239-1.353-.293V9.604h7.03v1.004c-.908.27-1.71.608-2.407 1.013-.697.406-1.23.77-1.596 1.094-.26.217-.627.568-1.103 1.053a57.682 57.682 0 0 1-1.995 1.909 94.25 94.25 0 0 1 2.99 3.925 375.888 375.888 0 0 0 2.425 3.307c.475.639.902 1.055 1.28 1.249.378.195.93.314 1.653.357v1.07z" fill="#6F8686"/><path d="M165.845 15.116c.485.54.845 1.132 1.077 1.775.232.643.349 1.391.349 2.244 0 2.032-.752 3.707-2.253 5.024-1.502 1.32-3.365 1.978-5.59 1.978-1.027 0-2.054-.16-3.08-.478-1.026-.318-1.912-.705-2.658-1.16l-.696 1.184h-1.297l-.227-7.877h1.313c.27.973.586 1.85.948 2.634.362.784.84 1.515 1.434 2.197a6.492 6.492 0 0 0 1.97 1.522c.75.38 1.622.568 2.616.568.745 0 1.397-.097 1.953-.292.556-.195 1.007-.471 1.353-.828.346-.357.602-.776.77-1.258.168-.481.251-1.036.251-1.663 0-.92-.26-1.777-.778-2.573-.519-.795-1.29-1.398-2.317-1.81a129.71 129.71 0 0 0-2.414-.927 35.854 35.854 0 0 1-2.35-.96c-1.297-.584-2.304-1.348-3.022-2.293-.72-.945-1.078-2.18-1.078-3.703 0-.874.178-1.69.534-2.446a6.38 6.38 0 0 1 1.524-2.025 6.89 6.89 0 0 1 2.22-1.32 7.568 7.568 0 0 1 2.673-.479c1.06 0 2.007.162 2.845.486.837.324 1.601.703 2.293 1.135l.664-1.102h1.297l.13 7.633h-1.313a29.32 29.32 0 0 0-.803-2.511 8.885 8.885 0 0 0-1.158-2.173 5.32 5.32 0 0 0-1.702-1.498c-.67-.374-1.49-.56-2.463-.56-1.026 0-1.901.33-2.625.989s-1.086 1.464-1.086 2.415c0 .994.232 1.818.697 2.471.464.654 1.14 1.191 2.026 1.613.788.378 1.563.705 2.325.98.762.276 1.5.57 2.212.884.648.281 1.272.6 1.872.956.6.356 1.12.773 1.564 1.248m14.503.697c0-.604-.052-1.25-.154-1.939-.103-.69-.267-1.266-.495-1.729a3.293 3.293 0 0 0-1.02-1.212c-.432-.312-.989-.469-1.669-.469-1.135 0-2.077.472-2.828 1.414-.751.943-1.159 2.254-1.224 3.935h7.39zm3.581 6.094c-.67 1.275-1.567 2.29-2.69 3.047-1.124.756-2.414 1.134-3.873 1.134-1.286 0-2.412-.227-3.378-.68-.967-.454-1.764-1.07-2.39-1.848-.627-.778-1.095-1.686-1.402-2.723a11.497 11.497 0 0 1-.462-3.29c0-1.038.164-2.055.494-3.055.33-1 .813-1.899 1.45-2.698a7.022 7.022 0 0 1 2.293-1.856c.913-.47 1.937-.705 3.07-.705 1.168 0 2.167.184 3 .55.83.368 1.507.87 2.025 1.508a6.026 6.026 0 0 1 1.11 2.14 9.38 9.38 0 0 1 .364 2.674v1.07h-10.582c0 1.05.1 2.003.3 2.859.2.855.516 1.607.949 2.257a4.507 4.507 0 0 0 1.652 1.487c.681.363 1.491.544 2.431.544.961 0 1.79-.225 2.487-.676.697-.451 1.37-1.263 2.018-2.436l1.134.697zm11.328-5.089a35.46 35.46 0 0 0-2.415.795 9.79 9.79 0 0 0-1.928.975 4.39 4.39 0 0 0-1.28 1.308c-.314.503-.47 1.102-.47 1.795 0 .898.234 1.559.705 1.981.47.422 1.066.633 1.79.633.767 0 1.442-.186 2.026-.56a5.897 5.897 0 0 0 1.474-1.323l.098-5.604zm5.655 8.557c-.508.184-.953.332-1.337.446a4.6 4.6 0 0 1-1.305.17c-.842 0-1.515-.197-2.017-.592-.502-.394-.824-.97-.964-1.725h-.097c-.703.778-1.456 1.372-2.26 1.782-.806.41-1.775.617-2.91.617-1.199 0-2.185-.369-2.957-1.103-.773-.734-1.159-1.696-1.159-2.885 0-.615.087-1.167.26-1.653.172-.487.432-.924.778-1.313a3.87 3.87 0 0 1 1.069-.867 9.328 9.328 0 0 1 1.248-.607 99.163 99.163 0 0 1 2.957-1.022c1.485-.497 2.488-.886 3.006-1.167v-1.604c0-.14-.03-.41-.089-.81a3.42 3.42 0 0 0-.38-1.135 3.225 3.225 0 0 0-.916-1.045c-.395-.297-.954-.446-1.678-.446-.497 0-.958.084-1.385.251-.427.168-.727.343-.899.526 0 .217.05.536.154.957.102.422.154.81.154 1.167 0 .378-.17.724-.511 1.037-.34.314-.813.47-1.418.47-.54 0-.937-.192-1.191-.575a2.278 2.278 0 0 1-.381-1.289c0-.496.176-.972.527-1.426a5.24 5.24 0 0 1 1.37-1.215c.485-.303 1.074-.56 1.766-.77a6.932 6.932 0 0 1 2.025-.317c.907 0 1.699.063 2.374.187a4.358 4.358 0 0 1 1.84.802c.55.4.97.943 1.256 1.63.285.685.428 1.57.428 2.649 0 1.545-.015 2.915-.048 4.109a146.05 146.05 0 0 0-.048 3.914c0 .421.072.756.218 1.005.146.248.37.46.673.631.162.098.418.152.77.163.35.01.71.016 1.077.016v1.037zm13.823-13.63c0 .55-.135 1.04-.405 1.466-.27.428-.687.64-1.248.64-.606 0-1.067-.156-1.386-.47-.318-.312-.478-.658-.478-1.037 0-.237.02-.453.057-.648.038-.194.073-.389.106-.583-.508 0-1.102.205-1.783.616-.68.41-1.259.994-1.734 1.75v9.303c0 .378.073.686.219.924.145.238.375.416.688.535.27.108.619.189 1.045.243.427.054.797.092 1.111.113v1.07H202.5v-1.07c.248-.021.505-.043.77-.064.265-.022.494-.065.689-.13.302-.097.527-.267.672-.51.146-.243.22-.558.22-.947v-9.858c0-.335-.08-.664-.236-.988a1.968 1.968 0 0 0-.656-.778 2.232 2.232 0 0 0-.73-.282 6.57 6.57 0 0 0-.907-.122v-1.07l5.315-.356.227.227v2.252h.081c.67-.874 1.415-1.539 2.237-1.993.82-.453 1.57-.68 2.252-.68.68 0 1.234.221 1.66.664.427.443.64 1.037.64 1.783m8.752 14.343c-2.312 0-4.122-.767-5.429-2.301-1.307-1.534-1.96-3.592-1.96-6.175 0-1.124.175-2.175.526-3.152a8.682 8.682 0 0 1 1.531-2.666c.637-.767 1.437-1.386 2.398-1.857.962-.47 2.01-.704 3.145-.704 1.566 0 2.84.375 3.824 1.126.983.752 1.474 1.775 1.474 3.072 0 .54-.13 1.018-.388 1.434-.26.416-.687.623-1.28.623-.638 0-1.132-.161-1.483-.484-.352-.323-.527-.684-.527-1.083 0-.484.065-.982.195-1.494.13-.51.204-.885.226-1.123a1.429 1.429 0 0 0-.865-.67 4.331 4.331 0 0 0-1.236-.17c-.517 0-1.01.111-1.48.333-.468.221-.923.63-1.364 1.224-.4.54-.723 1.27-.97 2.188-.248.918-.372 2.015-.372 3.29 0 2.01.445 3.649 1.335 4.918.89 1.27 2.057 1.905 3.502 1.905 1.046 0 1.923-.255 2.63-.766.706-.511 1.362-1.276 1.966-2.297l1.035.68c-.713 1.275-1.653 2.285-2.82 3.031-1.167.745-2.37 1.118-3.613 1.118m25.069-.421h-7.86v-1.07c.249-.021.524-.043.827-.065.302-.02.551-.064.746-.13.301-.096.526-.267.672-.51.146-.243.218-.559.218-.948v-8.217c0-1.135-.268-2.01-.804-2.626-.536-.615-1.188-.923-1.957-.923-.563 0-1.085.089-1.567.267a5.885 5.885 0 0 0-1.291.656c-.368.27-.65.541-.845.811-.195.27-.347.497-.455.68v9.19c0 .368.073.67.219.908.146.238.37.42.673.55.237.11.483.19.737.243.254.055.532.093.834.114v1.07h-7.827v-1.07c.247-.021.504-.046.773-.073.268-.026.493-.067.676-.122.3-.097.525-.267.676-.51.15-.243.225-.56.225-.95V4.325c0-.368-.084-.735-.251-1.103-.168-.368-.387-.643-.657-.828-.194-.14-.537-.24-1.028-.3-.492-.059-.89-.1-1.192-.121V.934l5.915-.356.227.243v11.15h.065c.357-.355.682-.672.974-.947a7.813 7.813 0 0 1 1.152-.868 6.11 6.11 0 0 1 1.453-.648 6.331 6.331 0 0 1 1.875-.26c1.428 0 2.526.452 3.295 1.354.767.903 1.152 2.202 1.152 3.898v8.314c0 .379.068.684.204.916.136.233.361.414.677.543.25.097.476.17.677.219.202.049.466.084.792.105v1.07z" fill="#FFF"/></g></svg>